%TF.GenerationSoftware,KiCad,Pcbnew,(6.0.5)*%
%TF.CreationDate,2022-09-12T21:51:21+10:00*%
%TF.ProjectId,shield,73686965-6c64-42e6-9b69-6361645f7063,rev?*%
%TF.SameCoordinates,Original*%
%TF.FileFunction,Copper,L3,Inr*%
%TF.FilePolarity,Positive*%
%FSLAX46Y46*%
G04 Gerber Fmt 4.6, Leading zero omitted, Abs format (unit mm)*
G04 Created by KiCad (PCBNEW (6.0.5)) date 2022-09-12 21:51:21*
%MOMM*%
%LPD*%
G01*
G04 APERTURE LIST*
%TA.AperFunction,ComponentPad*%
%ADD10C,2.006600*%
%TD*%
%TA.AperFunction,ComponentPad*%
%ADD11C,1.905000*%
%TD*%
%TA.AperFunction,ComponentPad*%
%ADD12O,0.900000X1.800000*%
%TD*%
%TA.AperFunction,ComponentPad*%
%ADD13C,1.700000*%
%TD*%
%TA.AperFunction,ComponentPad*%
%ADD14O,1.700000X1.700000*%
%TD*%
%TA.AperFunction,ComponentPad*%
%ADD15R,1.700000X1.700000*%
%TD*%
%TA.AperFunction,ComponentPad*%
%ADD16C,1.500000*%
%TD*%
%TA.AperFunction,ViaPad*%
%ADD17C,0.800000*%
%TD*%
%TA.AperFunction,Conductor*%
%ADD18C,0.250000*%
%TD*%
G04 APERTURE END LIST*
D10*
%TO.N,PIN_TRIG*%
%TO.C,J7*%
X78740000Y-111760000D03*
D11*
%TO.N,GND*%
X76187300Y-109207300D03*
X76187300Y-114312700D03*
X81292700Y-114312700D03*
X81292700Y-109207300D03*
%TD*%
D12*
%TO.N,Net-(J4-PadS1)*%
%TO.C,J4*%
X96009993Y-62407800D03*
X89410000Y-62407800D03*
%TD*%
D13*
%TO.N,H_MISO*%
%TO.C,J3*%
X78724989Y-99054996D03*
D14*
%TO.N,VCC*%
X78725000Y-101595000D03*
%TO.N,H_SCK*%
X76185000Y-99055000D03*
%TO.N,H_MOSI*%
X76185000Y-101595000D03*
%TO.N,AVR_RESET*%
X73645000Y-99055000D03*
D15*
%TO.N,GND*%
X73644989Y-101594996D03*
%TD*%
D13*
%TO.N,GND*%
%TO.C,J1*%
X50800000Y-113030000D03*
D14*
%TO.N,3.3V*%
X50800000Y-110490000D03*
%TO.N,unconnected-(J1-Pad3)*%
X50800000Y-107950000D03*
%TO.N,unconnected-(J1-Pad4)*%
X50800000Y-105410000D03*
%TO.N,unconnected-(J1-Pad5)*%
X50800000Y-102870000D03*
%TO.N,unconnected-(J1-Pad6)*%
X50800000Y-100330000D03*
%TO.N,unconnected-(J1-Pad7)*%
X50800000Y-97790000D03*
%TO.N,unconnected-(J1-Pad8)*%
X50800000Y-95250000D03*
%TO.N,unconnected-(J1-Pad9)*%
X50800000Y-92710000D03*
%TO.N,unconnected-(J1-Pad10)*%
X50800000Y-90170000D03*
%TO.N,unconnected-(J1-Pad11)*%
X50800000Y-87630000D03*
%TO.N,unconnected-(J1-Pad12)*%
X50800000Y-85090000D03*
%TO.N,unconnected-(J1-Pad13)*%
X50800000Y-82550000D03*
%TO.N,unconnected-(J1-Pad14)*%
X50800000Y-80010000D03*
%TO.N,unconnected-(J1-Pad15)*%
X50800000Y-77470000D03*
%TO.N,unconnected-(J1-Pad16)*%
X50800000Y-74930000D03*
%TO.N,unconnected-(J1-Pad17)*%
X50800000Y-72390000D03*
%TO.N,unconnected-(J1-Pad18)*%
X50800000Y-69850000D03*
%TO.N,unconnected-(J1-Pad19)*%
X50800000Y-67310000D03*
%TO.N,unconnected-(J1-Pad20)*%
X50800000Y-64770000D03*
%TD*%
D13*
%TO.N,GND*%
%TO.C,J2*%
X111760003Y-113030000D03*
D14*
%TO.N,5V*%
X111760000Y-110490000D03*
%TO.N,unconnected-(J2-Pad3)*%
X111760000Y-107950000D03*
%TO.N,unconnected-(J2-Pad4)*%
X111760000Y-105410000D03*
%TO.N,unconnected-(J2-Pad5)*%
X111760000Y-102870000D03*
%TO.N,unconnected-(J2-Pad6)*%
X111760000Y-100330000D03*
%TO.N,unconnected-(J2-Pad7)*%
X111760000Y-97790000D03*
%TO.N,unconnected-(J2-Pad8)*%
X111760000Y-95250000D03*
%TO.N,unconnected-(J2-Pad9)*%
X111760000Y-92710000D03*
%TO.N,unconnected-(J2-Pad10)*%
X111760000Y-90170000D03*
%TO.N,unconnected-(J2-Pad11)*%
X111760000Y-87630000D03*
%TO.N,unconnected-(J2-Pad12)*%
X111760000Y-85090000D03*
%TO.N,unconnected-(J2-Pad13)*%
X111760000Y-82550000D03*
%TO.N,unconnected-(J2-Pad14)*%
X111760000Y-80010000D03*
%TO.N,unconnected-(J2-Pad15)*%
X111760000Y-77470000D03*
%TO.N,unconnected-(J2-Pad16)*%
X111760000Y-74930000D03*
%TO.N,unconnected-(J2-Pad17)*%
X111760000Y-72390000D03*
%TO.N,unconnected-(J2-Pad18)*%
X111760000Y-69850000D03*
%TO.N,unconnected-(J2-Pad19)*%
X111760000Y-67310000D03*
%TO.N,unconnected-(J2-Pad20)*%
X111760000Y-64770000D03*
%TD*%
D13*
%TO.N,VCC*%
%TO.C,J6*%
X60970000Y-113030000D03*
D14*
%TO.N,TXD*%
X63510000Y-113030000D03*
%TO.N,RXD*%
X66050000Y-113030000D03*
D15*
%TO.N,GND*%
X68590000Y-113030000D03*
%TD*%
D16*
%TO.N,Net-(U1-Pad8)*%
%TO.C,Y1*%
X64770000Y-92620000D03*
%TO.N,Net-(U1-Pad7)*%
X64770000Y-87740000D03*
%TD*%
D13*
%TO.N,GND*%
%TO.C,SW1*%
X91440000Y-96535000D03*
D14*
%TO.N,AVR_RESET*%
X91440000Y-101615000D03*
%TD*%
D17*
%TO.N,PIN_TRIG*%
X74930000Y-90170000D03*
%TO.N,GND*%
X87630000Y-71120000D03*
X81280000Y-78740000D03*
X101600000Y-81280000D03*
%TO.N,5V*%
X83820000Y-76200000D03*
%TO.N,D_MINUS*%
X93980000Y-71120000D03*
X74930000Y-81280000D03*
X93980000Y-83820000D03*
%TO.N,D_PLUS*%
X91440000Y-71120000D03*
X93980000Y-82550000D03*
X72390000Y-81280000D03*
%TO.N,VCC*%
X74737011Y-87630000D03*
X101600000Y-85090000D03*
X87630000Y-80010000D03*
X69850000Y-97790000D03*
X97790000Y-96520000D03*
%TO.N,H_RESN*%
X92710000Y-83820000D03*
X76200000Y-95250000D03*
%TO.N,H_SS*%
X76200000Y-93980000D03*
X87630000Y-91440000D03*
%TO.N,H_SCK*%
X81280000Y-95250000D03*
%TO.N,AVR_RESET*%
X76200000Y-85090000D03*
%TO.N,TXD*%
X73660000Y-85090000D03*
%TO.N,RXD*%
X74930000Y-85090000D03*
%TO.N,VUSB_ON*%
X88900000Y-77470000D03*
X91440000Y-83820000D03*
%TD*%
D18*
%TO.N,PIN_TRIG*%
X74930000Y-102001010D02*
X78740000Y-105811010D01*
X78740000Y-105811010D02*
X78740000Y-111760000D01*
X74930000Y-90170000D02*
X74930000Y-102001010D01*
%TO.N,VCC*%
X69850000Y-95250000D02*
X69850000Y-97790000D01*
X71120000Y-93980000D02*
X69850000Y-95250000D01*
X74737011Y-89092989D02*
X71120000Y-92710000D01*
X71120000Y-92710000D02*
X71120000Y-93980000D01*
X74737011Y-87630000D02*
X74737011Y-89092989D01*
%TO.N,D_PLUS*%
X73660000Y-82550000D02*
X72390000Y-81280000D01*
X93980000Y-82550000D02*
X91440000Y-80010000D01*
X93980000Y-82550000D02*
X73660000Y-82550000D01*
X91440000Y-80010000D02*
X91440000Y-71120000D01*
%TD*%
%TA.AperFunction,Conductor*%
%TO.N,GND*%
G36*
X88453635Y-61488502D02*
G01*
X88500128Y-61542158D01*
X88510232Y-61612432D01*
X88501152Y-61644538D01*
X88491655Y-61666484D01*
X88490350Y-61672731D01*
X88490349Y-61672734D01*
X88471268Y-61764073D01*
X88451835Y-61857093D01*
X88451500Y-61863485D01*
X88451500Y-62906463D01*
X88466235Y-63051527D01*
X88468144Y-63057618D01*
X88522556Y-63231251D01*
X88522558Y-63231256D01*
X88524465Y-63237341D01*
X88618870Y-63407650D01*
X88623019Y-63412491D01*
X88623022Y-63412495D01*
X88720855Y-63526638D01*
X88745591Y-63555498D01*
X88899453Y-63674846D01*
X88905176Y-63677662D01*
X88905179Y-63677664D01*
X89068444Y-63758000D01*
X89074171Y-63760818D01*
X89080349Y-63762427D01*
X89080351Y-63762428D01*
X89256425Y-63808292D01*
X89256428Y-63808292D01*
X89262607Y-63809902D01*
X89346597Y-63814304D01*
X89450683Y-63819759D01*
X89450687Y-63819759D01*
X89457064Y-63820093D01*
X89612413Y-63796599D01*
X89643285Y-63791930D01*
X89643286Y-63791930D01*
X89649599Y-63790975D01*
X89655585Y-63788772D01*
X89655591Y-63788771D01*
X89826360Y-63725940D01*
X89826365Y-63725938D01*
X89832346Y-63723737D01*
X89997840Y-63621126D01*
X90002725Y-63616507D01*
X90134685Y-63491719D01*
X90139322Y-63487334D01*
X90251011Y-63327825D01*
X90328345Y-63149116D01*
X90329651Y-63142866D01*
X90367176Y-62963243D01*
X90367177Y-62963238D01*
X90368165Y-62958507D01*
X90368500Y-62952115D01*
X90368500Y-61909137D01*
X90353765Y-61764073D01*
X90312432Y-61632178D01*
X90311148Y-61561194D01*
X90348445Y-61500783D01*
X90412482Y-61470127D01*
X90432666Y-61468500D01*
X94985507Y-61468500D01*
X95053628Y-61488502D01*
X95100121Y-61542158D01*
X95110225Y-61612432D01*
X95101145Y-61644538D01*
X95091648Y-61666484D01*
X95090343Y-61672731D01*
X95090342Y-61672734D01*
X95071261Y-61764073D01*
X95051828Y-61857093D01*
X95051493Y-61863485D01*
X95051493Y-62906463D01*
X95066228Y-63051527D01*
X95068137Y-63057618D01*
X95122549Y-63231251D01*
X95122551Y-63231256D01*
X95124458Y-63237341D01*
X95218863Y-63407650D01*
X95223012Y-63412491D01*
X95223015Y-63412495D01*
X95320848Y-63526638D01*
X95345584Y-63555498D01*
X95499446Y-63674846D01*
X95505169Y-63677662D01*
X95505172Y-63677664D01*
X95668437Y-63758000D01*
X95674164Y-63760818D01*
X95680342Y-63762427D01*
X95680344Y-63762428D01*
X95856418Y-63808292D01*
X95856421Y-63808292D01*
X95862600Y-63809902D01*
X95946590Y-63814304D01*
X96050676Y-63819759D01*
X96050680Y-63819759D01*
X96057057Y-63820093D01*
X96212406Y-63796599D01*
X96243278Y-63791930D01*
X96243279Y-63791930D01*
X96249592Y-63790975D01*
X96255578Y-63788772D01*
X96255584Y-63788771D01*
X96426353Y-63725940D01*
X96426358Y-63725938D01*
X96432339Y-63723737D01*
X96597833Y-63621126D01*
X96602718Y-63616507D01*
X96734678Y-63491719D01*
X96739315Y-63487334D01*
X96851004Y-63327825D01*
X96928338Y-63149116D01*
X96929644Y-63142866D01*
X96967169Y-62963243D01*
X96967170Y-62963238D01*
X96968158Y-62958507D01*
X96968493Y-62952115D01*
X96968493Y-61909137D01*
X96953758Y-61764073D01*
X96912425Y-61632178D01*
X96911141Y-61561194D01*
X96948438Y-61500783D01*
X97012475Y-61470127D01*
X97032659Y-61468500D01*
X111710633Y-61468500D01*
X111730018Y-61470000D01*
X111744851Y-61472310D01*
X111744855Y-61472310D01*
X111753724Y-61473691D01*
X111772436Y-61471244D01*
X111795366Y-61470353D01*
X112098503Y-61486240D01*
X112111617Y-61487618D01*
X112439898Y-61539613D01*
X112452799Y-61542355D01*
X112714331Y-61612432D01*
X112773846Y-61628379D01*
X112786382Y-61632453D01*
X113057468Y-61736513D01*
X113096672Y-61751562D01*
X113108720Y-61756926D01*
X113404867Y-61907820D01*
X113416288Y-61914414D01*
X113695040Y-62095437D01*
X113705710Y-62103190D01*
X113964004Y-62312352D01*
X113973805Y-62321177D01*
X114208823Y-62556195D01*
X114217648Y-62565996D01*
X114426810Y-62824290D01*
X114434563Y-62834960D01*
X114615586Y-63113712D01*
X114622180Y-63125133D01*
X114773074Y-63421280D01*
X114778438Y-63433328D01*
X114785632Y-63452069D01*
X114888626Y-63720375D01*
X114897545Y-63743610D01*
X114901620Y-63756152D01*
X114944561Y-63916411D01*
X114987645Y-64077202D01*
X114990387Y-64090102D01*
X115042382Y-64418383D01*
X115043760Y-64431500D01*
X115059262Y-64727298D01*
X115057935Y-64753273D01*
X115057691Y-64754843D01*
X115057691Y-64754849D01*
X115056309Y-64763724D01*
X115057473Y-64772626D01*
X115057473Y-64772628D01*
X115060436Y-64795283D01*
X115061500Y-64811621D01*
X115061500Y-112980633D01*
X115060000Y-113000018D01*
X115057690Y-113014851D01*
X115057690Y-113014855D01*
X115056309Y-113023724D01*
X115058136Y-113037693D01*
X115058756Y-113042433D01*
X115059647Y-113065366D01*
X115047239Y-113302115D01*
X115043760Y-113368501D01*
X115042382Y-113381617D01*
X114990387Y-113709898D01*
X114987645Y-113722798D01*
X114927260Y-113948161D01*
X114901621Y-114043846D01*
X114897547Y-114056382D01*
X114800443Y-114309347D01*
X114778438Y-114366672D01*
X114773074Y-114378720D01*
X114622180Y-114674867D01*
X114615586Y-114686288D01*
X114434563Y-114965040D01*
X114426810Y-114975710D01*
X114217648Y-115234004D01*
X114208823Y-115243805D01*
X113973805Y-115478823D01*
X113964004Y-115487648D01*
X113705710Y-115696810D01*
X113695040Y-115704563D01*
X113416288Y-115885586D01*
X113404867Y-115892180D01*
X113108720Y-116043074D01*
X113096671Y-116048438D01*
X112786382Y-116167547D01*
X112773846Y-116171621D01*
X112452798Y-116257645D01*
X112439898Y-116260387D01*
X112111617Y-116312382D01*
X112098501Y-116313760D01*
X112064848Y-116315524D01*
X111802702Y-116329262D01*
X111776727Y-116327935D01*
X111775157Y-116327691D01*
X111775151Y-116327691D01*
X111766276Y-116326309D01*
X111757374Y-116327473D01*
X111757372Y-116327473D01*
X111742323Y-116329441D01*
X111734714Y-116330436D01*
X111718379Y-116331500D01*
X50849367Y-116331500D01*
X50829982Y-116330000D01*
X50815149Y-116327690D01*
X50815145Y-116327690D01*
X50806276Y-116326309D01*
X50787564Y-116328756D01*
X50764634Y-116329647D01*
X50461497Y-116313760D01*
X50448383Y-116312382D01*
X50120102Y-116260387D01*
X50107202Y-116257645D01*
X49786154Y-116171621D01*
X49773618Y-116167547D01*
X49463329Y-116048438D01*
X49451280Y-116043074D01*
X49155133Y-115892180D01*
X49143712Y-115885586D01*
X48864960Y-115704563D01*
X48854290Y-115696810D01*
X48627703Y-115513324D01*
X75351912Y-115513324D01*
X75355414Y-115518251D01*
X75549618Y-115631735D01*
X75558901Y-115636182D01*
X75773606Y-115718170D01*
X75783508Y-115721047D01*
X76008702Y-115766863D01*
X76018954Y-115768086D01*
X76248616Y-115776507D01*
X76258902Y-115776040D01*
X76486865Y-115746837D01*
X76496951Y-115744694D01*
X76717079Y-115678652D01*
X76726674Y-115674891D01*
X76933050Y-115573789D01*
X76941916Y-115568504D01*
X77010037Y-115519913D01*
X77015210Y-115513324D01*
X80457312Y-115513324D01*
X80460814Y-115518251D01*
X80655018Y-115631735D01*
X80664301Y-115636182D01*
X80879006Y-115718170D01*
X80888908Y-115721047D01*
X81114102Y-115766863D01*
X81124354Y-115768086D01*
X81354016Y-115776507D01*
X81364302Y-115776040D01*
X81592265Y-115746837D01*
X81602351Y-115744694D01*
X81822479Y-115678652D01*
X81832074Y-115674891D01*
X82038450Y-115573789D01*
X82047316Y-115568504D01*
X82115437Y-115519913D01*
X82123838Y-115509213D01*
X82116850Y-115496060D01*
X81305512Y-114684722D01*
X81291568Y-114677108D01*
X81289735Y-114677239D01*
X81283120Y-114681490D01*
X80464560Y-115500050D01*
X80457312Y-115513324D01*
X77015210Y-115513324D01*
X77018438Y-115509213D01*
X77011450Y-115496060D01*
X76200112Y-114684722D01*
X76186168Y-114677108D01*
X76184335Y-114677239D01*
X76177720Y-114681490D01*
X75359160Y-115500050D01*
X75351912Y-115513324D01*
X48627703Y-115513324D01*
X48595996Y-115487648D01*
X48586195Y-115478823D01*
X48351177Y-115243805D01*
X48342352Y-115234004D01*
X48133190Y-114975710D01*
X48125437Y-114965040D01*
X47944414Y-114686288D01*
X47937820Y-114674867D01*
X47786926Y-114378720D01*
X47781562Y-114366672D01*
X47759557Y-114309347D01*
X47700252Y-114154853D01*
X50039977Y-114154853D01*
X50045258Y-114161907D01*
X50206756Y-114256279D01*
X50216042Y-114260729D01*
X50415001Y-114336703D01*
X50424899Y-114339579D01*
X50633595Y-114382038D01*
X50643823Y-114383257D01*
X50856650Y-114391062D01*
X50866936Y-114390595D01*
X51078185Y-114363534D01*
X51088262Y-114361392D01*
X51292255Y-114300191D01*
X51301842Y-114296433D01*
X51493098Y-114202738D01*
X51501944Y-114197465D01*
X51549247Y-114163723D01*
X51557648Y-114153023D01*
X51550660Y-114139870D01*
X50812812Y-113402022D01*
X50798868Y-113394408D01*
X50797035Y-113394539D01*
X50790420Y-113398790D01*
X50046737Y-114142473D01*
X50039977Y-114154853D01*
X47700252Y-114154853D01*
X47662453Y-114056382D01*
X47658379Y-114043846D01*
X47632741Y-113948161D01*
X47572355Y-113722798D01*
X47569613Y-113709898D01*
X47517618Y-113381617D01*
X47516240Y-113368501D01*
X47512761Y-113302115D01*
X47500932Y-113076413D01*
X47502506Y-113048910D01*
X47502770Y-113047341D01*
X47503576Y-113042552D01*
X47503729Y-113030000D01*
X47499773Y-113002376D01*
X47499736Y-113001863D01*
X49438050Y-113001863D01*
X49450309Y-113214477D01*
X49451745Y-113224697D01*
X49498565Y-113432446D01*
X49501645Y-113442275D01*
X49581770Y-113639603D01*
X49586413Y-113648794D01*
X49666460Y-113779420D01*
X49676916Y-113788880D01*
X49685694Y-113785096D01*
X50427978Y-113042812D01*
X50434356Y-113031132D01*
X51164408Y-113031132D01*
X51164539Y-113032965D01*
X51168790Y-113039580D01*
X51910474Y-113781264D01*
X51922484Y-113787823D01*
X51934223Y-113778855D01*
X51965004Y-113736019D01*
X51970315Y-113727180D01*
X52064670Y-113536267D01*
X52068469Y-113526672D01*
X52130376Y-113322915D01*
X52132555Y-113312834D01*
X52160590Y-113099887D01*
X52161109Y-113093212D01*
X52162572Y-113033364D01*
X52162378Y-113026646D01*
X52159916Y-112996695D01*
X59607251Y-112996695D01*
X59607548Y-113001848D01*
X59607548Y-113001851D01*
X59613962Y-113113084D01*
X59620110Y-113219715D01*
X59621247Y-113224761D01*
X59621248Y-113224767D01*
X59642275Y-113318069D01*
X59669222Y-113437639D01*
X59728875Y-113584547D01*
X59745266Y-113624913D01*
X59753266Y-113644616D01*
X59793271Y-113709898D01*
X59867291Y-113830688D01*
X59869987Y-113835088D01*
X60016250Y-114003938D01*
X60188126Y-114146632D01*
X60381000Y-114259338D01*
X60589692Y-114339030D01*
X60594760Y-114340061D01*
X60594763Y-114340062D01*
X60699604Y-114361392D01*
X60808597Y-114383567D01*
X60813772Y-114383757D01*
X60813774Y-114383757D01*
X61026673Y-114391564D01*
X61026677Y-114391564D01*
X61031837Y-114391753D01*
X61036957Y-114391097D01*
X61036959Y-114391097D01*
X61248288Y-114364025D01*
X61248289Y-114364025D01*
X61253416Y-114363368D01*
X61258366Y-114361883D01*
X61462429Y-114300661D01*
X61462434Y-114300659D01*
X61467384Y-114299174D01*
X61667994Y-114200896D01*
X61849860Y-114071173D01*
X61870887Y-114050220D01*
X61973171Y-113948292D01*
X62008096Y-113913489D01*
X62067594Y-113830689D01*
X62138453Y-113732077D01*
X62139776Y-113733028D01*
X62186645Y-113689857D01*
X62256580Y-113677625D01*
X62322026Y-113705144D01*
X62349875Y-113736994D01*
X62409987Y-113835088D01*
X62556250Y-114003938D01*
X62728126Y-114146632D01*
X62921000Y-114259338D01*
X63129692Y-114339030D01*
X63134760Y-114340061D01*
X63134763Y-114340062D01*
X63239604Y-114361392D01*
X63348597Y-114383567D01*
X63353772Y-114383757D01*
X63353774Y-114383757D01*
X63566673Y-114391564D01*
X63566677Y-114391564D01*
X63571837Y-114391753D01*
X63576957Y-114391097D01*
X63576959Y-114391097D01*
X63788288Y-114364025D01*
X63788289Y-114364025D01*
X63793416Y-114363368D01*
X63798366Y-114361883D01*
X64002429Y-114300661D01*
X64002434Y-114300659D01*
X64007384Y-114299174D01*
X64207994Y-114200896D01*
X64389860Y-114071173D01*
X64410887Y-114050220D01*
X64513171Y-113948292D01*
X64548096Y-113913489D01*
X64607594Y-113830689D01*
X64678453Y-113732077D01*
X64679776Y-113733028D01*
X64726645Y-113689857D01*
X64796580Y-113677625D01*
X64862026Y-113705144D01*
X64889875Y-113736994D01*
X64949987Y-113835088D01*
X65096250Y-114003938D01*
X65268126Y-114146632D01*
X65461000Y-114259338D01*
X65669692Y-114339030D01*
X65674760Y-114340061D01*
X65674763Y-114340062D01*
X65779604Y-114361392D01*
X65888597Y-114383567D01*
X65893772Y-114383757D01*
X65893774Y-114383757D01*
X66106673Y-114391564D01*
X66106677Y-114391564D01*
X66111837Y-114391753D01*
X66116957Y-114391097D01*
X66116959Y-114391097D01*
X66328288Y-114364025D01*
X66328289Y-114364025D01*
X66333416Y-114363368D01*
X66338366Y-114361883D01*
X66542429Y-114300661D01*
X66542434Y-114300659D01*
X66547384Y-114299174D01*
X66747994Y-114200896D01*
X66929860Y-114071173D01*
X66950887Y-114050220D01*
X67038479Y-113962933D01*
X67100851Y-113929017D01*
X67171658Y-113934205D01*
X67228419Y-113976851D01*
X67245401Y-114007954D01*
X67286676Y-114118054D01*
X67295214Y-114133649D01*
X67371715Y-114235724D01*
X67384276Y-114248285D01*
X67486351Y-114324786D01*
X67501946Y-114333324D01*
X67622394Y-114378478D01*
X67637649Y-114382105D01*
X67688514Y-114387631D01*
X67695328Y-114388000D01*
X68317885Y-114388000D01*
X68333124Y-114383525D01*
X68334329Y-114382135D01*
X68336000Y-114374452D01*
X68336000Y-114369884D01*
X68844000Y-114369884D01*
X68848475Y-114385123D01*
X68849865Y-114386328D01*
X68857548Y-114387999D01*
X69484669Y-114387999D01*
X69491490Y-114387629D01*
X69542352Y-114382105D01*
X69557604Y-114378479D01*
X69678054Y-114333324D01*
X69693649Y-114324786D01*
X69750670Y-114282051D01*
X74722529Y-114282051D01*
X74735759Y-114511490D01*
X74737195Y-114521711D01*
X74787720Y-114745904D01*
X74790799Y-114755732D01*
X74877267Y-114968676D01*
X74881910Y-114977867D01*
X74979219Y-115136661D01*
X74989676Y-115146121D01*
X74998452Y-115142338D01*
X75815278Y-114325512D01*
X75821656Y-114313832D01*
X76551708Y-114313832D01*
X76551839Y-114315665D01*
X76556090Y-114322280D01*
X77371222Y-115137412D01*
X77383232Y-115143971D01*
X77394971Y-115135003D01*
X77440465Y-115071691D01*
X77445776Y-115062852D01*
X77547598Y-114856829D01*
X77551397Y-114847234D01*
X77618204Y-114627350D01*
X77620383Y-114617269D01*
X77650618Y-114387612D01*
X77651137Y-114380937D01*
X77652723Y-114316064D01*
X77652529Y-114309347D01*
X77650285Y-114282051D01*
X79827929Y-114282051D01*
X79841159Y-114511490D01*
X79842595Y-114521711D01*
X79893120Y-114745904D01*
X79896199Y-114755732D01*
X79982667Y-114968676D01*
X79987310Y-114977867D01*
X80084619Y-115136661D01*
X80095076Y-115146121D01*
X80103852Y-115142338D01*
X80920678Y-114325512D01*
X80927056Y-114313832D01*
X81657108Y-114313832D01*
X81657239Y-114315665D01*
X81661490Y-114322280D01*
X82476622Y-115137412D01*
X82488632Y-115143971D01*
X82500371Y-115135003D01*
X82545865Y-115071691D01*
X82551176Y-115062852D01*
X82652998Y-114856829D01*
X82656797Y-114847234D01*
X82723604Y-114627350D01*
X82725783Y-114617269D01*
X82756018Y-114387612D01*
X82756537Y-114380937D01*
X82758123Y-114316064D01*
X82757929Y-114309347D01*
X82745228Y-114154853D01*
X110999980Y-114154853D01*
X111005261Y-114161907D01*
X111166759Y-114256279D01*
X111176045Y-114260729D01*
X111375004Y-114336703D01*
X111384902Y-114339579D01*
X111593598Y-114382038D01*
X111603826Y-114383257D01*
X111816653Y-114391062D01*
X111826939Y-114390595D01*
X112038188Y-114363534D01*
X112048265Y-114361392D01*
X112252258Y-114300191D01*
X112261845Y-114296433D01*
X112453101Y-114202738D01*
X112461947Y-114197465D01*
X112509250Y-114163723D01*
X112517651Y-114153023D01*
X112510663Y-114139870D01*
X111772815Y-113402022D01*
X111758871Y-113394408D01*
X111757038Y-113394539D01*
X111750423Y-113398790D01*
X111006740Y-114142473D01*
X110999980Y-114154853D01*
X82745228Y-114154853D01*
X82738950Y-114078496D01*
X82737267Y-114068334D01*
X82681278Y-113845429D01*
X82677959Y-113835681D01*
X82586316Y-113624913D01*
X82581449Y-113615836D01*
X82499891Y-113489769D01*
X82489205Y-113480567D01*
X82479640Y-113484970D01*
X81664722Y-114299888D01*
X81657108Y-114313832D01*
X80927056Y-114313832D01*
X80928292Y-114311568D01*
X80928161Y-114309735D01*
X80923910Y-114303120D01*
X80108785Y-113487995D01*
X80097249Y-113481695D01*
X80084966Y-113491319D01*
X80021370Y-113584547D01*
X80016271Y-113593521D01*
X79919513Y-113801969D01*
X79915950Y-113811656D01*
X79854535Y-114033109D01*
X79852604Y-114043229D01*
X79828181Y-114271763D01*
X79827929Y-114282051D01*
X77650285Y-114282051D01*
X77633550Y-114078496D01*
X77631867Y-114068334D01*
X77575878Y-113845429D01*
X77572559Y-113835681D01*
X77480916Y-113624913D01*
X77476049Y-113615836D01*
X77394491Y-113489769D01*
X77383805Y-113480567D01*
X77374240Y-113484970D01*
X76559322Y-114299888D01*
X76551708Y-114313832D01*
X75821656Y-114313832D01*
X75822892Y-114311568D01*
X75822761Y-114309735D01*
X75818510Y-114303120D01*
X75003385Y-113487995D01*
X74991849Y-113481695D01*
X74979566Y-113491319D01*
X74915970Y-113584547D01*
X74910871Y-113593521D01*
X74814113Y-113801969D01*
X74810550Y-113811656D01*
X74749135Y-114033109D01*
X74747204Y-114043229D01*
X74722781Y-114271763D01*
X74722529Y-114282051D01*
X69750670Y-114282051D01*
X69795724Y-114248285D01*
X69808285Y-114235724D01*
X69884786Y-114133649D01*
X69893324Y-114118054D01*
X69938478Y-113997606D01*
X69942105Y-113982351D01*
X69947631Y-113931486D01*
X69948000Y-113924672D01*
X69948000Y-113302115D01*
X69943525Y-113286876D01*
X69942135Y-113285671D01*
X69934452Y-113284000D01*
X68862115Y-113284000D01*
X68846876Y-113288475D01*
X68845671Y-113289865D01*
X68844000Y-113297548D01*
X68844000Y-114369884D01*
X68336000Y-114369884D01*
X68336000Y-113115913D01*
X75355309Y-113115913D01*
X75362053Y-113128243D01*
X76174488Y-113940678D01*
X76188432Y-113948292D01*
X76190265Y-113948161D01*
X76196880Y-113943910D01*
X77013670Y-113127120D01*
X77020690Y-113114264D01*
X77012915Y-113103594D01*
X77002361Y-113095258D01*
X76993768Y-113089549D01*
X76792578Y-112978486D01*
X76783166Y-112974256D01*
X76566532Y-112897541D01*
X76556561Y-112894907D01*
X76330305Y-112854605D01*
X76320052Y-112853636D01*
X76090242Y-112850828D01*
X76079958Y-112851548D01*
X75852784Y-112886310D01*
X75842757Y-112888699D01*
X75624312Y-112960098D01*
X75614803Y-112964095D01*
X75410953Y-113070213D01*
X75402235Y-113075702D01*
X75363762Y-113104588D01*
X75355309Y-113115913D01*
X68336000Y-113115913D01*
X68336000Y-112757885D01*
X68844000Y-112757885D01*
X68848475Y-112773124D01*
X68849865Y-112774329D01*
X68857548Y-112776000D01*
X69929884Y-112776000D01*
X69945123Y-112771525D01*
X69946328Y-112770135D01*
X69947999Y-112762452D01*
X69947999Y-112135331D01*
X69947629Y-112128510D01*
X69942105Y-112077648D01*
X69938479Y-112062396D01*
X69893324Y-111941946D01*
X69884786Y-111926351D01*
X69808285Y-111824276D01*
X69795724Y-111811715D01*
X69693649Y-111735214D01*
X69678054Y-111726676D01*
X69557606Y-111681522D01*
X69542351Y-111677895D01*
X69491486Y-111672369D01*
X69484672Y-111672000D01*
X68862115Y-111672000D01*
X68846876Y-111676475D01*
X68845671Y-111677865D01*
X68844000Y-111685548D01*
X68844000Y-112757885D01*
X68336000Y-112757885D01*
X68336000Y-111690116D01*
X68331525Y-111674877D01*
X68330135Y-111673672D01*
X68322452Y-111672001D01*
X67695331Y-111672001D01*
X67688510Y-111672371D01*
X67637648Y-111677895D01*
X67622396Y-111681521D01*
X67501946Y-111726676D01*
X67486351Y-111735214D01*
X67384276Y-111811715D01*
X67371715Y-111824276D01*
X67295214Y-111926351D01*
X67286676Y-111941946D01*
X67245297Y-112052322D01*
X67202655Y-112109087D01*
X67136093Y-112133786D01*
X67066744Y-112118578D01*
X67034121Y-112092891D01*
X66983151Y-112036876D01*
X66983145Y-112036870D01*
X66979670Y-112033051D01*
X66975619Y-112029852D01*
X66975615Y-112029848D01*
X66808414Y-111897800D01*
X66808410Y-111897798D01*
X66804359Y-111894598D01*
X66608789Y-111786638D01*
X66603920Y-111784914D01*
X66603916Y-111784912D01*
X66403087Y-111713795D01*
X66403083Y-111713794D01*
X66398212Y-111712069D01*
X66393119Y-111711162D01*
X66393116Y-111711161D01*
X66183373Y-111673800D01*
X66183367Y-111673799D01*
X66178284Y-111672894D01*
X66104452Y-111671992D01*
X65960081Y-111670228D01*
X65960079Y-111670228D01*
X65954911Y-111670165D01*
X65734091Y-111703955D01*
X65521756Y-111773357D01*
X65491443Y-111789137D01*
X65335479Y-111870327D01*
X65323607Y-111876507D01*
X65319474Y-111879610D01*
X65319471Y-111879612D01*
X65149100Y-112007530D01*
X65144965Y-112010635D01*
X64990629Y-112172138D01*
X64883201Y-112329621D01*
X64828293Y-112374621D01*
X64757768Y-112382792D01*
X64694021Y-112351538D01*
X64673324Y-112327054D01*
X64592822Y-112202617D01*
X64592820Y-112202614D01*
X64590014Y-112198277D01*
X64439670Y-112033051D01*
X64435619Y-112029852D01*
X64435615Y-112029848D01*
X64268414Y-111897800D01*
X64268410Y-111897798D01*
X64264359Y-111894598D01*
X64068789Y-111786638D01*
X64063920Y-111784914D01*
X64063916Y-111784912D01*
X63863087Y-111713795D01*
X63863083Y-111713794D01*
X63858212Y-111712069D01*
X63853119Y-111711162D01*
X63853116Y-111711161D01*
X63643373Y-111673800D01*
X63643367Y-111673799D01*
X63638284Y-111672894D01*
X63564452Y-111671992D01*
X63420081Y-111670228D01*
X63420079Y-111670228D01*
X63414911Y-111670165D01*
X63194091Y-111703955D01*
X62981756Y-111773357D01*
X62951443Y-111789137D01*
X62795479Y-111870327D01*
X62783607Y-111876507D01*
X62779474Y-111879610D01*
X62779471Y-111879612D01*
X62609100Y-112007530D01*
X62604965Y-112010635D01*
X62450629Y-112172138D01*
X62343201Y-112329621D01*
X62288293Y-112374621D01*
X62217768Y-112382792D01*
X62154021Y-112351538D01*
X62133324Y-112327054D01*
X62052822Y-112202617D01*
X62052820Y-112202614D01*
X62050014Y-112198277D01*
X61899670Y-112033051D01*
X61895619Y-112029852D01*
X61895615Y-112029848D01*
X61728414Y-111897800D01*
X61728410Y-111897798D01*
X61724359Y-111894598D01*
X61528789Y-111786638D01*
X61523920Y-111784914D01*
X61523916Y-111784912D01*
X61323087Y-111713795D01*
X61323083Y-111713794D01*
X61318212Y-111712069D01*
X61313119Y-111711162D01*
X61313116Y-111711161D01*
X61103373Y-111673800D01*
X61103367Y-111673799D01*
X61098284Y-111672894D01*
X61024452Y-111671992D01*
X60880081Y-111670228D01*
X60880079Y-111670228D01*
X60874911Y-111670165D01*
X60654091Y-111703955D01*
X60441756Y-111773357D01*
X60411443Y-111789137D01*
X60255479Y-111870327D01*
X60243607Y-111876507D01*
X60239474Y-111879610D01*
X60239471Y-111879612D01*
X60069100Y-112007530D01*
X60064965Y-112010635D01*
X59910629Y-112172138D01*
X59784743Y-112356680D01*
X59690688Y-112559305D01*
X59630989Y-112774570D01*
X59607251Y-112996695D01*
X52159916Y-112996695D01*
X52144781Y-112812604D01*
X52143096Y-112802424D01*
X52091214Y-112595875D01*
X52087894Y-112586124D01*
X52002972Y-112390814D01*
X51998105Y-112381739D01*
X51933063Y-112281197D01*
X51922377Y-112271995D01*
X51912812Y-112276398D01*
X51172022Y-113017188D01*
X51164408Y-113031132D01*
X50434356Y-113031132D01*
X50435592Y-113028868D01*
X50435461Y-113027035D01*
X50431210Y-113020420D01*
X49689849Y-112279059D01*
X49678313Y-112272759D01*
X49666031Y-112282382D01*
X49618089Y-112352662D01*
X49613004Y-112361613D01*
X49523338Y-112554783D01*
X49519775Y-112564470D01*
X49462864Y-112769681D01*
X49460933Y-112779800D01*
X49438302Y-112991574D01*
X49438050Y-113001863D01*
X47499736Y-113001863D01*
X47498500Y-112984514D01*
X47498500Y-110456695D01*
X49437251Y-110456695D01*
X49437548Y-110461848D01*
X49437548Y-110461851D01*
X49446250Y-110612770D01*
X49450110Y-110679715D01*
X49451247Y-110684761D01*
X49451248Y-110684767D01*
X49451907Y-110687690D01*
X49499222Y-110897639D01*
X49537461Y-110991811D01*
X49571691Y-111076109D01*
X49583266Y-111104616D01*
X49699987Y-111295088D01*
X49846250Y-111463938D01*
X50018126Y-111606632D01*
X50091955Y-111649774D01*
X50140679Y-111701412D01*
X50153750Y-111771195D01*
X50127019Y-111836967D01*
X50086562Y-111870327D01*
X50078460Y-111874544D01*
X50069734Y-111880039D01*
X50049677Y-111895099D01*
X50041223Y-111906427D01*
X50047968Y-111918758D01*
X50787188Y-112657978D01*
X50801132Y-112665592D01*
X50802965Y-112665461D01*
X50809580Y-112661210D01*
X51553389Y-111917401D01*
X51560410Y-111904544D01*
X51553611Y-111895213D01*
X51549559Y-111892521D01*
X51512602Y-111872120D01*
X51462631Y-111821687D01*
X51447859Y-111752245D01*
X51472975Y-111685839D01*
X51500327Y-111659232D01*
X51523797Y-111642491D01*
X51679860Y-111531173D01*
X51688292Y-111522771D01*
X51834435Y-111377137D01*
X51838096Y-111373489D01*
X51897594Y-111290689D01*
X51965435Y-111196277D01*
X51968453Y-111192077D01*
X52067430Y-110991811D01*
X52132370Y-110778069D01*
X52161529Y-110556590D01*
X52163156Y-110490000D01*
X52156408Y-110407924D01*
X75351912Y-110407924D01*
X75355414Y-110412851D01*
X75549618Y-110526335D01*
X75558901Y-110530782D01*
X75773606Y-110612770D01*
X75783508Y-110615647D01*
X76008702Y-110661463D01*
X76018954Y-110662686D01*
X76248616Y-110671107D01*
X76258902Y-110670640D01*
X76486865Y-110641437D01*
X76496951Y-110639294D01*
X76717079Y-110573252D01*
X76726674Y-110569491D01*
X76933050Y-110468389D01*
X76941916Y-110463104D01*
X77010037Y-110414513D01*
X77018438Y-110403813D01*
X77011450Y-110390660D01*
X76200112Y-109579322D01*
X76186168Y-109571708D01*
X76184335Y-109571839D01*
X76177720Y-109576090D01*
X75359160Y-110394650D01*
X75351912Y-110407924D01*
X52156408Y-110407924D01*
X52144852Y-110267361D01*
X52090431Y-110050702D01*
X52001354Y-109845840D01*
X51940277Y-109751429D01*
X51882822Y-109662617D01*
X51882820Y-109662614D01*
X51880014Y-109658277D01*
X51729670Y-109493051D01*
X51725619Y-109489852D01*
X51725615Y-109489848D01*
X51558414Y-109357800D01*
X51558410Y-109357798D01*
X51554359Y-109354598D01*
X51513053Y-109331796D01*
X51463084Y-109281364D01*
X51448312Y-109211921D01*
X51461652Y-109176651D01*
X74722529Y-109176651D01*
X74735759Y-109406090D01*
X74737195Y-109416311D01*
X74787720Y-109640504D01*
X74790799Y-109650332D01*
X74877267Y-109863276D01*
X74881910Y-109872467D01*
X74979219Y-110031261D01*
X74989676Y-110040721D01*
X74998452Y-110036938D01*
X75815278Y-109220112D01*
X75821656Y-109208432D01*
X76551708Y-109208432D01*
X76551839Y-109210265D01*
X76556090Y-109216880D01*
X77371222Y-110032012D01*
X77383232Y-110038571D01*
X77394971Y-110029603D01*
X77440465Y-109966291D01*
X77445776Y-109957452D01*
X77547598Y-109751429D01*
X77551397Y-109741834D01*
X77618204Y-109521950D01*
X77620383Y-109511869D01*
X77650618Y-109282212D01*
X77651137Y-109275537D01*
X77652723Y-109210664D01*
X77652529Y-109203947D01*
X77633550Y-108973096D01*
X77631867Y-108962934D01*
X77575878Y-108740029D01*
X77572559Y-108730281D01*
X77480916Y-108519513D01*
X77476049Y-108510436D01*
X77394491Y-108384369D01*
X77383805Y-108375167D01*
X77374240Y-108379570D01*
X76559322Y-109194488D01*
X76551708Y-109208432D01*
X75821656Y-109208432D01*
X75822892Y-109206168D01*
X75822761Y-109204335D01*
X75818510Y-109197720D01*
X75003385Y-108382595D01*
X74991849Y-108376295D01*
X74979566Y-108385919D01*
X74915970Y-108479147D01*
X74910871Y-108488121D01*
X74814113Y-108696569D01*
X74810550Y-108706256D01*
X74749135Y-108927709D01*
X74747204Y-108937829D01*
X74722781Y-109166363D01*
X74722529Y-109176651D01*
X51461652Y-109176651D01*
X51473428Y-109145516D01*
X51500780Y-109118909D01*
X51544603Y-109087650D01*
X51679860Y-108991173D01*
X51838096Y-108833489D01*
X51897594Y-108750689D01*
X51965435Y-108656277D01*
X51968453Y-108652077D01*
X52067430Y-108451811D01*
X52132370Y-108238069D01*
X52161529Y-108016590D01*
X52161611Y-108013240D01*
X52161678Y-108010513D01*
X75355309Y-108010513D01*
X75362053Y-108022843D01*
X76174488Y-108835278D01*
X76188432Y-108842892D01*
X76190265Y-108842761D01*
X76196880Y-108838510D01*
X77013670Y-108021720D01*
X77020690Y-108008864D01*
X77012915Y-107998194D01*
X77002361Y-107989858D01*
X76993768Y-107984149D01*
X76792578Y-107873086D01*
X76783166Y-107868856D01*
X76566532Y-107792141D01*
X76556561Y-107789507D01*
X76330305Y-107749205D01*
X76320052Y-107748236D01*
X76090242Y-107745428D01*
X76079958Y-107746148D01*
X75852784Y-107780910D01*
X75842757Y-107783299D01*
X75624312Y-107854698D01*
X75614803Y-107858695D01*
X75410953Y-107964813D01*
X75402235Y-107970302D01*
X75363762Y-107999188D01*
X75355309Y-108010513D01*
X52161678Y-108010513D01*
X52163074Y-107953365D01*
X52163074Y-107953361D01*
X52163156Y-107950000D01*
X52144852Y-107727361D01*
X52090431Y-107510702D01*
X52001354Y-107305840D01*
X51880014Y-107118277D01*
X51729670Y-106953051D01*
X51725619Y-106949852D01*
X51725615Y-106949848D01*
X51558414Y-106817800D01*
X51558410Y-106817798D01*
X51554359Y-106814598D01*
X51513053Y-106791796D01*
X51463084Y-106741364D01*
X51448312Y-106671921D01*
X51473428Y-106605516D01*
X51500780Y-106578909D01*
X51544603Y-106547650D01*
X51679860Y-106451173D01*
X51838096Y-106293489D01*
X51897594Y-106210689D01*
X51965435Y-106116277D01*
X51968453Y-106112077D01*
X51975005Y-106098821D01*
X52065136Y-105916453D01*
X52065137Y-105916451D01*
X52067430Y-105911811D01*
X52113172Y-105761257D01*
X52130865Y-105703023D01*
X52130865Y-105703021D01*
X52132370Y-105698069D01*
X52161529Y-105476590D01*
X52161748Y-105467622D01*
X52163074Y-105413365D01*
X52163074Y-105413361D01*
X52163156Y-105410000D01*
X52144852Y-105187361D01*
X52090431Y-104970702D01*
X52001354Y-104765840D01*
X51880014Y-104578277D01*
X51729670Y-104413051D01*
X51725619Y-104409852D01*
X51725615Y-104409848D01*
X51558414Y-104277800D01*
X51558410Y-104277798D01*
X51554359Y-104274598D01*
X51513053Y-104251796D01*
X51463084Y-104201364D01*
X51448312Y-104131921D01*
X51473428Y-104065516D01*
X51500780Y-104038909D01*
X51544603Y-104007650D01*
X51679860Y-103911173D01*
X51838096Y-103753489D01*
X51897594Y-103670689D01*
X51965435Y-103576277D01*
X51968453Y-103572077D01*
X52067430Y-103371811D01*
X52132370Y-103158069D01*
X52161529Y-102936590D01*
X52161881Y-102922185D01*
X52163074Y-102873365D01*
X52163074Y-102873361D01*
X52163156Y-102870000D01*
X52144852Y-102647361D01*
X52105241Y-102489665D01*
X72286990Y-102489665D01*
X72287360Y-102496486D01*
X72292884Y-102547348D01*
X72296510Y-102562600D01*
X72341665Y-102683050D01*
X72350203Y-102698645D01*
X72426704Y-102800720D01*
X72439265Y-102813281D01*
X72541340Y-102889782D01*
X72556935Y-102898320D01*
X72677383Y-102943474D01*
X72692638Y-102947101D01*
X72743503Y-102952627D01*
X72750317Y-102952996D01*
X73372874Y-102952996D01*
X73388113Y-102948521D01*
X73389318Y-102947131D01*
X73390989Y-102939448D01*
X73390989Y-101867111D01*
X73386514Y-101851872D01*
X73385124Y-101850667D01*
X73377441Y-101848996D01*
X72305105Y-101848996D01*
X72289866Y-101853471D01*
X72288661Y-101854861D01*
X72286990Y-101862544D01*
X72286990Y-102489665D01*
X52105241Y-102489665D01*
X52090431Y-102430702D01*
X52001354Y-102225840D01*
X51927615Y-102111857D01*
X51882822Y-102042617D01*
X51882820Y-102042614D01*
X51880014Y-102038277D01*
X51729670Y-101873051D01*
X51725619Y-101869852D01*
X51725615Y-101869848D01*
X51558414Y-101737800D01*
X51558410Y-101737798D01*
X51554359Y-101734598D01*
X51513053Y-101711796D01*
X51463084Y-101661364D01*
X51448312Y-101591921D01*
X51473428Y-101525516D01*
X51500780Y-101498909D01*
X51545520Y-101466996D01*
X51679860Y-101371173D01*
X51683705Y-101367342D01*
X51834435Y-101217137D01*
X51838096Y-101213489D01*
X51887810Y-101144305D01*
X51965435Y-101036277D01*
X51968453Y-101032077D01*
X51996371Y-100975590D01*
X52065136Y-100836453D01*
X52065137Y-100836451D01*
X52067430Y-100831811D01*
X52132370Y-100618069D01*
X52161529Y-100396590D01*
X52162463Y-100358357D01*
X52163074Y-100333365D01*
X52163074Y-100333361D01*
X52163156Y-100330000D01*
X52144852Y-100107361D01*
X52090431Y-99890702D01*
X52001354Y-99685840D01*
X51920882Y-99561449D01*
X51882822Y-99502617D01*
X51882820Y-99502614D01*
X51880014Y-99498277D01*
X51729670Y-99333051D01*
X51725619Y-99329852D01*
X51725615Y-99329848D01*
X51558414Y-99197800D01*
X51558410Y-99197798D01*
X51554359Y-99194598D01*
X51513053Y-99171796D01*
X51463084Y-99121364D01*
X51448312Y-99051921D01*
X51473428Y-98985516D01*
X51500780Y-98958909D01*
X51544603Y-98927650D01*
X51679860Y-98831173D01*
X51683709Y-98827338D01*
X51834435Y-98677137D01*
X51838096Y-98673489D01*
X51847670Y-98660166D01*
X51965435Y-98496277D01*
X51968453Y-98492077D01*
X51978006Y-98472749D01*
X52065136Y-98296453D01*
X52065137Y-98296451D01*
X52067430Y-98291811D01*
X52132370Y-98078069D01*
X52161529Y-97856590D01*
X52161766Y-97846903D01*
X52163074Y-97793365D01*
X52163074Y-97793361D01*
X52163156Y-97790000D01*
X68936496Y-97790000D01*
X68937186Y-97796565D01*
X68943844Y-97859908D01*
X68956458Y-97979928D01*
X69015473Y-98161556D01*
X69018776Y-98167278D01*
X69018777Y-98167279D01*
X69038476Y-98201399D01*
X69110960Y-98326944D01*
X69115378Y-98331851D01*
X69115379Y-98331852D01*
X69234325Y-98463955D01*
X69238747Y-98468866D01*
X69393248Y-98581118D01*
X69399276Y-98583802D01*
X69399278Y-98583803D01*
X69561681Y-98656109D01*
X69567712Y-98658794D01*
X69654009Y-98677137D01*
X69748056Y-98697128D01*
X69748061Y-98697128D01*
X69754513Y-98698500D01*
X69945487Y-98698500D01*
X69951939Y-98697128D01*
X69951944Y-98697128D01*
X70045991Y-98677137D01*
X70132288Y-98658794D01*
X70138319Y-98656109D01*
X70300722Y-98583803D01*
X70300724Y-98583802D01*
X70306752Y-98581118D01*
X70461253Y-98468866D01*
X70465675Y-98463955D01*
X70584621Y-98331852D01*
X70584622Y-98331851D01*
X70589040Y-98326944D01*
X70661524Y-98201399D01*
X70681223Y-98167279D01*
X70681224Y-98167278D01*
X70684527Y-98161556D01*
X70743542Y-97979928D01*
X70756157Y-97859908D01*
X70762814Y-97796565D01*
X70763504Y-97790000D01*
X70757257Y-97730562D01*
X70744232Y-97606635D01*
X70744232Y-97606633D01*
X70743542Y-97600072D01*
X70684527Y-97418444D01*
X70589040Y-97253056D01*
X70515863Y-97171785D01*
X70485147Y-97107779D01*
X70483500Y-97087476D01*
X70483500Y-95564594D01*
X70503502Y-95496473D01*
X70520405Y-95475499D01*
X71512247Y-94483657D01*
X71520537Y-94476113D01*
X71527018Y-94472000D01*
X71573659Y-94422332D01*
X71576413Y-94419491D01*
X71596134Y-94399770D01*
X71598612Y-94396575D01*
X71606318Y-94387553D01*
X71631158Y-94361101D01*
X71636586Y-94355321D01*
X71646346Y-94337568D01*
X71657199Y-94321045D01*
X71664753Y-94311306D01*
X71669613Y-94305041D01*
X71687176Y-94264457D01*
X71692383Y-94253827D01*
X71713695Y-94215060D01*
X71715666Y-94207383D01*
X71715668Y-94207378D01*
X71718732Y-94195442D01*
X71725138Y-94176730D01*
X71730033Y-94165419D01*
X71733181Y-94158145D01*
X71734421Y-94150317D01*
X71734423Y-94150310D01*
X71740099Y-94114476D01*
X71742505Y-94102856D01*
X71751528Y-94067711D01*
X71751528Y-94067710D01*
X71753500Y-94060030D01*
X71753500Y-94039776D01*
X71755051Y-94020065D01*
X71756980Y-94007886D01*
X71758220Y-94000057D01*
X71754059Y-93956038D01*
X71753500Y-93944181D01*
X71753500Y-93024594D01*
X71773502Y-92956473D01*
X71790405Y-92935499D01*
X74015581Y-90710324D01*
X74077893Y-90676298D01*
X74148709Y-90681363D01*
X74198312Y-90715109D01*
X74264136Y-90788214D01*
X74294854Y-90852221D01*
X74296500Y-90872524D01*
X74296500Y-97666183D01*
X74276498Y-97734304D01*
X74222842Y-97780797D01*
X74152568Y-97790901D01*
X74128444Y-97784957D01*
X74034139Y-97751562D01*
X73998087Y-97738795D01*
X73998083Y-97738794D01*
X73993212Y-97737069D01*
X73988119Y-97736162D01*
X73988116Y-97736161D01*
X73778373Y-97698800D01*
X73778367Y-97698799D01*
X73773284Y-97697894D01*
X73699452Y-97696992D01*
X73555081Y-97695228D01*
X73555079Y-97695228D01*
X73549911Y-97695165D01*
X73329091Y-97728955D01*
X73116756Y-97798357D01*
X73086451Y-97814133D01*
X72946402Y-97887038D01*
X72918607Y-97901507D01*
X72914477Y-97904608D01*
X72914471Y-97904612D01*
X72744100Y-98032530D01*
X72739965Y-98035635D01*
X72585629Y-98197138D01*
X72459743Y-98381680D01*
X72365688Y-98584305D01*
X72305989Y-98799570D01*
X72282251Y-99021695D01*
X72282548Y-99026848D01*
X72282548Y-99026851D01*
X72292220Y-99194598D01*
X72295110Y-99244715D01*
X72296247Y-99249761D01*
X72296248Y-99249767D01*
X72309266Y-99307530D01*
X72344222Y-99462639D01*
X72428266Y-99669616D01*
X72544987Y-99860088D01*
X72691250Y-100028938D01*
X72695225Y-100032238D01*
X72695228Y-100032241D01*
X72700413Y-100036545D01*
X72740051Y-100095446D01*
X72741552Y-100166427D01*
X72704439Y-100226951D01*
X72664162Y-100251474D01*
X72556935Y-100291672D01*
X72541340Y-100300210D01*
X72439265Y-100376711D01*
X72426704Y-100389272D01*
X72350203Y-100491347D01*
X72341665Y-100506942D01*
X72296511Y-100627390D01*
X72292884Y-100642645D01*
X72287358Y-100693510D01*
X72286989Y-100700324D01*
X72286989Y-101322881D01*
X72291464Y-101338120D01*
X72292854Y-101339325D01*
X72300537Y-101340996D01*
X73772989Y-101340996D01*
X73841110Y-101360998D01*
X73887603Y-101414654D01*
X73898989Y-101466996D01*
X73898989Y-102934880D01*
X73903464Y-102950119D01*
X73904854Y-102951324D01*
X73912537Y-102952995D01*
X74539658Y-102952995D01*
X74546479Y-102952625D01*
X74597341Y-102947101D01*
X74612593Y-102943475D01*
X74733048Y-102898318D01*
X74748631Y-102889787D01*
X74760813Y-102880657D01*
X74827319Y-102855809D01*
X74896702Y-102870861D01*
X74925474Y-102892388D01*
X78069595Y-106036509D01*
X78103621Y-106098821D01*
X78106500Y-106125604D01*
X78106500Y-110304565D01*
X78086498Y-110372686D01*
X78046334Y-110411998D01*
X77852861Y-110530558D01*
X77848638Y-110533146D01*
X77844878Y-110536358D01*
X77844873Y-110536361D01*
X77721845Y-110641437D01*
X77667690Y-110687690D01*
X77664477Y-110691452D01*
X77516361Y-110864873D01*
X77516358Y-110864878D01*
X77513146Y-110868638D01*
X77388811Y-111071535D01*
X77297747Y-111291383D01*
X77296592Y-111296195D01*
X77243350Y-111517958D01*
X77243349Y-111517964D01*
X77242195Y-111522771D01*
X77223525Y-111760000D01*
X77242195Y-111997229D01*
X77243349Y-112002036D01*
X77243350Y-112002042D01*
X77269050Y-112109087D01*
X77297747Y-112228617D01*
X77299640Y-112233188D01*
X77299641Y-112233190D01*
X77358224Y-112374621D01*
X77388811Y-112448465D01*
X77513146Y-112651362D01*
X77516358Y-112655122D01*
X77516361Y-112655127D01*
X77653763Y-112816003D01*
X77667690Y-112832310D01*
X77671452Y-112835523D01*
X77844873Y-112983639D01*
X77844878Y-112983642D01*
X77848638Y-112986854D01*
X78051535Y-113111189D01*
X78056105Y-113113082D01*
X78056109Y-113113084D01*
X78266810Y-113200359D01*
X78271383Y-113202253D01*
X78322299Y-113214477D01*
X78497958Y-113256650D01*
X78497964Y-113256651D01*
X78502771Y-113257805D01*
X78740000Y-113276475D01*
X78977229Y-113257805D01*
X78982036Y-113256651D01*
X78982042Y-113256650D01*
X79157701Y-113214477D01*
X79208617Y-113202253D01*
X79213190Y-113200359D01*
X79417061Y-113115913D01*
X80460709Y-113115913D01*
X80467453Y-113128243D01*
X81279888Y-113940678D01*
X81293832Y-113948292D01*
X81295665Y-113948161D01*
X81302280Y-113943910D01*
X82119070Y-113127120D01*
X82126090Y-113114264D01*
X82118315Y-113103594D01*
X82107761Y-113095258D01*
X82099168Y-113089549D01*
X81940325Y-113001863D01*
X110398053Y-113001863D01*
X110410312Y-113214477D01*
X110411748Y-113224697D01*
X110458568Y-113432446D01*
X110461648Y-113442275D01*
X110541773Y-113639603D01*
X110546416Y-113648794D01*
X110626463Y-113779420D01*
X110636919Y-113788880D01*
X110645697Y-113785096D01*
X111387981Y-113042812D01*
X111394359Y-113031132D01*
X112124411Y-113031132D01*
X112124542Y-113032965D01*
X112128793Y-113039580D01*
X112870477Y-113781264D01*
X112882487Y-113787823D01*
X112894226Y-113778855D01*
X112925007Y-113736019D01*
X112930318Y-113727180D01*
X113024673Y-113536267D01*
X113028472Y-113526672D01*
X113090379Y-113322915D01*
X113092558Y-113312834D01*
X113120593Y-113099887D01*
X113121112Y-113093212D01*
X113122575Y-113033364D01*
X113122381Y-113026646D01*
X113104784Y-112812604D01*
X113103099Y-112802424D01*
X113051217Y-112595875D01*
X113047897Y-112586124D01*
X112962975Y-112390814D01*
X112958108Y-112381739D01*
X112893066Y-112281197D01*
X112882380Y-112271995D01*
X112872815Y-112276398D01*
X112132025Y-113017188D01*
X112124411Y-113031132D01*
X111394359Y-113031132D01*
X111395595Y-113028868D01*
X111395464Y-113027035D01*
X111391213Y-113020420D01*
X110649852Y-112279059D01*
X110638316Y-112272759D01*
X110626034Y-112282382D01*
X110578092Y-112352662D01*
X110573007Y-112361613D01*
X110483341Y-112554783D01*
X110479778Y-112564470D01*
X110422867Y-112769681D01*
X110420936Y-112779800D01*
X110398305Y-112991574D01*
X110398053Y-113001863D01*
X81940325Y-113001863D01*
X81897978Y-112978486D01*
X81888566Y-112974256D01*
X81671932Y-112897541D01*
X81661961Y-112894907D01*
X81435705Y-112854605D01*
X81425452Y-112853636D01*
X81195642Y-112850828D01*
X81185358Y-112851548D01*
X80958184Y-112886310D01*
X80948157Y-112888699D01*
X80729712Y-112960098D01*
X80720203Y-112964095D01*
X80516353Y-113070213D01*
X80507635Y-113075702D01*
X80469162Y-113104588D01*
X80460709Y-113115913D01*
X79417061Y-113115913D01*
X79423891Y-113113084D01*
X79423895Y-113113082D01*
X79428465Y-113111189D01*
X79631362Y-112986854D01*
X79635122Y-112983642D01*
X79635127Y-112983639D01*
X79808548Y-112835523D01*
X79812310Y-112832310D01*
X79826237Y-112816003D01*
X79963639Y-112655127D01*
X79963642Y-112655122D01*
X79966854Y-112651362D01*
X80091189Y-112448465D01*
X80121777Y-112374621D01*
X80180359Y-112233190D01*
X80180360Y-112233188D01*
X80182253Y-112228617D01*
X80210950Y-112109087D01*
X80236650Y-112002042D01*
X80236651Y-112002036D01*
X80237805Y-111997229D01*
X80256475Y-111760000D01*
X80237805Y-111522771D01*
X80236651Y-111517964D01*
X80236650Y-111517958D01*
X80183408Y-111296195D01*
X80182253Y-111291383D01*
X80091189Y-111071535D01*
X79966854Y-110868638D01*
X79963642Y-110864878D01*
X79963639Y-110864873D01*
X79815523Y-110691452D01*
X79812310Y-110687690D01*
X79758155Y-110641437D01*
X79635127Y-110536361D01*
X79635122Y-110536358D01*
X79631362Y-110533146D01*
X79627139Y-110530558D01*
X79433666Y-110411998D01*
X79429980Y-110407924D01*
X80457312Y-110407924D01*
X80460814Y-110412851D01*
X80655018Y-110526335D01*
X80664301Y-110530782D01*
X80879006Y-110612770D01*
X80888908Y-110615647D01*
X81114102Y-110661463D01*
X81124354Y-110662686D01*
X81354016Y-110671107D01*
X81364302Y-110670640D01*
X81592265Y-110641437D01*
X81602351Y-110639294D01*
X81822479Y-110573252D01*
X81832074Y-110569491D01*
X82038450Y-110468389D01*
X82047316Y-110463104D01*
X82056301Y-110456695D01*
X110397251Y-110456695D01*
X110397548Y-110461848D01*
X110397548Y-110461851D01*
X110406250Y-110612770D01*
X110410110Y-110679715D01*
X110411247Y-110684761D01*
X110411248Y-110684767D01*
X110411907Y-110687690D01*
X110459222Y-110897639D01*
X110497461Y-110991811D01*
X110531691Y-111076109D01*
X110543266Y-111104616D01*
X110659987Y-111295088D01*
X110806250Y-111463938D01*
X110978126Y-111606632D01*
X111051955Y-111649774D01*
X111051957Y-111649775D01*
X111100680Y-111701414D01*
X111113751Y-111771197D01*
X111087019Y-111836969D01*
X111046563Y-111870328D01*
X111038464Y-111874544D01*
X111029737Y-111880039D01*
X111009680Y-111895099D01*
X111001226Y-111906427D01*
X111007971Y-111918758D01*
X111747191Y-112657978D01*
X111761135Y-112665592D01*
X111762968Y-112665461D01*
X111769583Y-112661210D01*
X112513392Y-111917401D01*
X112520413Y-111904544D01*
X112513614Y-111895213D01*
X112509562Y-111892521D01*
X112472603Y-111872119D01*
X112422632Y-111821686D01*
X112407860Y-111752244D01*
X112432976Y-111685838D01*
X112460328Y-111659231D01*
X112473585Y-111649775D01*
X112639860Y-111531173D01*
X112648292Y-111522771D01*
X112794435Y-111377137D01*
X112798096Y-111373489D01*
X112857594Y-111290689D01*
X112925435Y-111196277D01*
X112928453Y-111192077D01*
X113027430Y-110991811D01*
X113092370Y-110778069D01*
X113121529Y-110556590D01*
X113123156Y-110490000D01*
X113104852Y-110267361D01*
X113050431Y-110050702D01*
X112961354Y-109845840D01*
X112900277Y-109751429D01*
X112842822Y-109662617D01*
X112842820Y-109662614D01*
X112840014Y-109658277D01*
X112689670Y-109493051D01*
X112685619Y-109489852D01*
X112685615Y-109489848D01*
X112518414Y-109357800D01*
X112518410Y-109357798D01*
X112514359Y-109354598D01*
X112473053Y-109331796D01*
X112423084Y-109281364D01*
X112408312Y-109211921D01*
X112433428Y-109145516D01*
X112460780Y-109118909D01*
X112504603Y-109087650D01*
X112639860Y-108991173D01*
X112798096Y-108833489D01*
X112857594Y-108750689D01*
X112925435Y-108656277D01*
X112928453Y-108652077D01*
X113027430Y-108451811D01*
X113092370Y-108238069D01*
X113121529Y-108016590D01*
X113121611Y-108013240D01*
X113123074Y-107953365D01*
X113123074Y-107953361D01*
X113123156Y-107950000D01*
X113104852Y-107727361D01*
X113050431Y-107510702D01*
X112961354Y-107305840D01*
X112840014Y-107118277D01*
X112689670Y-106953051D01*
X112685619Y-106949852D01*
X112685615Y-106949848D01*
X112518414Y-106817800D01*
X112518410Y-106817798D01*
X112514359Y-106814598D01*
X112473053Y-106791796D01*
X112423084Y-106741364D01*
X112408312Y-106671921D01*
X112433428Y-106605516D01*
X112460780Y-106578909D01*
X112504603Y-106547650D01*
X112639860Y-106451173D01*
X112798096Y-106293489D01*
X112857594Y-106210689D01*
X112925435Y-106116277D01*
X112928453Y-106112077D01*
X112935005Y-106098821D01*
X113025136Y-105916453D01*
X113025137Y-105916451D01*
X113027430Y-105911811D01*
X113073172Y-105761257D01*
X113090865Y-105703023D01*
X113090865Y-105703021D01*
X113092370Y-105698069D01*
X113121529Y-105476590D01*
X113121748Y-105467622D01*
X113123074Y-105413365D01*
X113123074Y-105413361D01*
X113123156Y-105410000D01*
X113104852Y-105187361D01*
X113050431Y-104970702D01*
X112961354Y-104765840D01*
X112840014Y-104578277D01*
X112689670Y-104413051D01*
X112685619Y-104409852D01*
X112685615Y-104409848D01*
X112518414Y-104277800D01*
X112518410Y-104277798D01*
X112514359Y-104274598D01*
X112473053Y-104251796D01*
X112423084Y-104201364D01*
X112408312Y-104131921D01*
X112433428Y-104065516D01*
X112460780Y-104038909D01*
X112504603Y-104007650D01*
X112639860Y-103911173D01*
X112798096Y-103753489D01*
X112857594Y-103670689D01*
X112925435Y-103576277D01*
X112928453Y-103572077D01*
X113027430Y-103371811D01*
X113092370Y-103158069D01*
X113121529Y-102936590D01*
X113121881Y-102922185D01*
X113123074Y-102873365D01*
X113123074Y-102873361D01*
X113123156Y-102870000D01*
X113104852Y-102647361D01*
X113050431Y-102430702D01*
X112961354Y-102225840D01*
X112887615Y-102111857D01*
X112842822Y-102042617D01*
X112842820Y-102042614D01*
X112840014Y-102038277D01*
X112689670Y-101873051D01*
X112685619Y-101869852D01*
X112685615Y-101869848D01*
X112518414Y-101737800D01*
X112518410Y-101737798D01*
X112514359Y-101734598D01*
X112473053Y-101711796D01*
X112423084Y-101661364D01*
X112408312Y-101591921D01*
X112433428Y-101525516D01*
X112460780Y-101498909D01*
X112505520Y-101466996D01*
X112639860Y-101371173D01*
X112643705Y-101367342D01*
X112794435Y-101217137D01*
X112798096Y-101213489D01*
X112847810Y-101144305D01*
X112925435Y-101036277D01*
X112928453Y-101032077D01*
X112956371Y-100975590D01*
X113025136Y-100836453D01*
X113025137Y-100836451D01*
X113027430Y-100831811D01*
X113092370Y-100618069D01*
X113121529Y-100396590D01*
X113122463Y-100358357D01*
X113123074Y-100333365D01*
X113123074Y-100333361D01*
X113123156Y-100330000D01*
X113104852Y-100107361D01*
X113050431Y-99890702D01*
X112961354Y-99685840D01*
X112880882Y-99561449D01*
X112842822Y-99502617D01*
X112842820Y-99502614D01*
X112840014Y-99498277D01*
X112689670Y-99333051D01*
X112685619Y-99329852D01*
X112685615Y-99329848D01*
X112518414Y-99197800D01*
X112518410Y-99197798D01*
X112514359Y-99194598D01*
X112473053Y-99171796D01*
X112423084Y-99121364D01*
X112408312Y-99051921D01*
X112433428Y-98985516D01*
X112460780Y-98958909D01*
X112504603Y-98927650D01*
X112639860Y-98831173D01*
X112643709Y-98827338D01*
X112794435Y-98677137D01*
X112798096Y-98673489D01*
X112807670Y-98660166D01*
X112925435Y-98496277D01*
X112928453Y-98492077D01*
X112938006Y-98472749D01*
X113025136Y-98296453D01*
X113025137Y-98296451D01*
X113027430Y-98291811D01*
X113092370Y-98078069D01*
X113121529Y-97856590D01*
X113121766Y-97846903D01*
X113123074Y-97793365D01*
X113123074Y-97793361D01*
X113123156Y-97790000D01*
X113104852Y-97567361D01*
X113050431Y-97350702D01*
X112961354Y-97145840D01*
X112903845Y-97056944D01*
X112842822Y-96962617D01*
X112842820Y-96962614D01*
X112840014Y-96958277D01*
X112689670Y-96793051D01*
X112685619Y-96789852D01*
X112685615Y-96789848D01*
X112518414Y-96657800D01*
X112518410Y-96657798D01*
X112514359Y-96654598D01*
X112473053Y-96631796D01*
X112423084Y-96581364D01*
X112408312Y-96511921D01*
X112433428Y-96445516D01*
X112460780Y-96418909D01*
X112504603Y-96387650D01*
X112639860Y-96291173D01*
X112646256Y-96284800D01*
X112760863Y-96170592D01*
X112798096Y-96133489D01*
X112807670Y-96120166D01*
X112925435Y-95956277D01*
X112928453Y-95952077D01*
X112938006Y-95932749D01*
X113025136Y-95756453D01*
X113025137Y-95756451D01*
X113027430Y-95751811D01*
X113092370Y-95538069D01*
X113121529Y-95316590D01*
X113122281Y-95285819D01*
X113123074Y-95253365D01*
X113123074Y-95253361D01*
X113123156Y-95250000D01*
X113104852Y-95027361D01*
X113050431Y-94810702D01*
X112961354Y-94605840D01*
X112912737Y-94530689D01*
X112842822Y-94422617D01*
X112842820Y-94422614D01*
X112840014Y-94418277D01*
X112689670Y-94253051D01*
X112685619Y-94249852D01*
X112685615Y-94249848D01*
X112518414Y-94117800D01*
X112518410Y-94117798D01*
X112514359Y-94114598D01*
X112473053Y-94091796D01*
X112423084Y-94041364D01*
X112408312Y-93971921D01*
X112433428Y-93905516D01*
X112460780Y-93878909D01*
X112504603Y-93847650D01*
X112639860Y-93751173D01*
X112798096Y-93593489D01*
X112857594Y-93510689D01*
X112925435Y-93416277D01*
X112928453Y-93412077D01*
X113027430Y-93211811D01*
X113092370Y-92998069D01*
X113121529Y-92776590D01*
X113123156Y-92710000D01*
X113104852Y-92487361D01*
X113050431Y-92270702D01*
X112961354Y-92065840D01*
X112903845Y-91976944D01*
X112842822Y-91882617D01*
X112842820Y-91882614D01*
X112840014Y-91878277D01*
X112689670Y-91713051D01*
X112685619Y-91709852D01*
X112685615Y-91709848D01*
X112518414Y-91577800D01*
X112518410Y-91577798D01*
X112514359Y-91574598D01*
X112473053Y-91551796D01*
X112423084Y-91501364D01*
X112408312Y-91431921D01*
X112433428Y-91365516D01*
X112460780Y-91338909D01*
X112504603Y-91307650D01*
X112639860Y-91211173D01*
X112798096Y-91053489D01*
X112857594Y-90970689D01*
X112925435Y-90876277D01*
X112928453Y-90872077D01*
X112938267Y-90852221D01*
X113025136Y-90676453D01*
X113025137Y-90676451D01*
X113027430Y-90671811D01*
X113092370Y-90458069D01*
X113121529Y-90236590D01*
X113123156Y-90170000D01*
X113104852Y-89947361D01*
X113050431Y-89730702D01*
X112961354Y-89525840D01*
X112840014Y-89338277D01*
X112689670Y-89173051D01*
X112685619Y-89169852D01*
X112685615Y-89169848D01*
X112518414Y-89037800D01*
X112518410Y-89037798D01*
X112514359Y-89034598D01*
X112473053Y-89011796D01*
X112423084Y-88961364D01*
X112408312Y-88891921D01*
X112433428Y-88825516D01*
X112460780Y-88798909D01*
X112504603Y-88767650D01*
X112639860Y-88671173D01*
X112798096Y-88513489D01*
X112857594Y-88430689D01*
X112925435Y-88336277D01*
X112928453Y-88332077D01*
X112938267Y-88312221D01*
X113025136Y-88136453D01*
X113025137Y-88136451D01*
X113027430Y-88131811D01*
X113078208Y-87964681D01*
X113090865Y-87923023D01*
X113090865Y-87923021D01*
X113092370Y-87918069D01*
X113121529Y-87696590D01*
X113123156Y-87630000D01*
X113104852Y-87407361D01*
X113050431Y-87190702D01*
X112961354Y-86985840D01*
X112921390Y-86924065D01*
X112842822Y-86802617D01*
X112842820Y-86802614D01*
X112840014Y-86798277D01*
X112689670Y-86633051D01*
X112685619Y-86629852D01*
X112685615Y-86629848D01*
X112518414Y-86497800D01*
X112518410Y-86497798D01*
X112514359Y-86494598D01*
X112473053Y-86471796D01*
X112423084Y-86421364D01*
X112408312Y-86351921D01*
X112433428Y-86285516D01*
X112460780Y-86258909D01*
X112504603Y-86227650D01*
X112639860Y-86131173D01*
X112798096Y-85973489D01*
X112807670Y-85960166D01*
X112925435Y-85796277D01*
X112928453Y-85792077D01*
X112933650Y-85781563D01*
X113025136Y-85596453D01*
X113025137Y-85596451D01*
X113027430Y-85591811D01*
X113092370Y-85378069D01*
X113121529Y-85156590D01*
X113123156Y-85090000D01*
X113104852Y-84867361D01*
X113050431Y-84650702D01*
X112961354Y-84445840D01*
X112903845Y-84356944D01*
X112842822Y-84262617D01*
X112842820Y-84262614D01*
X112840014Y-84258277D01*
X112689670Y-84093051D01*
X112685619Y-84089852D01*
X112685615Y-84089848D01*
X112518414Y-83957800D01*
X112518410Y-83957798D01*
X112514359Y-83954598D01*
X112473053Y-83931796D01*
X112423084Y-83881364D01*
X112408312Y-83811921D01*
X112433428Y-83745516D01*
X112460780Y-83718909D01*
X112504603Y-83687650D01*
X112639860Y-83591173D01*
X112798096Y-83433489D01*
X112857594Y-83350689D01*
X112925435Y-83256277D01*
X112928453Y-83252077D01*
X112961605Y-83185000D01*
X113025136Y-83056453D01*
X113025137Y-83056451D01*
X113027430Y-83051811D01*
X113092370Y-82838069D01*
X113121529Y-82616590D01*
X113123156Y-82550000D01*
X113104852Y-82327361D01*
X113050431Y-82110702D01*
X112961354Y-81905840D01*
X112903845Y-81816944D01*
X112842822Y-81722617D01*
X112842820Y-81722614D01*
X112840014Y-81718277D01*
X112689670Y-81553051D01*
X112685619Y-81549852D01*
X112685615Y-81549848D01*
X112518414Y-81417800D01*
X112518410Y-81417798D01*
X112514359Y-81414598D01*
X112473053Y-81391796D01*
X112423084Y-81341364D01*
X112408312Y-81271921D01*
X112433428Y-81205516D01*
X112460780Y-81178909D01*
X112504603Y-81147650D01*
X112639860Y-81051173D01*
X112798096Y-80893489D01*
X112807670Y-80880166D01*
X112925435Y-80716277D01*
X112928453Y-80712077D01*
X112938006Y-80692749D01*
X113025136Y-80516453D01*
X113025137Y-80516451D01*
X113027430Y-80511811D01*
X113092370Y-80298069D01*
X113121529Y-80076590D01*
X113121940Y-80059760D01*
X113123074Y-80013365D01*
X113123074Y-80013361D01*
X113123156Y-80010000D01*
X113104852Y-79787361D01*
X113050431Y-79570702D01*
X112961354Y-79365840D01*
X112921906Y-79304862D01*
X112842822Y-79182617D01*
X112842820Y-79182614D01*
X112840014Y-79178277D01*
X112689670Y-79013051D01*
X112685619Y-79009852D01*
X112685615Y-79009848D01*
X112518414Y-78877800D01*
X112518410Y-78877798D01*
X112514359Y-78874598D01*
X112473053Y-78851796D01*
X112423084Y-78801364D01*
X112408312Y-78731921D01*
X112433428Y-78665516D01*
X112460780Y-78638909D01*
X112504603Y-78607650D01*
X112639860Y-78511173D01*
X112798096Y-78353489D01*
X112807670Y-78340166D01*
X112925435Y-78176277D01*
X112928453Y-78172077D01*
X112938006Y-78152749D01*
X113025136Y-77976453D01*
X113025137Y-77976451D01*
X113027430Y-77971811D01*
X113092370Y-77758069D01*
X113121529Y-77536590D01*
X113123156Y-77470000D01*
X113104852Y-77247361D01*
X113050431Y-77030702D01*
X112961354Y-76825840D01*
X112903845Y-76736944D01*
X112842822Y-76642617D01*
X112842820Y-76642614D01*
X112840014Y-76638277D01*
X112689670Y-76473051D01*
X112685619Y-76469852D01*
X112685615Y-76469848D01*
X112518414Y-76337800D01*
X112518410Y-76337798D01*
X112514359Y-76334598D01*
X112473053Y-76311796D01*
X112423084Y-76261364D01*
X112408312Y-76191921D01*
X112433428Y-76125516D01*
X112460780Y-76098909D01*
X112504603Y-76067650D01*
X112639860Y-75971173D01*
X112798096Y-75813489D01*
X112857594Y-75730689D01*
X112925435Y-75636277D01*
X112928453Y-75632077D01*
X113027430Y-75431811D01*
X113092370Y-75218069D01*
X113121529Y-74996590D01*
X113123156Y-74930000D01*
X113104852Y-74707361D01*
X113050431Y-74490702D01*
X112961354Y-74285840D01*
X112840014Y-74098277D01*
X112689670Y-73933051D01*
X112685619Y-73929852D01*
X112685615Y-73929848D01*
X112518414Y-73797800D01*
X112518410Y-73797798D01*
X112514359Y-73794598D01*
X112473053Y-73771796D01*
X112423084Y-73721364D01*
X112408312Y-73651921D01*
X112433428Y-73585516D01*
X112460780Y-73558909D01*
X112504603Y-73527650D01*
X112639860Y-73431173D01*
X112798096Y-73273489D01*
X112857594Y-73190689D01*
X112925435Y-73096277D01*
X112928453Y-73092077D01*
X113027430Y-72891811D01*
X113092370Y-72678069D01*
X113121529Y-72456590D01*
X113123156Y-72390000D01*
X113104852Y-72167361D01*
X113050431Y-71950702D01*
X112961354Y-71745840D01*
X112907020Y-71661852D01*
X112842822Y-71562617D01*
X112842820Y-71562614D01*
X112840014Y-71558277D01*
X112689670Y-71393051D01*
X112685619Y-71389852D01*
X112685615Y-71389848D01*
X112518414Y-71257800D01*
X112518410Y-71257798D01*
X112514359Y-71254598D01*
X112473053Y-71231796D01*
X112423084Y-71181364D01*
X112408312Y-71111921D01*
X112433428Y-71045516D01*
X112460780Y-71018909D01*
X112504603Y-70987650D01*
X112639860Y-70891173D01*
X112798096Y-70733489D01*
X112857594Y-70650689D01*
X112925435Y-70556277D01*
X112928453Y-70552077D01*
X112964513Y-70479116D01*
X113025136Y-70356453D01*
X113025137Y-70356451D01*
X113027430Y-70351811D01*
X113092370Y-70138069D01*
X113121529Y-69916590D01*
X113122023Y-69896368D01*
X113123074Y-69853365D01*
X113123074Y-69853361D01*
X113123156Y-69850000D01*
X113104852Y-69627361D01*
X113050431Y-69410702D01*
X112961354Y-69205840D01*
X112840014Y-69018277D01*
X112689670Y-68853051D01*
X112685619Y-68849852D01*
X112685615Y-68849848D01*
X112518414Y-68717800D01*
X112518410Y-68717798D01*
X112514359Y-68714598D01*
X112473053Y-68691796D01*
X112423084Y-68641364D01*
X112408312Y-68571921D01*
X112433428Y-68505516D01*
X112460780Y-68478909D01*
X112504603Y-68447650D01*
X112639860Y-68351173D01*
X112798096Y-68193489D01*
X112857594Y-68110689D01*
X112925435Y-68016277D01*
X112928453Y-68012077D01*
X113027430Y-67811811D01*
X113092370Y-67598069D01*
X113121529Y-67376590D01*
X113123156Y-67310000D01*
X113104852Y-67087361D01*
X113050431Y-66870702D01*
X112961354Y-66665840D01*
X112840014Y-66478277D01*
X112689670Y-66313051D01*
X112685619Y-66309852D01*
X112685615Y-66309848D01*
X112518414Y-66177800D01*
X112518410Y-66177798D01*
X112514359Y-66174598D01*
X112473053Y-66151796D01*
X112423084Y-66101364D01*
X112408312Y-66031921D01*
X112433428Y-65965516D01*
X112460780Y-65938909D01*
X112504603Y-65907650D01*
X112639860Y-65811173D01*
X112798096Y-65653489D01*
X112857594Y-65570689D01*
X112925435Y-65476277D01*
X112928453Y-65472077D01*
X113027430Y-65271811D01*
X113092370Y-65058069D01*
X113121529Y-64836590D01*
X113122139Y-64811621D01*
X113123074Y-64773365D01*
X113123074Y-64773361D01*
X113123156Y-64770000D01*
X113104852Y-64547361D01*
X113050431Y-64330702D01*
X112961354Y-64125840D01*
X112840014Y-63938277D01*
X112689670Y-63773051D01*
X112685619Y-63769852D01*
X112685615Y-63769848D01*
X112518414Y-63637800D01*
X112518410Y-63637798D01*
X112514359Y-63634598D01*
X112489955Y-63621126D01*
X112427997Y-63586924D01*
X112318789Y-63526638D01*
X112313920Y-63524914D01*
X112313916Y-63524912D01*
X112113087Y-63453795D01*
X112113083Y-63453794D01*
X112108212Y-63452069D01*
X112103119Y-63451162D01*
X112103116Y-63451161D01*
X111893373Y-63413800D01*
X111893367Y-63413799D01*
X111888284Y-63412894D01*
X111814452Y-63411992D01*
X111670081Y-63410228D01*
X111670079Y-63410228D01*
X111664911Y-63410165D01*
X111444091Y-63443955D01*
X111231756Y-63513357D01*
X111033607Y-63616507D01*
X111029474Y-63619610D01*
X111029471Y-63619612D01*
X110864321Y-63743610D01*
X110854965Y-63750635D01*
X110700629Y-63912138D01*
X110574743Y-64096680D01*
X110480688Y-64299305D01*
X110420989Y-64514570D01*
X110397251Y-64736695D01*
X110397548Y-64741848D01*
X110397548Y-64741851D01*
X110403011Y-64836590D01*
X110410110Y-64959715D01*
X110411247Y-64964761D01*
X110411248Y-64964767D01*
X110431119Y-65052939D01*
X110459222Y-65177639D01*
X110543266Y-65384616D01*
X110659987Y-65575088D01*
X110806250Y-65743938D01*
X110978126Y-65886632D01*
X111048595Y-65927811D01*
X111051445Y-65929476D01*
X111100169Y-65981114D01*
X111113240Y-66050897D01*
X111086509Y-66116669D01*
X111046055Y-66150027D01*
X111033607Y-66156507D01*
X111029474Y-66159610D01*
X111029471Y-66159612D01*
X111005247Y-66177800D01*
X110854965Y-66290635D01*
X110700629Y-66452138D01*
X110574743Y-66636680D01*
X110480688Y-66839305D01*
X110420989Y-67054570D01*
X110397251Y-67276695D01*
X110397548Y-67281848D01*
X110397548Y-67281851D01*
X110403011Y-67376590D01*
X110410110Y-67499715D01*
X110411247Y-67504761D01*
X110411248Y-67504767D01*
X110431119Y-67592939D01*
X110459222Y-67717639D01*
X110543266Y-67924616D01*
X110659987Y-68115088D01*
X110806250Y-68283938D01*
X110978126Y-68426632D01*
X111048595Y-68467811D01*
X111051445Y-68469476D01*
X111100169Y-68521114D01*
X111113240Y-68590897D01*
X111086509Y-68656669D01*
X111046055Y-68690027D01*
X111033607Y-68696507D01*
X111029474Y-68699610D01*
X111029471Y-68699612D01*
X111005247Y-68717800D01*
X110854965Y-68830635D01*
X110700629Y-68992138D01*
X110574743Y-69176680D01*
X110480688Y-69379305D01*
X110420989Y-69594570D01*
X110397251Y-69816695D01*
X110397548Y-69821848D01*
X110397548Y-69821851D01*
X110407909Y-70001547D01*
X110410110Y-70039715D01*
X110411247Y-70044761D01*
X110411248Y-70044767D01*
X110428117Y-70119617D01*
X110459222Y-70257639D01*
X110497461Y-70351811D01*
X110538062Y-70451799D01*
X110543266Y-70464616D01*
X110659987Y-70655088D01*
X110806250Y-70823938D01*
X110978126Y-70966632D01*
X111048595Y-71007811D01*
X111051445Y-71009476D01*
X111100169Y-71061114D01*
X111113240Y-71130897D01*
X111086509Y-71196669D01*
X111046055Y-71230027D01*
X111033607Y-71236507D01*
X111029474Y-71239610D01*
X111029471Y-71239612D01*
X110859100Y-71367530D01*
X110854965Y-71370635D01*
X110851393Y-71374373D01*
X110749609Y-71480884D01*
X110700629Y-71532138D01*
X110574743Y-71716680D01*
X110559003Y-71750590D01*
X110486290Y-71907237D01*
X110480688Y-71919305D01*
X110420989Y-72134570D01*
X110397251Y-72356695D01*
X110397548Y-72361848D01*
X110397548Y-72361851D01*
X110403011Y-72456590D01*
X110410110Y-72579715D01*
X110411247Y-72584761D01*
X110411248Y-72584767D01*
X110431119Y-72672939D01*
X110459222Y-72797639D01*
X110543266Y-73004616D01*
X110659987Y-73195088D01*
X110806250Y-73363938D01*
X110978126Y-73506632D01*
X111048595Y-73547811D01*
X111051445Y-73549476D01*
X111100169Y-73601114D01*
X111113240Y-73670897D01*
X111086509Y-73736669D01*
X111046055Y-73770027D01*
X111033607Y-73776507D01*
X111029474Y-73779610D01*
X111029471Y-73779612D01*
X111005247Y-73797800D01*
X110854965Y-73910635D01*
X110700629Y-74072138D01*
X110574743Y-74256680D01*
X110480688Y-74459305D01*
X110420989Y-74674570D01*
X110397251Y-74896695D01*
X110397548Y-74901848D01*
X110397548Y-74901851D01*
X110403011Y-74996590D01*
X110410110Y-75119715D01*
X110411247Y-75124761D01*
X110411248Y-75124767D01*
X110431119Y-75212939D01*
X110459222Y-75337639D01*
X110543266Y-75544616D01*
X110659987Y-75735088D01*
X110806250Y-75903938D01*
X110978126Y-76046632D01*
X111048595Y-76087811D01*
X111051445Y-76089476D01*
X111100169Y-76141114D01*
X111113240Y-76210897D01*
X111086509Y-76276669D01*
X111046055Y-76310027D01*
X111033607Y-76316507D01*
X111029474Y-76319610D01*
X111029471Y-76319612D01*
X110859100Y-76447530D01*
X110854965Y-76450635D01*
X110700629Y-76612138D01*
X110574743Y-76796680D01*
X110559003Y-76830590D01*
X110486290Y-76987237D01*
X110480688Y-76999305D01*
X110420989Y-77214570D01*
X110397251Y-77436695D01*
X110397548Y-77441848D01*
X110397548Y-77441851D01*
X110403011Y-77536590D01*
X110410110Y-77659715D01*
X110411247Y-77664761D01*
X110411248Y-77664767D01*
X110431119Y-77752939D01*
X110459222Y-77877639D01*
X110543266Y-78084616D01*
X110545965Y-78089020D01*
X110653072Y-78263803D01*
X110659987Y-78275088D01*
X110806250Y-78443938D01*
X110978126Y-78586632D01*
X111048595Y-78627811D01*
X111051445Y-78629476D01*
X111100169Y-78681114D01*
X111113240Y-78750897D01*
X111086509Y-78816669D01*
X111046055Y-78850027D01*
X111033607Y-78856507D01*
X111029474Y-78859610D01*
X111029471Y-78859612D01*
X111005247Y-78877800D01*
X110854965Y-78990635D01*
X110700629Y-79152138D01*
X110574743Y-79336680D01*
X110480688Y-79539305D01*
X110420989Y-79754570D01*
X110397251Y-79976695D01*
X110397548Y-79981848D01*
X110397548Y-79981851D01*
X110407874Y-80160930D01*
X110410110Y-80199715D01*
X110411247Y-80204761D01*
X110411248Y-80204767D01*
X110428435Y-80281028D01*
X110459222Y-80417639D01*
X110543266Y-80624616D01*
X110545965Y-80629020D01*
X110653072Y-80803803D01*
X110659987Y-80815088D01*
X110806250Y-80983938D01*
X110978126Y-81126632D01*
X111048595Y-81167811D01*
X111051445Y-81169476D01*
X111100169Y-81221114D01*
X111113240Y-81290897D01*
X111086509Y-81356669D01*
X111046055Y-81390027D01*
X111033607Y-81396507D01*
X111029474Y-81399610D01*
X111029471Y-81399612D01*
X110859100Y-81527530D01*
X110854965Y-81530635D01*
X110700629Y-81692138D01*
X110574743Y-81876680D01*
X110560449Y-81907474D01*
X110486290Y-82067237D01*
X110480688Y-82079305D01*
X110420989Y-82294570D01*
X110397251Y-82516695D01*
X110397548Y-82521848D01*
X110397548Y-82521851D01*
X110403011Y-82616590D01*
X110410110Y-82739715D01*
X110411247Y-82744761D01*
X110411248Y-82744767D01*
X110431119Y-82832939D01*
X110459222Y-82957639D01*
X110520673Y-83108976D01*
X110524000Y-83117168D01*
X110543266Y-83164616D01*
X110659987Y-83355088D01*
X110806250Y-83523938D01*
X110978126Y-83666632D01*
X111048595Y-83707811D01*
X111051445Y-83709476D01*
X111100169Y-83761114D01*
X111113240Y-83830897D01*
X111086509Y-83896669D01*
X111046055Y-83930027D01*
X111033607Y-83936507D01*
X111029474Y-83939610D01*
X111029471Y-83939612D01*
X110859100Y-84067530D01*
X110854965Y-84070635D01*
X110700629Y-84232138D01*
X110574743Y-84416680D01*
X110559003Y-84450590D01*
X110486290Y-84607237D01*
X110480688Y-84619305D01*
X110420989Y-84834570D01*
X110397251Y-85056695D01*
X110397548Y-85061848D01*
X110397548Y-85061851D01*
X110403011Y-85156590D01*
X110410110Y-85279715D01*
X110411247Y-85284761D01*
X110411248Y-85284767D01*
X110431119Y-85372939D01*
X110459222Y-85497639D01*
X110543266Y-85704616D01*
X110579629Y-85763955D01*
X110653072Y-85883803D01*
X110659987Y-85895088D01*
X110806250Y-86063938D01*
X110978126Y-86206632D01*
X111048595Y-86247811D01*
X111051445Y-86249476D01*
X111100169Y-86301114D01*
X111113240Y-86370897D01*
X111086509Y-86436669D01*
X111046055Y-86470027D01*
X111033607Y-86476507D01*
X111029474Y-86479610D01*
X111029471Y-86479612D01*
X110859100Y-86607530D01*
X110854965Y-86610635D01*
X110700629Y-86772138D01*
X110574743Y-86956680D01*
X110480688Y-87159305D01*
X110420989Y-87374570D01*
X110397251Y-87596695D01*
X110397548Y-87601848D01*
X110397548Y-87601851D01*
X110403011Y-87696590D01*
X110410110Y-87819715D01*
X110411247Y-87824761D01*
X110411248Y-87824767D01*
X110431119Y-87912939D01*
X110459222Y-88037639D01*
X110543266Y-88244616D01*
X110659987Y-88435088D01*
X110806250Y-88603938D01*
X110978126Y-88746632D01*
X111032482Y-88778395D01*
X111051445Y-88789476D01*
X111100169Y-88841114D01*
X111113240Y-88910897D01*
X111086509Y-88976669D01*
X111046055Y-89010027D01*
X111033607Y-89016507D01*
X111029474Y-89019610D01*
X111029471Y-89019612D01*
X110859100Y-89147530D01*
X110854965Y-89150635D01*
X110700629Y-89312138D01*
X110697715Y-89316410D01*
X110697714Y-89316411D01*
X110655099Y-89378882D01*
X110574743Y-89496680D01*
X110480688Y-89699305D01*
X110420989Y-89914570D01*
X110397251Y-90136695D01*
X110397548Y-90141848D01*
X110397548Y-90141851D01*
X110403011Y-90236590D01*
X110410110Y-90359715D01*
X110411247Y-90364761D01*
X110411248Y-90364767D01*
X110431119Y-90452939D01*
X110459222Y-90577639D01*
X110543266Y-90784616D01*
X110659987Y-90975088D01*
X110806250Y-91143938D01*
X110978126Y-91286632D01*
X111048595Y-91327811D01*
X111051445Y-91329476D01*
X111100169Y-91381114D01*
X111113240Y-91450897D01*
X111086509Y-91516669D01*
X111046055Y-91550027D01*
X111033607Y-91556507D01*
X111029474Y-91559610D01*
X111029471Y-91559612D01*
X110900897Y-91656148D01*
X110854965Y-91690635D01*
X110700629Y-91852138D01*
X110574743Y-92036680D01*
X110559003Y-92070590D01*
X110486290Y-92227237D01*
X110480688Y-92239305D01*
X110420989Y-92454570D01*
X110397251Y-92676695D01*
X110397548Y-92681848D01*
X110397548Y-92681851D01*
X110403011Y-92776590D01*
X110410110Y-92899715D01*
X110411247Y-92904761D01*
X110411248Y-92904767D01*
X110418174Y-92935499D01*
X110459222Y-93117639D01*
X110543266Y-93324616D01*
X110659987Y-93515088D01*
X110806250Y-93683938D01*
X110978126Y-93826632D01*
X111039836Y-93862692D01*
X111051445Y-93869476D01*
X111100169Y-93921114D01*
X111113240Y-93990897D01*
X111086509Y-94056669D01*
X111046055Y-94090027D01*
X111033607Y-94096507D01*
X111029474Y-94099610D01*
X111029471Y-94099612D01*
X110885940Y-94207378D01*
X110854965Y-94230635D01*
X110851393Y-94234373D01*
X110705011Y-94387553D01*
X110700629Y-94392138D01*
X110574743Y-94576680D01*
X110559003Y-94610590D01*
X110492278Y-94754337D01*
X110480688Y-94779305D01*
X110420989Y-94994570D01*
X110397251Y-95216695D01*
X110397548Y-95221848D01*
X110397548Y-95221851D01*
X110403011Y-95316590D01*
X110410110Y-95439715D01*
X110411247Y-95444761D01*
X110411248Y-95444767D01*
X110418174Y-95475499D01*
X110459222Y-95657639D01*
X110543266Y-95864616D01*
X110579629Y-95923955D01*
X110653072Y-96043803D01*
X110659987Y-96055088D01*
X110806250Y-96223938D01*
X110978126Y-96366632D01*
X111048595Y-96407811D01*
X111051445Y-96409476D01*
X111100169Y-96461114D01*
X111113240Y-96530897D01*
X111086509Y-96596669D01*
X111046055Y-96630027D01*
X111033607Y-96636507D01*
X111029474Y-96639610D01*
X111029471Y-96639612D01*
X110923101Y-96719477D01*
X110854965Y-96770635D01*
X110851393Y-96774373D01*
X110731907Y-96899408D01*
X110700629Y-96932138D01*
X110697715Y-96936410D01*
X110697714Y-96936411D01*
X110626186Y-97041267D01*
X110574743Y-97116680D01*
X110549163Y-97171787D01*
X110486290Y-97307237D01*
X110480688Y-97319305D01*
X110420989Y-97534570D01*
X110397251Y-97756695D01*
X110397548Y-97761848D01*
X110397548Y-97761851D01*
X110406644Y-97919598D01*
X110410110Y-97979715D01*
X110411247Y-97984761D01*
X110411248Y-97984767D01*
X110427041Y-98054844D01*
X110459222Y-98197639D01*
X110497461Y-98291811D01*
X110541234Y-98399611D01*
X110543266Y-98404616D01*
X110579629Y-98463955D01*
X110653072Y-98583803D01*
X110659987Y-98595088D01*
X110806250Y-98763938D01*
X110978126Y-98906632D01*
X111048595Y-98947811D01*
X111051445Y-98949476D01*
X111100169Y-99001114D01*
X111113240Y-99070897D01*
X111086509Y-99136669D01*
X111046055Y-99170027D01*
X111033607Y-99176507D01*
X111029474Y-99179610D01*
X111029471Y-99179612D01*
X110859100Y-99307530D01*
X110854965Y-99310635D01*
X110700629Y-99472138D01*
X110574743Y-99656680D01*
X110480688Y-99859305D01*
X110420989Y-100074570D01*
X110397251Y-100296695D01*
X110397548Y-100301848D01*
X110397548Y-100301851D01*
X110409812Y-100514547D01*
X110410110Y-100519715D01*
X110411247Y-100524761D01*
X110411248Y-100524767D01*
X110427764Y-100598051D01*
X110459222Y-100737639D01*
X110543266Y-100944616D01*
X110545965Y-100949020D01*
X110642411Y-101106406D01*
X110659987Y-101135088D01*
X110806250Y-101303938D01*
X110978126Y-101446632D01*
X111012975Y-101466996D01*
X111051445Y-101489476D01*
X111100169Y-101541114D01*
X111113240Y-101610897D01*
X111086509Y-101676669D01*
X111046055Y-101710027D01*
X111033607Y-101716507D01*
X111029474Y-101719610D01*
X111029471Y-101719612D01*
X110909396Y-101809767D01*
X110854965Y-101850635D01*
X110839220Y-101867111D01*
X110768688Y-101940919D01*
X110700629Y-102012138D01*
X110697715Y-102016410D01*
X110697714Y-102016411D01*
X110646248Y-102091857D01*
X110574743Y-102196680D01*
X110480688Y-102399305D01*
X110420989Y-102614570D01*
X110397251Y-102836695D01*
X110397548Y-102841848D01*
X110397548Y-102841851D01*
X110405897Y-102986652D01*
X110410110Y-103059715D01*
X110411247Y-103064761D01*
X110411248Y-103064767D01*
X110431119Y-103152939D01*
X110459222Y-103277639D01*
X110543266Y-103484616D01*
X110659987Y-103675088D01*
X110806250Y-103843938D01*
X110978126Y-103986632D01*
X111048595Y-104027811D01*
X111051445Y-104029476D01*
X111100169Y-104081114D01*
X111113240Y-104150897D01*
X111086509Y-104216669D01*
X111046055Y-104250027D01*
X111033607Y-104256507D01*
X111029474Y-104259610D01*
X111029471Y-104259612D01*
X111005247Y-104277800D01*
X110854965Y-104390635D01*
X110700629Y-104552138D01*
X110574743Y-104736680D01*
X110480688Y-104939305D01*
X110420989Y-105154570D01*
X110397251Y-105376695D01*
X110397548Y-105381848D01*
X110397548Y-105381851D01*
X110407278Y-105550594D01*
X110410110Y-105599715D01*
X110411247Y-105604761D01*
X110411248Y-105604767D01*
X110428686Y-105682143D01*
X110459222Y-105817639D01*
X110543266Y-106024616D01*
X110659987Y-106215088D01*
X110806250Y-106383938D01*
X110978126Y-106526632D01*
X111048595Y-106567811D01*
X111051445Y-106569476D01*
X111100169Y-106621114D01*
X111113240Y-106690897D01*
X111086509Y-106756669D01*
X111046055Y-106790027D01*
X111033607Y-106796507D01*
X111029474Y-106799610D01*
X111029471Y-106799612D01*
X111005247Y-106817800D01*
X110854965Y-106930635D01*
X110700629Y-107092138D01*
X110574743Y-107276680D01*
X110480688Y-107479305D01*
X110420989Y-107694570D01*
X110397251Y-107916695D01*
X110397548Y-107921848D01*
X110397548Y-107921851D01*
X110403371Y-108022843D01*
X110410110Y-108139715D01*
X110411247Y-108144761D01*
X110411248Y-108144767D01*
X110431119Y-108232939D01*
X110459222Y-108357639D01*
X110543266Y-108564616D01*
X110545965Y-108569020D01*
X110624127Y-108696569D01*
X110659987Y-108755088D01*
X110806250Y-108923938D01*
X110978126Y-109066632D01*
X111048595Y-109107811D01*
X111051445Y-109109476D01*
X111100169Y-109161114D01*
X111113240Y-109230897D01*
X111086509Y-109296669D01*
X111046055Y-109330027D01*
X111033607Y-109336507D01*
X111029474Y-109339610D01*
X111029471Y-109339612D01*
X110859100Y-109467530D01*
X110854965Y-109470635D01*
X110700629Y-109632138D01*
X110574743Y-109816680D01*
X110480688Y-110019305D01*
X110420989Y-110234570D01*
X110397251Y-110456695D01*
X82056301Y-110456695D01*
X82115437Y-110414513D01*
X82123838Y-110403813D01*
X82116850Y-110390660D01*
X81305512Y-109579322D01*
X81291568Y-109571708D01*
X81289735Y-109571839D01*
X81283120Y-109576090D01*
X80464560Y-110394650D01*
X80457312Y-110407924D01*
X79429980Y-110407924D01*
X79386034Y-110359350D01*
X79373500Y-110304565D01*
X79373500Y-109176651D01*
X79827929Y-109176651D01*
X79841159Y-109406090D01*
X79842595Y-109416311D01*
X79893120Y-109640504D01*
X79896199Y-109650332D01*
X79982667Y-109863276D01*
X79987310Y-109872467D01*
X80084619Y-110031261D01*
X80095076Y-110040721D01*
X80103852Y-110036938D01*
X80920678Y-109220112D01*
X80927056Y-109208432D01*
X81657108Y-109208432D01*
X81657239Y-109210265D01*
X81661490Y-109216880D01*
X82476622Y-110032012D01*
X82488632Y-110038571D01*
X82500371Y-110029603D01*
X82545865Y-109966291D01*
X82551176Y-109957452D01*
X82652998Y-109751429D01*
X82656797Y-109741834D01*
X82723604Y-109521950D01*
X82725783Y-109511869D01*
X82756018Y-109282212D01*
X82756537Y-109275537D01*
X82758123Y-109210664D01*
X82757929Y-109203947D01*
X82738950Y-108973096D01*
X82737267Y-108962934D01*
X82681278Y-108740029D01*
X82677959Y-108730281D01*
X82586316Y-108519513D01*
X82581449Y-108510436D01*
X82499891Y-108384369D01*
X82489205Y-108375167D01*
X82479640Y-108379570D01*
X81664722Y-109194488D01*
X81657108Y-109208432D01*
X80927056Y-109208432D01*
X80928292Y-109206168D01*
X80928161Y-109204335D01*
X80923910Y-109197720D01*
X80108785Y-108382595D01*
X80097249Y-108376295D01*
X80084966Y-108385919D01*
X80021370Y-108479147D01*
X80016271Y-108488121D01*
X79919513Y-108696569D01*
X79915950Y-108706256D01*
X79854535Y-108927709D01*
X79852604Y-108937829D01*
X79828181Y-109166363D01*
X79827929Y-109176651D01*
X79373500Y-109176651D01*
X79373500Y-108010513D01*
X80460709Y-108010513D01*
X80467453Y-108022843D01*
X81279888Y-108835278D01*
X81293832Y-108842892D01*
X81295665Y-108842761D01*
X81302280Y-108838510D01*
X82119070Y-108021720D01*
X82126090Y-108008864D01*
X82118315Y-107998194D01*
X82107761Y-107989858D01*
X82099168Y-107984149D01*
X81897978Y-107873086D01*
X81888566Y-107868856D01*
X81671932Y-107792141D01*
X81661961Y-107789507D01*
X81435705Y-107749205D01*
X81425452Y-107748236D01*
X81195642Y-107745428D01*
X81185358Y-107746148D01*
X80958184Y-107780910D01*
X80948157Y-107783299D01*
X80729712Y-107854698D01*
X80720203Y-107858695D01*
X80516353Y-107964813D01*
X80507635Y-107970302D01*
X80469162Y-107999188D01*
X80460709Y-108010513D01*
X79373500Y-108010513D01*
X79373500Y-105889778D01*
X79374027Y-105878595D01*
X79375702Y-105871102D01*
X79373562Y-105803011D01*
X79373500Y-105799054D01*
X79373500Y-105771154D01*
X79372996Y-105767163D01*
X79372063Y-105755321D01*
X79370923Y-105719046D01*
X79370674Y-105711121D01*
X79368461Y-105703503D01*
X79365021Y-105691662D01*
X79361012Y-105672303D01*
X79360846Y-105670993D01*
X79358474Y-105652213D01*
X79355558Y-105644847D01*
X79355556Y-105644841D01*
X79342200Y-105611108D01*
X79338355Y-105599878D01*
X79328230Y-105565027D01*
X79328230Y-105565026D01*
X79326019Y-105557417D01*
X79315705Y-105539976D01*
X79307008Y-105522223D01*
X79302472Y-105510768D01*
X79299552Y-105503393D01*
X79281746Y-105478885D01*
X79273563Y-105467622D01*
X79267047Y-105457702D01*
X79248578Y-105426473D01*
X79244542Y-105419648D01*
X79230221Y-105405327D01*
X79217380Y-105390293D01*
X79205472Y-105373903D01*
X79171395Y-105345712D01*
X79162616Y-105337722D01*
X76811547Y-102986652D01*
X76777521Y-102924340D01*
X76782586Y-102853524D01*
X76825133Y-102796689D01*
X76845200Y-102784411D01*
X76882994Y-102765896D01*
X77064860Y-102636173D01*
X77223096Y-102478489D01*
X77229134Y-102470087D01*
X77353453Y-102297077D01*
X77354776Y-102298028D01*
X77401645Y-102254857D01*
X77471580Y-102242625D01*
X77537026Y-102270144D01*
X77564875Y-102301994D01*
X77624987Y-102400088D01*
X77771250Y-102568938D01*
X77943126Y-102711632D01*
X78136000Y-102824338D01*
X78140825Y-102826180D01*
X78140826Y-102826181D01*
X78181862Y-102841851D01*
X78344692Y-102904030D01*
X78349760Y-102905061D01*
X78349763Y-102905062D01*
X78444518Y-102924340D01*
X78563597Y-102948567D01*
X78568772Y-102948757D01*
X78568774Y-102948757D01*
X78781673Y-102956564D01*
X78781677Y-102956564D01*
X78786837Y-102956753D01*
X78791957Y-102956097D01*
X78791959Y-102956097D01*
X79003288Y-102929025D01*
X79003289Y-102929025D01*
X79008416Y-102928368D01*
X79013366Y-102926883D01*
X79217429Y-102865661D01*
X79217434Y-102865659D01*
X79222384Y-102864174D01*
X79422994Y-102765896D01*
X79604860Y-102636173D01*
X79763096Y-102478489D01*
X79769134Y-102470087D01*
X79890435Y-102301277D01*
X79893453Y-102297077D01*
X79914320Y-102254857D01*
X79990136Y-102101453D01*
X79990137Y-102101451D01*
X79992430Y-102096811D01*
X80057370Y-101883069D01*
X80086529Y-101661590D01*
X80087585Y-101618365D01*
X80088074Y-101598365D01*
X80088074Y-101598361D01*
X80088156Y-101595000D01*
X80087062Y-101581695D01*
X90077251Y-101581695D01*
X90077548Y-101586848D01*
X90077548Y-101586851D01*
X90083011Y-101681590D01*
X90090110Y-101804715D01*
X90091247Y-101809761D01*
X90091248Y-101809767D01*
X90111119Y-101897939D01*
X90139222Y-102022639D01*
X90177461Y-102116811D01*
X90211799Y-102201375D01*
X90223266Y-102229616D01*
X90225965Y-102234020D01*
X90336077Y-102413707D01*
X90339987Y-102420088D01*
X90486250Y-102588938D01*
X90658126Y-102731632D01*
X90851000Y-102844338D01*
X90855825Y-102846180D01*
X90855826Y-102846181D01*
X90881039Y-102855809D01*
X91059692Y-102924030D01*
X91064760Y-102925061D01*
X91064763Y-102925062D01*
X91172017Y-102946883D01*
X91278597Y-102968567D01*
X91283772Y-102968757D01*
X91283774Y-102968757D01*
X91496673Y-102976564D01*
X91496677Y-102976564D01*
X91501837Y-102976753D01*
X91506957Y-102976097D01*
X91506959Y-102976097D01*
X91718288Y-102949025D01*
X91718289Y-102949025D01*
X91723416Y-102948368D01*
X91739725Y-102943475D01*
X91932429Y-102885661D01*
X91932434Y-102885659D01*
X91937384Y-102884174D01*
X92137994Y-102785896D01*
X92319860Y-102656173D01*
X92333740Y-102642342D01*
X92474435Y-102502137D01*
X92478096Y-102498489D01*
X92492468Y-102478489D01*
X92605435Y-102321277D01*
X92608453Y-102317077D01*
X92612630Y-102308627D01*
X92705136Y-102121453D01*
X92705137Y-102121451D01*
X92707430Y-102116811D01*
X92772370Y-101903069D01*
X92801529Y-101681590D01*
X92803156Y-101615000D01*
X92784852Y-101392361D01*
X92730431Y-101175702D01*
X92641354Y-100970840D01*
X92520014Y-100783277D01*
X92369670Y-100618051D01*
X92365619Y-100614852D01*
X92365615Y-100614848D01*
X92198414Y-100482800D01*
X92198410Y-100482798D01*
X92194359Y-100479598D01*
X92163930Y-100462800D01*
X92065686Y-100408567D01*
X91998789Y-100371638D01*
X91993920Y-100369914D01*
X91993916Y-100369912D01*
X91793087Y-100298795D01*
X91793083Y-100298794D01*
X91788212Y-100297069D01*
X91783119Y-100296162D01*
X91783116Y-100296161D01*
X91573373Y-100258800D01*
X91573367Y-100258799D01*
X91568284Y-100257894D01*
X91494452Y-100256992D01*
X91350081Y-100255228D01*
X91350079Y-100255228D01*
X91344911Y-100255165D01*
X91124091Y-100288955D01*
X90911756Y-100358357D01*
X90838311Y-100396590D01*
X90722077Y-100457098D01*
X90713607Y-100461507D01*
X90709474Y-100464610D01*
X90709471Y-100464612D01*
X90556624Y-100579373D01*
X90534965Y-100595635D01*
X90531393Y-100599373D01*
X90403313Y-100733401D01*
X90380629Y-100757138D01*
X90377715Y-100761410D01*
X90377714Y-100761411D01*
X90326524Y-100836453D01*
X90254743Y-100941680D01*
X90160688Y-101144305D01*
X90100989Y-101359570D01*
X90077251Y-101581695D01*
X80087062Y-101581695D01*
X80069852Y-101372361D01*
X80015431Y-101155702D01*
X79926354Y-100950840D01*
X79846146Y-100826857D01*
X79807822Y-100767617D01*
X79807820Y-100767614D01*
X79805014Y-100763277D01*
X79654670Y-100598051D01*
X79650619Y-100594852D01*
X79650615Y-100594848D01*
X79483414Y-100462800D01*
X79483410Y-100462798D01*
X79479359Y-100459598D01*
X79474835Y-100457100D01*
X79474831Y-100457098D01*
X79438046Y-100436792D01*
X79388074Y-100386360D01*
X79373302Y-100316917D01*
X79398418Y-100250512D01*
X79425770Y-100223904D01*
X79438986Y-100214477D01*
X79604849Y-100096169D01*
X79763085Y-99938485D01*
X79893442Y-99757073D01*
X79914309Y-99714853D01*
X79990125Y-99561449D01*
X79990126Y-99561447D01*
X79992419Y-99556807D01*
X80057359Y-99343065D01*
X80086518Y-99121586D01*
X80087372Y-99086638D01*
X80088063Y-99058361D01*
X80088063Y-99058357D01*
X80088145Y-99054996D01*
X80069841Y-98832357D01*
X80015420Y-98615698D01*
X79926343Y-98410836D01*
X79849342Y-98291811D01*
X79807811Y-98227613D01*
X79807809Y-98227610D01*
X79805003Y-98223273D01*
X79654659Y-98058047D01*
X79650608Y-98054848D01*
X79650604Y-98054844D01*
X79483403Y-97922796D01*
X79483399Y-97922794D01*
X79479348Y-97919594D01*
X79283778Y-97811634D01*
X79278909Y-97809910D01*
X79278905Y-97809908D01*
X79078076Y-97738791D01*
X79078072Y-97738790D01*
X79073201Y-97737065D01*
X79068108Y-97736158D01*
X79068105Y-97736157D01*
X78858362Y-97698796D01*
X78858356Y-97698795D01*
X78853273Y-97697890D01*
X78779441Y-97696988D01*
X78635070Y-97695224D01*
X78635068Y-97695224D01*
X78629900Y-97695161D01*
X78409080Y-97728951D01*
X78196745Y-97798353D01*
X77998596Y-97901503D01*
X77994463Y-97904606D01*
X77994460Y-97904608D01*
X77885782Y-97986206D01*
X77819954Y-98035631D01*
X77816382Y-98039369D01*
X77669955Y-98192596D01*
X77665618Y-98197134D01*
X77558195Y-98354611D01*
X77503286Y-98399611D01*
X77432761Y-98407782D01*
X77369014Y-98376528D01*
X77348317Y-98352044D01*
X77267822Y-98227617D01*
X77267819Y-98227613D01*
X77265014Y-98223277D01*
X77114670Y-98058051D01*
X77110619Y-98054852D01*
X77110615Y-98054848D01*
X76943414Y-97922800D01*
X76943408Y-97922796D01*
X76939359Y-97919598D01*
X76934829Y-97917097D01*
X76831230Y-97859908D01*
X76743789Y-97811638D01*
X76738920Y-97809914D01*
X76738916Y-97809912D01*
X76538087Y-97738795D01*
X76538083Y-97738794D01*
X76533212Y-97737069D01*
X76528119Y-97736162D01*
X76528116Y-97736161D01*
X76318373Y-97698800D01*
X76318367Y-97698799D01*
X76313284Y-97697894D01*
X76239452Y-97696992D01*
X76095081Y-97695228D01*
X76095079Y-97695228D01*
X76089911Y-97695165D01*
X75869091Y-97728955D01*
X75728645Y-97774860D01*
X75657681Y-97777011D01*
X75596820Y-97740455D01*
X75565383Y-97676798D01*
X75563913Y-97659853D01*
X90679977Y-97659853D01*
X90685258Y-97666907D01*
X90846756Y-97761279D01*
X90856042Y-97765729D01*
X91055001Y-97841703D01*
X91064899Y-97844579D01*
X91273595Y-97887038D01*
X91283823Y-97888257D01*
X91496650Y-97896062D01*
X91506936Y-97895595D01*
X91718185Y-97868534D01*
X91728262Y-97866392D01*
X91932255Y-97805191D01*
X91941842Y-97801433D01*
X92133098Y-97707738D01*
X92141944Y-97702465D01*
X92189247Y-97668723D01*
X92197648Y-97658023D01*
X92190660Y-97644870D01*
X91452812Y-96907022D01*
X91438868Y-96899408D01*
X91437035Y-96899539D01*
X91430420Y-96903790D01*
X90686737Y-97647473D01*
X90679977Y-97659853D01*
X75563913Y-97659853D01*
X75563500Y-97655095D01*
X75563500Y-96506863D01*
X90078050Y-96506863D01*
X90090309Y-96719477D01*
X90091745Y-96729697D01*
X90138565Y-96937446D01*
X90141645Y-96947275D01*
X90221770Y-97144603D01*
X90226413Y-97153794D01*
X90306460Y-97284420D01*
X90316916Y-97293880D01*
X90325694Y-97290096D01*
X91067978Y-96547812D01*
X91074356Y-96536132D01*
X91804408Y-96536132D01*
X91804539Y-96537965D01*
X91808790Y-96544580D01*
X92550474Y-97286264D01*
X92562484Y-97292823D01*
X92574223Y-97283855D01*
X92605004Y-97241019D01*
X92610315Y-97232180D01*
X92704670Y-97041267D01*
X92708469Y-97031672D01*
X92770376Y-96827915D01*
X92772555Y-96817834D01*
X92800590Y-96604887D01*
X92801109Y-96598212D01*
X92802572Y-96538364D01*
X92802378Y-96531646D01*
X92801421Y-96520000D01*
X96876496Y-96520000D01*
X96877186Y-96526565D01*
X96890381Y-96652104D01*
X96896458Y-96709928D01*
X96955473Y-96891556D01*
X96958776Y-96897278D01*
X96958777Y-96897279D01*
X96978903Y-96932138D01*
X97050960Y-97056944D01*
X97055378Y-97061851D01*
X97055379Y-97061852D01*
X97104746Y-97116680D01*
X97178747Y-97198866D01*
X97253333Y-97253056D01*
X97299040Y-97286264D01*
X97333248Y-97311118D01*
X97339276Y-97313802D01*
X97339278Y-97313803D01*
X97433426Y-97355720D01*
X97507712Y-97388794D01*
X97601112Y-97408647D01*
X97688056Y-97427128D01*
X97688061Y-97427128D01*
X97694513Y-97428500D01*
X97885487Y-97428500D01*
X97891939Y-97427128D01*
X97891944Y-97427128D01*
X97978888Y-97408647D01*
X98072288Y-97388794D01*
X98146574Y-97355720D01*
X98240722Y-97313803D01*
X98240724Y-97313802D01*
X98246752Y-97311118D01*
X98280961Y-97286264D01*
X98326667Y-97253056D01*
X98401253Y-97198866D01*
X98475254Y-97116680D01*
X98524621Y-97061852D01*
X98524622Y-97061851D01*
X98529040Y-97056944D01*
X98601097Y-96932138D01*
X98621223Y-96897279D01*
X98621224Y-96897278D01*
X98624527Y-96891556D01*
X98683542Y-96709928D01*
X98689620Y-96652104D01*
X98702814Y-96526565D01*
X98703504Y-96520000D01*
X98683542Y-96330072D01*
X98624527Y-96148444D01*
X98588857Y-96086661D01*
X98532341Y-95988774D01*
X98529040Y-95983056D01*
X98501147Y-95952077D01*
X98405675Y-95846045D01*
X98405674Y-95846044D01*
X98401253Y-95841134D01*
X98278311Y-95751811D01*
X98252094Y-95732763D01*
X98252093Y-95732762D01*
X98246752Y-95728882D01*
X98240724Y-95726198D01*
X98240722Y-95726197D01*
X98078319Y-95653891D01*
X98078318Y-95653891D01*
X98072288Y-95651206D01*
X97959721Y-95627279D01*
X97891944Y-95612872D01*
X97891939Y-95612872D01*
X97885487Y-95611500D01*
X97694513Y-95611500D01*
X97688061Y-95612872D01*
X97688056Y-95612872D01*
X97620279Y-95627279D01*
X97507712Y-95651206D01*
X97501682Y-95653891D01*
X97501681Y-95653891D01*
X97339278Y-95726197D01*
X97339276Y-95726198D01*
X97333248Y-95728882D01*
X97327907Y-95732762D01*
X97327906Y-95732763D01*
X97301689Y-95751811D01*
X97178747Y-95841134D01*
X97174326Y-95846044D01*
X97174325Y-95846045D01*
X97078854Y-95952077D01*
X97050960Y-95983056D01*
X97047659Y-95988774D01*
X96991144Y-96086661D01*
X96955473Y-96148444D01*
X96896458Y-96330072D01*
X96876496Y-96520000D01*
X92801421Y-96520000D01*
X92784781Y-96317604D01*
X92783096Y-96307424D01*
X92731214Y-96100875D01*
X92727894Y-96091124D01*
X92642972Y-95895814D01*
X92638105Y-95886739D01*
X92573063Y-95786197D01*
X92562377Y-95776995D01*
X92552812Y-95781398D01*
X91812022Y-96522188D01*
X91804408Y-96536132D01*
X91074356Y-96536132D01*
X91075592Y-96533868D01*
X91075461Y-96532035D01*
X91071210Y-96525420D01*
X90329849Y-95784059D01*
X90318313Y-95777759D01*
X90306031Y-95787382D01*
X90258089Y-95857662D01*
X90253004Y-95866613D01*
X90163338Y-96059783D01*
X90159775Y-96069470D01*
X90102864Y-96274681D01*
X90100933Y-96284800D01*
X90078302Y-96496574D01*
X90078050Y-96506863D01*
X75563500Y-96506863D01*
X75563500Y-96154782D01*
X75583502Y-96086661D01*
X75637158Y-96040168D01*
X75707432Y-96030064D01*
X75742730Y-96042282D01*
X75743248Y-96041118D01*
X75917712Y-96118794D01*
X76004009Y-96137137D01*
X76098056Y-96157128D01*
X76098061Y-96157128D01*
X76104513Y-96158500D01*
X76295487Y-96158500D01*
X76301939Y-96157128D01*
X76301944Y-96157128D01*
X76395991Y-96137137D01*
X76482288Y-96118794D01*
X76522535Y-96100875D01*
X76650722Y-96043803D01*
X76650724Y-96043802D01*
X76656752Y-96041118D01*
X76671967Y-96030064D01*
X76785691Y-95947438D01*
X76811253Y-95928866D01*
X76890247Y-95841134D01*
X76934621Y-95791852D01*
X76934622Y-95791851D01*
X76939040Y-95786944D01*
X77010931Y-95662425D01*
X77031223Y-95627279D01*
X77031224Y-95627278D01*
X77034527Y-95621556D01*
X77093542Y-95439928D01*
X77096736Y-95409544D01*
X77112814Y-95256565D01*
X77113504Y-95250000D01*
X80366496Y-95250000D01*
X80367186Y-95256565D01*
X80383265Y-95409544D01*
X80386458Y-95439928D01*
X80445473Y-95621556D01*
X80448776Y-95627278D01*
X80448777Y-95627279D01*
X80469069Y-95662425D01*
X80540960Y-95786944D01*
X80545378Y-95791851D01*
X80545379Y-95791852D01*
X80589753Y-95841134D01*
X80668747Y-95928866D01*
X80694309Y-95947438D01*
X80808034Y-96030064D01*
X80823248Y-96041118D01*
X80829276Y-96043802D01*
X80829278Y-96043803D01*
X80957465Y-96100875D01*
X80997712Y-96118794D01*
X81084009Y-96137137D01*
X81178056Y-96157128D01*
X81178061Y-96157128D01*
X81184513Y-96158500D01*
X81375487Y-96158500D01*
X81381939Y-96157128D01*
X81381944Y-96157128D01*
X81475991Y-96137137D01*
X81562288Y-96118794D01*
X81602535Y-96100875D01*
X81730722Y-96043803D01*
X81730724Y-96043802D01*
X81736752Y-96041118D01*
X81751967Y-96030064D01*
X81865691Y-95947438D01*
X81891253Y-95928866D01*
X81970247Y-95841134D01*
X82014621Y-95791852D01*
X82014622Y-95791851D01*
X82019040Y-95786944D01*
X82090931Y-95662425D01*
X82111223Y-95627279D01*
X82111224Y-95627278D01*
X82114527Y-95621556D01*
X82173542Y-95439928D01*
X82176538Y-95411427D01*
X90681223Y-95411427D01*
X90687968Y-95423758D01*
X91427188Y-96162978D01*
X91441132Y-96170592D01*
X91442965Y-96170461D01*
X91449580Y-96166210D01*
X92193389Y-95422401D01*
X92200410Y-95409544D01*
X92193611Y-95400213D01*
X92189554Y-95397518D01*
X92003117Y-95294599D01*
X91993705Y-95290369D01*
X91792959Y-95219280D01*
X91782989Y-95216646D01*
X91573327Y-95179301D01*
X91563073Y-95178331D01*
X91350116Y-95175728D01*
X91339832Y-95176448D01*
X91129321Y-95208661D01*
X91119293Y-95211050D01*
X90916868Y-95277212D01*
X90907359Y-95281209D01*
X90718466Y-95379540D01*
X90709734Y-95385039D01*
X90689677Y-95400099D01*
X90681223Y-95411427D01*
X82176538Y-95411427D01*
X82176736Y-95409544D01*
X82192814Y-95256565D01*
X82193504Y-95250000D01*
X82185926Y-95177899D01*
X82174232Y-95066635D01*
X82174232Y-95066633D01*
X82173542Y-95060072D01*
X82114527Y-94878444D01*
X82019040Y-94713056D01*
X81922503Y-94605840D01*
X81895675Y-94576045D01*
X81895674Y-94576044D01*
X81891253Y-94571134D01*
X81759856Y-94475668D01*
X81742094Y-94462763D01*
X81742093Y-94462762D01*
X81736752Y-94458882D01*
X81730724Y-94456198D01*
X81730722Y-94456197D01*
X81568319Y-94383891D01*
X81568318Y-94383891D01*
X81562288Y-94381206D01*
X81449721Y-94357279D01*
X81381944Y-94342872D01*
X81381939Y-94342872D01*
X81375487Y-94341500D01*
X81184513Y-94341500D01*
X81178061Y-94342872D01*
X81178056Y-94342872D01*
X81110279Y-94357279D01*
X80997712Y-94381206D01*
X80991682Y-94383891D01*
X80991681Y-94383891D01*
X80829278Y-94456197D01*
X80829276Y-94456198D01*
X80823248Y-94458882D01*
X80817907Y-94462762D01*
X80817906Y-94462763D01*
X80800144Y-94475668D01*
X80668747Y-94571134D01*
X80664326Y-94576044D01*
X80664325Y-94576045D01*
X80637498Y-94605840D01*
X80540960Y-94713056D01*
X80445473Y-94878444D01*
X80386458Y-95060072D01*
X80385768Y-95066633D01*
X80385768Y-95066635D01*
X80374074Y-95177899D01*
X80366496Y-95250000D01*
X77113504Y-95250000D01*
X77105926Y-95177899D01*
X77094232Y-95066635D01*
X77094232Y-95066633D01*
X77093542Y-95060072D01*
X77034527Y-94878444D01*
X76939040Y-94713056D01*
X76926662Y-94699309D01*
X76895946Y-94635303D01*
X76904710Y-94564850D01*
X76926661Y-94530693D01*
X76939040Y-94516944D01*
X77011242Y-94391886D01*
X77031223Y-94357279D01*
X77031224Y-94357278D01*
X77034527Y-94351556D01*
X77093542Y-94169928D01*
X77094781Y-94158145D01*
X77112814Y-93986565D01*
X77113504Y-93980000D01*
X77101888Y-93869476D01*
X77094232Y-93796635D01*
X77094232Y-93796633D01*
X77093542Y-93790072D01*
X77034527Y-93608444D01*
X76939040Y-93443056D01*
X76929120Y-93432038D01*
X76815675Y-93306045D01*
X76815674Y-93306044D01*
X76811253Y-93301134D01*
X76688311Y-93211811D01*
X76662094Y-93192763D01*
X76662093Y-93192762D01*
X76656752Y-93188882D01*
X76650724Y-93186198D01*
X76650722Y-93186197D01*
X76488319Y-93113891D01*
X76488318Y-93113891D01*
X76482288Y-93111206D01*
X76388887Y-93091353D01*
X76301944Y-93072872D01*
X76301939Y-93072872D01*
X76295487Y-93071500D01*
X76104513Y-93071500D01*
X76098061Y-93072872D01*
X76098056Y-93072872D01*
X76011113Y-93091353D01*
X75917712Y-93111206D01*
X75911682Y-93113891D01*
X75911681Y-93113891D01*
X75768006Y-93177859D01*
X75743248Y-93188882D01*
X75742323Y-93186804D01*
X75683512Y-93201076D01*
X75616419Y-93177859D01*
X75572528Y-93122055D01*
X75563500Y-93075218D01*
X75563500Y-91440000D01*
X86716496Y-91440000D01*
X86717186Y-91446565D01*
X86730381Y-91572104D01*
X86736458Y-91629928D01*
X86795473Y-91811556D01*
X86798776Y-91817278D01*
X86798777Y-91817279D01*
X86818903Y-91852138D01*
X86890960Y-91976944D01*
X86895378Y-91981851D01*
X86895379Y-91981852D01*
X86944746Y-92036680D01*
X87018747Y-92118866D01*
X87106936Y-92182939D01*
X87155193Y-92218000D01*
X87173248Y-92231118D01*
X87179276Y-92233802D01*
X87179278Y-92233803D01*
X87341681Y-92306109D01*
X87347712Y-92308794D01*
X87441112Y-92328647D01*
X87528056Y-92347128D01*
X87528061Y-92347128D01*
X87534513Y-92348500D01*
X87725487Y-92348500D01*
X87731939Y-92347128D01*
X87731944Y-92347128D01*
X87818888Y-92328647D01*
X87912288Y-92308794D01*
X87918319Y-92306109D01*
X88080722Y-92233803D01*
X88080724Y-92233802D01*
X88086752Y-92231118D01*
X88104808Y-92218000D01*
X88153064Y-92182939D01*
X88241253Y-92118866D01*
X88315254Y-92036680D01*
X88364621Y-91981852D01*
X88364622Y-91981851D01*
X88369040Y-91976944D01*
X88441097Y-91852138D01*
X88461223Y-91817279D01*
X88461224Y-91817278D01*
X88464527Y-91811556D01*
X88523542Y-91629928D01*
X88529620Y-91572104D01*
X88542814Y-91446565D01*
X88543504Y-91440000D01*
X88523542Y-91250072D01*
X88464527Y-91068444D01*
X88369040Y-90903056D01*
X88341147Y-90872077D01*
X88245675Y-90766045D01*
X88245674Y-90766044D01*
X88241253Y-90761134D01*
X88118311Y-90671811D01*
X88092094Y-90652763D01*
X88092093Y-90652762D01*
X88086752Y-90648882D01*
X88080724Y-90646198D01*
X88080722Y-90646197D01*
X87918319Y-90573891D01*
X87918318Y-90573891D01*
X87912288Y-90571206D01*
X87799721Y-90547279D01*
X87731944Y-90532872D01*
X87731939Y-90532872D01*
X87725487Y-90531500D01*
X87534513Y-90531500D01*
X87528061Y-90532872D01*
X87528056Y-90532872D01*
X87460279Y-90547279D01*
X87347712Y-90571206D01*
X87341682Y-90573891D01*
X87341681Y-90573891D01*
X87179278Y-90646197D01*
X87179276Y-90646198D01*
X87173248Y-90648882D01*
X87167907Y-90652762D01*
X87167906Y-90652763D01*
X87141689Y-90671811D01*
X87018747Y-90761134D01*
X87014326Y-90766044D01*
X87014325Y-90766045D01*
X86918854Y-90872077D01*
X86890960Y-90903056D01*
X86795473Y-91068444D01*
X86736458Y-91250072D01*
X86716496Y-91440000D01*
X75563500Y-91440000D01*
X75563500Y-90872524D01*
X75583502Y-90804403D01*
X75595858Y-90788221D01*
X75669040Y-90706944D01*
X75740931Y-90582425D01*
X75761223Y-90547279D01*
X75761224Y-90547278D01*
X75764527Y-90541556D01*
X75823542Y-90359928D01*
X75836157Y-90239908D01*
X75842814Y-90176565D01*
X75843504Y-90170000D01*
X75823542Y-89980072D01*
X75764527Y-89798444D01*
X75669040Y-89633056D01*
X75572503Y-89525840D01*
X75545675Y-89496045D01*
X75545674Y-89496044D01*
X75541253Y-89491134D01*
X75401127Y-89389326D01*
X75357773Y-89333103D01*
X75350740Y-89267676D01*
X75357110Y-89227464D01*
X75359516Y-89215845D01*
X75368539Y-89180700D01*
X75368539Y-89180699D01*
X75370511Y-89173019D01*
X75370511Y-89152765D01*
X75372062Y-89133054D01*
X75373991Y-89120875D01*
X75375231Y-89113046D01*
X75371070Y-89069027D01*
X75370511Y-89057170D01*
X75370511Y-88332524D01*
X75390513Y-88264403D01*
X75402869Y-88248221D01*
X75476051Y-88166944D01*
X75547942Y-88042425D01*
X75568234Y-88007279D01*
X75568235Y-88007278D01*
X75571538Y-88001556D01*
X75630553Y-87819928D01*
X75643168Y-87699908D01*
X75649825Y-87636565D01*
X75650515Y-87630000D01*
X75646475Y-87591562D01*
X75631243Y-87446635D01*
X75631243Y-87446633D01*
X75630553Y-87440072D01*
X75571538Y-87258444D01*
X75476051Y-87093056D01*
X75379514Y-86985840D01*
X75352686Y-86956045D01*
X75352685Y-86956044D01*
X75348264Y-86951134D01*
X75193763Y-86838882D01*
X75187735Y-86836198D01*
X75187733Y-86836197D01*
X75025330Y-86763891D01*
X75025329Y-86763891D01*
X75019299Y-86761206D01*
X74925898Y-86741353D01*
X74838955Y-86722872D01*
X74838950Y-86722872D01*
X74832498Y-86721500D01*
X74641524Y-86721500D01*
X74635072Y-86722872D01*
X74635067Y-86722872D01*
X74548124Y-86741353D01*
X74454723Y-86761206D01*
X74448693Y-86763891D01*
X74448692Y-86763891D01*
X74286289Y-86836197D01*
X74286287Y-86836198D01*
X74280259Y-86838882D01*
X74125758Y-86951134D01*
X74121337Y-86956044D01*
X74121336Y-86956045D01*
X74094509Y-86985840D01*
X73997971Y-87093056D01*
X73902484Y-87258444D01*
X73843469Y-87440072D01*
X73842779Y-87446633D01*
X73842779Y-87446635D01*
X73827547Y-87591562D01*
X73823507Y-87630000D01*
X73824197Y-87636565D01*
X73830855Y-87699908D01*
X73843469Y-87819928D01*
X73902484Y-88001556D01*
X73905787Y-88007278D01*
X73905788Y-88007279D01*
X73926080Y-88042425D01*
X73997971Y-88166944D01*
X74071148Y-88248215D01*
X74101864Y-88312221D01*
X74103511Y-88332524D01*
X74103511Y-88778395D01*
X74083509Y-88846516D01*
X74066606Y-88867490D01*
X72392539Y-90541556D01*
X70727747Y-92206348D01*
X70719461Y-92213888D01*
X70712982Y-92218000D01*
X70707557Y-92223777D01*
X70666357Y-92267651D01*
X70663602Y-92270493D01*
X70643865Y-92290230D01*
X70641385Y-92293427D01*
X70633682Y-92302447D01*
X70603414Y-92334679D01*
X70599595Y-92341625D01*
X70599593Y-92341628D01*
X70593652Y-92352434D01*
X70582801Y-92368953D01*
X70570386Y-92384959D01*
X70567241Y-92392228D01*
X70567238Y-92392232D01*
X70552826Y-92425537D01*
X70547609Y-92436187D01*
X70526305Y-92474940D01*
X70524334Y-92482615D01*
X70524334Y-92482616D01*
X70521267Y-92494562D01*
X70514863Y-92513266D01*
X70506819Y-92531855D01*
X70505580Y-92539678D01*
X70505577Y-92539688D01*
X70499901Y-92575524D01*
X70497495Y-92587144D01*
X70486500Y-92629970D01*
X70486500Y-92650224D01*
X70484949Y-92669934D01*
X70481780Y-92689943D01*
X70482526Y-92697835D01*
X70485941Y-92733961D01*
X70486500Y-92745819D01*
X70486500Y-93665405D01*
X70466498Y-93733526D01*
X70449595Y-93754500D01*
X69457747Y-94746348D01*
X69449461Y-94753888D01*
X69442982Y-94758000D01*
X69437557Y-94763777D01*
X69396357Y-94807651D01*
X69393602Y-94810493D01*
X69373865Y-94830230D01*
X69371385Y-94833427D01*
X69363682Y-94842447D01*
X69333414Y-94874679D01*
X69329595Y-94881625D01*
X69329593Y-94881628D01*
X69323652Y-94892434D01*
X69312801Y-94908953D01*
X69300386Y-94924959D01*
X69297241Y-94932228D01*
X69297238Y-94932232D01*
X69282826Y-94965537D01*
X69277609Y-94976187D01*
X69256305Y-95014940D01*
X69254334Y-95022615D01*
X69254334Y-95022616D01*
X69251267Y-95034562D01*
X69244863Y-95053266D01*
X69236819Y-95071855D01*
X69235580Y-95079678D01*
X69235577Y-95079688D01*
X69229901Y-95115524D01*
X69227495Y-95127144D01*
X69216500Y-95169970D01*
X69216500Y-95190224D01*
X69214949Y-95209934D01*
X69211780Y-95229943D01*
X69212526Y-95237835D01*
X69215941Y-95273961D01*
X69216500Y-95285819D01*
X69216500Y-97087476D01*
X69196498Y-97155597D01*
X69184142Y-97171779D01*
X69110960Y-97253056D01*
X69015473Y-97418444D01*
X68956458Y-97600072D01*
X68955768Y-97606633D01*
X68955768Y-97606635D01*
X68942743Y-97730562D01*
X68936496Y-97790000D01*
X52163156Y-97790000D01*
X52144852Y-97567361D01*
X52090431Y-97350702D01*
X52001354Y-97145840D01*
X51943845Y-97056944D01*
X51882822Y-96962617D01*
X51882820Y-96962614D01*
X51880014Y-96958277D01*
X51729670Y-96793051D01*
X51725619Y-96789852D01*
X51725615Y-96789848D01*
X51558414Y-96657800D01*
X51558410Y-96657798D01*
X51554359Y-96654598D01*
X51513053Y-96631796D01*
X51463084Y-96581364D01*
X51448312Y-96511921D01*
X51473428Y-96445516D01*
X51500780Y-96418909D01*
X51544603Y-96387650D01*
X51679860Y-96291173D01*
X51686256Y-96284800D01*
X51800863Y-96170592D01*
X51838096Y-96133489D01*
X51847670Y-96120166D01*
X51965435Y-95956277D01*
X51968453Y-95952077D01*
X51978006Y-95932749D01*
X52065136Y-95756453D01*
X52065137Y-95756451D01*
X52067430Y-95751811D01*
X52132370Y-95538069D01*
X52161529Y-95316590D01*
X52162281Y-95285819D01*
X52163074Y-95253365D01*
X52163074Y-95253361D01*
X52163156Y-95250000D01*
X52144852Y-95027361D01*
X52090431Y-94810702D01*
X52001354Y-94605840D01*
X51952737Y-94530689D01*
X51882822Y-94422617D01*
X51882820Y-94422614D01*
X51880014Y-94418277D01*
X51729670Y-94253051D01*
X51725619Y-94249852D01*
X51725615Y-94249848D01*
X51558414Y-94117800D01*
X51558410Y-94117798D01*
X51554359Y-94114598D01*
X51513053Y-94091796D01*
X51463084Y-94041364D01*
X51448312Y-93971921D01*
X51473428Y-93905516D01*
X51500780Y-93878909D01*
X51544603Y-93847650D01*
X51679860Y-93751173D01*
X51838096Y-93593489D01*
X51897594Y-93510689D01*
X51965435Y-93416277D01*
X51968453Y-93412077D01*
X52067430Y-93211811D01*
X52132370Y-92998069D01*
X52161529Y-92776590D01*
X52163156Y-92710000D01*
X52155757Y-92620000D01*
X63506693Y-92620000D01*
X63525885Y-92839371D01*
X63582880Y-93052076D01*
X63615512Y-93122055D01*
X63673618Y-93246666D01*
X63673621Y-93246671D01*
X63675944Y-93251653D01*
X63679100Y-93256160D01*
X63679101Y-93256162D01*
X63714030Y-93306045D01*
X63802251Y-93432038D01*
X63957962Y-93587749D01*
X63962471Y-93590906D01*
X63962473Y-93590908D01*
X63971369Y-93597137D01*
X64138346Y-93714056D01*
X64337924Y-93807120D01*
X64550629Y-93864115D01*
X64770000Y-93883307D01*
X64989371Y-93864115D01*
X65202076Y-93807120D01*
X65401654Y-93714056D01*
X65568631Y-93597137D01*
X65577527Y-93590908D01*
X65577529Y-93590906D01*
X65582038Y-93587749D01*
X65737749Y-93432038D01*
X65825971Y-93306045D01*
X65860899Y-93256162D01*
X65860900Y-93256160D01*
X65864056Y-93251653D01*
X65866379Y-93246671D01*
X65866382Y-93246666D01*
X65924488Y-93122055D01*
X65957120Y-93052076D01*
X66014115Y-92839371D01*
X66033307Y-92620000D01*
X66014115Y-92400629D01*
X65957120Y-92187924D01*
X65913585Y-92094562D01*
X65866382Y-91993334D01*
X65866379Y-91993329D01*
X65864056Y-91988347D01*
X65786984Y-91878277D01*
X65740908Y-91812473D01*
X65740906Y-91812470D01*
X65737749Y-91807962D01*
X65582038Y-91652251D01*
X65401654Y-91525944D01*
X65202076Y-91432880D01*
X64989371Y-91375885D01*
X64770000Y-91356693D01*
X64550629Y-91375885D01*
X64337924Y-91432880D01*
X64294011Y-91453357D01*
X64143334Y-91523618D01*
X64143329Y-91523621D01*
X64138347Y-91525944D01*
X64133840Y-91529100D01*
X64133838Y-91529101D01*
X63962473Y-91649092D01*
X63962470Y-91649094D01*
X63957962Y-91652251D01*
X63802251Y-91807962D01*
X63799094Y-91812470D01*
X63799092Y-91812473D01*
X63753016Y-91878277D01*
X63675944Y-91988347D01*
X63673621Y-91993329D01*
X63673618Y-91993334D01*
X63626415Y-92094562D01*
X63582880Y-92187924D01*
X63525885Y-92400629D01*
X63506693Y-92620000D01*
X52155757Y-92620000D01*
X52144852Y-92487361D01*
X52090431Y-92270702D01*
X52001354Y-92065840D01*
X51943845Y-91976944D01*
X51882822Y-91882617D01*
X51882820Y-91882614D01*
X51880014Y-91878277D01*
X51729670Y-91713051D01*
X51725619Y-91709852D01*
X51725615Y-91709848D01*
X51558414Y-91577800D01*
X51558410Y-91577798D01*
X51554359Y-91574598D01*
X51513053Y-91551796D01*
X51463084Y-91501364D01*
X51448312Y-91431921D01*
X51473428Y-91365516D01*
X51500780Y-91338909D01*
X51544603Y-91307650D01*
X51679860Y-91211173D01*
X51838096Y-91053489D01*
X51897594Y-90970689D01*
X51965435Y-90876277D01*
X51968453Y-90872077D01*
X51978267Y-90852221D01*
X52065136Y-90676453D01*
X52065137Y-90676451D01*
X52067430Y-90671811D01*
X52132370Y-90458069D01*
X52161529Y-90236590D01*
X52163156Y-90170000D01*
X52144852Y-89947361D01*
X52090431Y-89730702D01*
X52001354Y-89525840D01*
X51880014Y-89338277D01*
X51729670Y-89173051D01*
X51725619Y-89169852D01*
X51725615Y-89169848D01*
X51558414Y-89037800D01*
X51558410Y-89037798D01*
X51554359Y-89034598D01*
X51513053Y-89011796D01*
X51463084Y-88961364D01*
X51448312Y-88891921D01*
X51473428Y-88825516D01*
X51500780Y-88798909D01*
X51544603Y-88767650D01*
X51679860Y-88671173D01*
X51838096Y-88513489D01*
X51897594Y-88430689D01*
X51965435Y-88336277D01*
X51968453Y-88332077D01*
X51978267Y-88312221D01*
X52065136Y-88136453D01*
X52065137Y-88136451D01*
X52067430Y-88131811D01*
X52118208Y-87964681D01*
X52130865Y-87923023D01*
X52130865Y-87923021D01*
X52132370Y-87918069D01*
X52155814Y-87740000D01*
X63506693Y-87740000D01*
X63525885Y-87959371D01*
X63582880Y-88172076D01*
X63625933Y-88264403D01*
X63673618Y-88366666D01*
X63673621Y-88366671D01*
X63675944Y-88371653D01*
X63679100Y-88376160D01*
X63679101Y-88376162D01*
X63775259Y-88513489D01*
X63802251Y-88552038D01*
X63957962Y-88707749D01*
X64138346Y-88834056D01*
X64337924Y-88927120D01*
X64550629Y-88984115D01*
X64770000Y-89003307D01*
X64989371Y-88984115D01*
X65202076Y-88927120D01*
X65401654Y-88834056D01*
X65582038Y-88707749D01*
X65737749Y-88552038D01*
X65764742Y-88513489D01*
X65860899Y-88376162D01*
X65860900Y-88376160D01*
X65864056Y-88371653D01*
X65866379Y-88366671D01*
X65866382Y-88366666D01*
X65914067Y-88264403D01*
X65957120Y-88172076D01*
X66014115Y-87959371D01*
X66033307Y-87740000D01*
X66014115Y-87520629D01*
X65957120Y-87307924D01*
X65885629Y-87154610D01*
X65866382Y-87113334D01*
X65866379Y-87113329D01*
X65864056Y-87108347D01*
X65757413Y-86956045D01*
X65740908Y-86932473D01*
X65740906Y-86932470D01*
X65737749Y-86927962D01*
X65582038Y-86772251D01*
X65566265Y-86761206D01*
X65502759Y-86716739D01*
X65401654Y-86645944D01*
X65202076Y-86552880D01*
X64989371Y-86495885D01*
X64770000Y-86476693D01*
X64550629Y-86495885D01*
X64337924Y-86552880D01*
X64244562Y-86596415D01*
X64143334Y-86643618D01*
X64143329Y-86643621D01*
X64138347Y-86645944D01*
X64133840Y-86649100D01*
X64133838Y-86649101D01*
X63962473Y-86769092D01*
X63962470Y-86769094D01*
X63957962Y-86772251D01*
X63802251Y-86927962D01*
X63799094Y-86932470D01*
X63799092Y-86932473D01*
X63782587Y-86956045D01*
X63675944Y-87108347D01*
X63673621Y-87113329D01*
X63673618Y-87113334D01*
X63654371Y-87154610D01*
X63582880Y-87307924D01*
X63525885Y-87520629D01*
X63506693Y-87740000D01*
X52155814Y-87740000D01*
X52161529Y-87696590D01*
X52163156Y-87630000D01*
X52144852Y-87407361D01*
X52090431Y-87190702D01*
X52001354Y-86985840D01*
X51961390Y-86924065D01*
X51882822Y-86802617D01*
X51882820Y-86802614D01*
X51880014Y-86798277D01*
X51729670Y-86633051D01*
X51725619Y-86629852D01*
X51725615Y-86629848D01*
X51558414Y-86497800D01*
X51558410Y-86497798D01*
X51554359Y-86494598D01*
X51513053Y-86471796D01*
X51463084Y-86421364D01*
X51448312Y-86351921D01*
X51473428Y-86285516D01*
X51500780Y-86258909D01*
X51544603Y-86227650D01*
X51679860Y-86131173D01*
X51838096Y-85973489D01*
X51847670Y-85960166D01*
X51965435Y-85796277D01*
X51968453Y-85792077D01*
X51973650Y-85781563D01*
X52065136Y-85596453D01*
X52065137Y-85596451D01*
X52067430Y-85591811D01*
X52132370Y-85378069D01*
X52161529Y-85156590D01*
X52163156Y-85090000D01*
X72746496Y-85090000D01*
X72747186Y-85096565D01*
X72753844Y-85159908D01*
X72766458Y-85279928D01*
X72825473Y-85461556D01*
X72828776Y-85467278D01*
X72828777Y-85467279D01*
X72849069Y-85502425D01*
X72920960Y-85626944D01*
X73048747Y-85768866D01*
X73203248Y-85881118D01*
X73209276Y-85883802D01*
X73209278Y-85883803D01*
X73234625Y-85895088D01*
X73377712Y-85958794D01*
X73464009Y-85977137D01*
X73558056Y-85997128D01*
X73558061Y-85997128D01*
X73564513Y-85998500D01*
X73755487Y-85998500D01*
X73761939Y-85997128D01*
X73761944Y-85997128D01*
X73855991Y-85977137D01*
X73942288Y-85958794D01*
X74085375Y-85895088D01*
X74110722Y-85883803D01*
X74110724Y-85883802D01*
X74116752Y-85881118D01*
X74220940Y-85805421D01*
X74287806Y-85781563D01*
X74356958Y-85797643D01*
X74369056Y-85805418D01*
X74473248Y-85881118D01*
X74479276Y-85883802D01*
X74479278Y-85883803D01*
X74504625Y-85895088D01*
X74647712Y-85958794D01*
X74734009Y-85977137D01*
X74828056Y-85997128D01*
X74828061Y-85997128D01*
X74834513Y-85998500D01*
X75025487Y-85998500D01*
X75031939Y-85997128D01*
X75031944Y-85997128D01*
X75125991Y-85977137D01*
X75212288Y-85958794D01*
X75355375Y-85895088D01*
X75380722Y-85883803D01*
X75380724Y-85883802D01*
X75386752Y-85881118D01*
X75490940Y-85805421D01*
X75557806Y-85781563D01*
X75626958Y-85797643D01*
X75639056Y-85805418D01*
X75743248Y-85881118D01*
X75749276Y-85883802D01*
X75749278Y-85883803D01*
X75774625Y-85895088D01*
X75917712Y-85958794D01*
X76004009Y-85977137D01*
X76098056Y-85997128D01*
X76098061Y-85997128D01*
X76104513Y-85998500D01*
X76295487Y-85998500D01*
X76301939Y-85997128D01*
X76301944Y-85997128D01*
X76395991Y-85977137D01*
X76482288Y-85958794D01*
X76625375Y-85895088D01*
X76650722Y-85883803D01*
X76650724Y-85883802D01*
X76656752Y-85881118D01*
X76811253Y-85768866D01*
X76939040Y-85626944D01*
X77010931Y-85502425D01*
X77031223Y-85467279D01*
X77031224Y-85467278D01*
X77034527Y-85461556D01*
X77093542Y-85279928D01*
X77106157Y-85159908D01*
X77112814Y-85096565D01*
X77113504Y-85090000D01*
X100686496Y-85090000D01*
X100687186Y-85096565D01*
X100693844Y-85159908D01*
X100706458Y-85279928D01*
X100765473Y-85461556D01*
X100768776Y-85467278D01*
X100768777Y-85467279D01*
X100789069Y-85502425D01*
X100860960Y-85626944D01*
X100988747Y-85768866D01*
X101143248Y-85881118D01*
X101149276Y-85883802D01*
X101149278Y-85883803D01*
X101174625Y-85895088D01*
X101317712Y-85958794D01*
X101404009Y-85977137D01*
X101498056Y-85997128D01*
X101498061Y-85997128D01*
X101504513Y-85998500D01*
X101695487Y-85998500D01*
X101701939Y-85997128D01*
X101701944Y-85997128D01*
X101795991Y-85977137D01*
X101882288Y-85958794D01*
X102025375Y-85895088D01*
X102050722Y-85883803D01*
X102050724Y-85883802D01*
X102056752Y-85881118D01*
X102211253Y-85768866D01*
X102339040Y-85626944D01*
X102410931Y-85502425D01*
X102431223Y-85467279D01*
X102431224Y-85467278D01*
X102434527Y-85461556D01*
X102493542Y-85279928D01*
X102506157Y-85159908D01*
X102512814Y-85096565D01*
X102513504Y-85090000D01*
X102493542Y-84900072D01*
X102434527Y-84718444D01*
X102339040Y-84553056D01*
X102323162Y-84535421D01*
X102215675Y-84416045D01*
X102215674Y-84416044D01*
X102211253Y-84411134D01*
X102056752Y-84298882D01*
X102050724Y-84296198D01*
X102050722Y-84296197D01*
X101888319Y-84223891D01*
X101888318Y-84223891D01*
X101882288Y-84221206D01*
X101769721Y-84197279D01*
X101701944Y-84182872D01*
X101701939Y-84182872D01*
X101695487Y-84181500D01*
X101504513Y-84181500D01*
X101498061Y-84182872D01*
X101498056Y-84182872D01*
X101430279Y-84197279D01*
X101317712Y-84221206D01*
X101311682Y-84223891D01*
X101311681Y-84223891D01*
X101149278Y-84296197D01*
X101149276Y-84296198D01*
X101143248Y-84298882D01*
X100988747Y-84411134D01*
X100984326Y-84416044D01*
X100984325Y-84416045D01*
X100876839Y-84535421D01*
X100860960Y-84553056D01*
X100765473Y-84718444D01*
X100706458Y-84900072D01*
X100686496Y-85090000D01*
X77113504Y-85090000D01*
X77093542Y-84900072D01*
X77034527Y-84718444D01*
X76939040Y-84553056D01*
X76923162Y-84535421D01*
X76815675Y-84416045D01*
X76815674Y-84416044D01*
X76811253Y-84411134D01*
X76656752Y-84298882D01*
X76650724Y-84296198D01*
X76650722Y-84296197D01*
X76488319Y-84223891D01*
X76488318Y-84223891D01*
X76482288Y-84221206D01*
X76369721Y-84197279D01*
X76301944Y-84182872D01*
X76301939Y-84182872D01*
X76295487Y-84181500D01*
X76104513Y-84181500D01*
X76098061Y-84182872D01*
X76098056Y-84182872D01*
X76030279Y-84197279D01*
X75917712Y-84221206D01*
X75911682Y-84223891D01*
X75911681Y-84223891D01*
X75749278Y-84296197D01*
X75749276Y-84296198D01*
X75743248Y-84298882D01*
X75639060Y-84374579D01*
X75572194Y-84398437D01*
X75503042Y-84382357D01*
X75490944Y-84374582D01*
X75386752Y-84298882D01*
X75380724Y-84296198D01*
X75380722Y-84296197D01*
X75218319Y-84223891D01*
X75218318Y-84223891D01*
X75212288Y-84221206D01*
X75099721Y-84197279D01*
X75031944Y-84182872D01*
X75031939Y-84182872D01*
X75025487Y-84181500D01*
X74834513Y-84181500D01*
X74828061Y-84182872D01*
X74828056Y-84182872D01*
X74760279Y-84197279D01*
X74647712Y-84221206D01*
X74641682Y-84223891D01*
X74641681Y-84223891D01*
X74479278Y-84296197D01*
X74479276Y-84296198D01*
X74473248Y-84298882D01*
X74369060Y-84374579D01*
X74302194Y-84398437D01*
X74233042Y-84382357D01*
X74220944Y-84374582D01*
X74116752Y-84298882D01*
X74110724Y-84296198D01*
X74110722Y-84296197D01*
X73948319Y-84223891D01*
X73948318Y-84223891D01*
X73942288Y-84221206D01*
X73829721Y-84197279D01*
X73761944Y-84182872D01*
X73761939Y-84182872D01*
X73755487Y-84181500D01*
X73564513Y-84181500D01*
X73558061Y-84182872D01*
X73558056Y-84182872D01*
X73490279Y-84197279D01*
X73377712Y-84221206D01*
X73371682Y-84223891D01*
X73371681Y-84223891D01*
X73209278Y-84296197D01*
X73209276Y-84296198D01*
X73203248Y-84298882D01*
X73048747Y-84411134D01*
X73044326Y-84416044D01*
X73044325Y-84416045D01*
X72936839Y-84535421D01*
X72920960Y-84553056D01*
X72825473Y-84718444D01*
X72766458Y-84900072D01*
X72746496Y-85090000D01*
X52163156Y-85090000D01*
X52144852Y-84867361D01*
X52090431Y-84650702D01*
X52001354Y-84445840D01*
X51943845Y-84356944D01*
X51882822Y-84262617D01*
X51882820Y-84262614D01*
X51880014Y-84258277D01*
X51729670Y-84093051D01*
X51725619Y-84089852D01*
X51725615Y-84089848D01*
X51558414Y-83957800D01*
X51558410Y-83957798D01*
X51554359Y-83954598D01*
X51513053Y-83931796D01*
X51463084Y-83881364D01*
X51448312Y-83811921D01*
X51473428Y-83745516D01*
X51500780Y-83718909D01*
X51544603Y-83687650D01*
X51679860Y-83591173D01*
X51838096Y-83433489D01*
X51897594Y-83350689D01*
X51965435Y-83256277D01*
X51968453Y-83252077D01*
X52001605Y-83185000D01*
X52065136Y-83056453D01*
X52065137Y-83056451D01*
X52067430Y-83051811D01*
X52132370Y-82838069D01*
X52161529Y-82616590D01*
X52163156Y-82550000D01*
X52144852Y-82327361D01*
X52090431Y-82110702D01*
X52001354Y-81905840D01*
X51943845Y-81816944D01*
X51882822Y-81722617D01*
X51882820Y-81722614D01*
X51880014Y-81718277D01*
X51729670Y-81553051D01*
X51725619Y-81549852D01*
X51725615Y-81549848D01*
X51558414Y-81417800D01*
X51558410Y-81417798D01*
X51554359Y-81414598D01*
X51513053Y-81391796D01*
X51463084Y-81341364D01*
X51450031Y-81280000D01*
X71476496Y-81280000D01*
X71477186Y-81286565D01*
X71490381Y-81412104D01*
X71496458Y-81469928D01*
X71555473Y-81651556D01*
X71558776Y-81657278D01*
X71558777Y-81657279D01*
X71578903Y-81692138D01*
X71650960Y-81816944D01*
X71655378Y-81821851D01*
X71655379Y-81821852D01*
X71774325Y-81953955D01*
X71778747Y-81958866D01*
X71933248Y-82071118D01*
X71939276Y-82073802D01*
X71939278Y-82073803D01*
X72033426Y-82115720D01*
X72107712Y-82148794D01*
X72201112Y-82168647D01*
X72288056Y-82187128D01*
X72288061Y-82187128D01*
X72294513Y-82188500D01*
X72350406Y-82188500D01*
X72418527Y-82208502D01*
X72439501Y-82225405D01*
X73156343Y-82942247D01*
X73163887Y-82950537D01*
X73168000Y-82957018D01*
X73173777Y-82962443D01*
X73217667Y-83003658D01*
X73220509Y-83006413D01*
X73240230Y-83026134D01*
X73243425Y-83028612D01*
X73252447Y-83036318D01*
X73284679Y-83066586D01*
X73291628Y-83070406D01*
X73302432Y-83076346D01*
X73318956Y-83087199D01*
X73334959Y-83099613D01*
X73375543Y-83117176D01*
X73386173Y-83122383D01*
X73424940Y-83143695D01*
X73432617Y-83145666D01*
X73432622Y-83145668D01*
X73444558Y-83148732D01*
X73463266Y-83155137D01*
X73481855Y-83163181D01*
X73489683Y-83164421D01*
X73489690Y-83164423D01*
X73525524Y-83170099D01*
X73537144Y-83172505D01*
X73572289Y-83181528D01*
X73579970Y-83183500D01*
X73600224Y-83183500D01*
X73619934Y-83185051D01*
X73639943Y-83188220D01*
X73647835Y-83187474D01*
X73683961Y-83184059D01*
X73695819Y-83183500D01*
X90540200Y-83183500D01*
X90608321Y-83203502D01*
X90654814Y-83257158D01*
X90664918Y-83327432D01*
X90649319Y-83372500D01*
X90605473Y-83448444D01*
X90546458Y-83630072D01*
X90526496Y-83820000D01*
X90527186Y-83826565D01*
X90540381Y-83952104D01*
X90546458Y-84009928D01*
X90605473Y-84191556D01*
X90608776Y-84197278D01*
X90608777Y-84197279D01*
X90628903Y-84232138D01*
X90700960Y-84356944D01*
X90705378Y-84361851D01*
X90705379Y-84361852D01*
X90754175Y-84416045D01*
X90828747Y-84498866D01*
X90983248Y-84611118D01*
X90989276Y-84613802D01*
X90989278Y-84613803D01*
X91083426Y-84655720D01*
X91157712Y-84688794D01*
X91251113Y-84708647D01*
X91338056Y-84727128D01*
X91338061Y-84727128D01*
X91344513Y-84728500D01*
X91535487Y-84728500D01*
X91541939Y-84727128D01*
X91541944Y-84727128D01*
X91628887Y-84708647D01*
X91722288Y-84688794D01*
X91796574Y-84655720D01*
X91890722Y-84613803D01*
X91890724Y-84613802D01*
X91896752Y-84611118D01*
X92000940Y-84535421D01*
X92067806Y-84511563D01*
X92136958Y-84527643D01*
X92149056Y-84535418D01*
X92253248Y-84611118D01*
X92259276Y-84613802D01*
X92259278Y-84613803D01*
X92353426Y-84655720D01*
X92427712Y-84688794D01*
X92521113Y-84708647D01*
X92608056Y-84727128D01*
X92608061Y-84727128D01*
X92614513Y-84728500D01*
X92805487Y-84728500D01*
X92811939Y-84727128D01*
X92811944Y-84727128D01*
X92898887Y-84708647D01*
X92992288Y-84688794D01*
X93066574Y-84655720D01*
X93160722Y-84613803D01*
X93160724Y-84613802D01*
X93166752Y-84611118D01*
X93270940Y-84535421D01*
X93337806Y-84511563D01*
X93406958Y-84527643D01*
X93419056Y-84535418D01*
X93523248Y-84611118D01*
X93529276Y-84613802D01*
X93529278Y-84613803D01*
X93623426Y-84655720D01*
X93697712Y-84688794D01*
X93791113Y-84708647D01*
X93878056Y-84727128D01*
X93878061Y-84727128D01*
X93884513Y-84728500D01*
X94075487Y-84728500D01*
X94081939Y-84727128D01*
X94081944Y-84727128D01*
X94168887Y-84708647D01*
X94262288Y-84688794D01*
X94336574Y-84655720D01*
X94430722Y-84613803D01*
X94430724Y-84613802D01*
X94436752Y-84611118D01*
X94591253Y-84498866D01*
X94665825Y-84416045D01*
X94714621Y-84361852D01*
X94714622Y-84361851D01*
X94719040Y-84356944D01*
X94791097Y-84232138D01*
X94811223Y-84197279D01*
X94811224Y-84197278D01*
X94814527Y-84191556D01*
X94873542Y-84009928D01*
X94879620Y-83952104D01*
X94892814Y-83826565D01*
X94893504Y-83820000D01*
X94873542Y-83630072D01*
X94814527Y-83448444D01*
X94719040Y-83283056D01*
X94706662Y-83269309D01*
X94675946Y-83205303D01*
X94684710Y-83134850D01*
X94706661Y-83100693D01*
X94719040Y-83086944D01*
X94790931Y-82962425D01*
X94811223Y-82927279D01*
X94811224Y-82927278D01*
X94814527Y-82921556D01*
X94873542Y-82739928D01*
X94886157Y-82619908D01*
X94892814Y-82556565D01*
X94893504Y-82550000D01*
X94873542Y-82360072D01*
X94814527Y-82178444D01*
X94719040Y-82013056D01*
X94673744Y-81962749D01*
X94595675Y-81876045D01*
X94595674Y-81876044D01*
X94591253Y-81871134D01*
X94436752Y-81758882D01*
X94430724Y-81756198D01*
X94430722Y-81756197D01*
X94268319Y-81683891D01*
X94268318Y-81683891D01*
X94262288Y-81681206D01*
X94149721Y-81657279D01*
X94081944Y-81642872D01*
X94081939Y-81642872D01*
X94075487Y-81641500D01*
X94019595Y-81641500D01*
X93951474Y-81621498D01*
X93930500Y-81604595D01*
X92110405Y-79784500D01*
X92076379Y-79722188D01*
X92073500Y-79695405D01*
X92073500Y-71822524D01*
X92093502Y-71754403D01*
X92105858Y-71738221D01*
X92179040Y-71656944D01*
X92251097Y-71532138D01*
X92271223Y-71497279D01*
X92271224Y-71497278D01*
X92274527Y-71491556D01*
X92333542Y-71309928D01*
X92339620Y-71252104D01*
X92352814Y-71126565D01*
X92353504Y-71120000D01*
X93066496Y-71120000D01*
X93067186Y-71126565D01*
X93080381Y-71252104D01*
X93086458Y-71309928D01*
X93145473Y-71491556D01*
X93148776Y-71497278D01*
X93148777Y-71497279D01*
X93168903Y-71532138D01*
X93240960Y-71656944D01*
X93245375Y-71661847D01*
X93245379Y-71661852D01*
X93294746Y-71716680D01*
X93368747Y-71798866D01*
X93523248Y-71911118D01*
X93529276Y-71913802D01*
X93529278Y-71913803D01*
X93665764Y-71974570D01*
X93697712Y-71988794D01*
X93791112Y-72008647D01*
X93878056Y-72027128D01*
X93878061Y-72027128D01*
X93884513Y-72028500D01*
X94075487Y-72028500D01*
X94081939Y-72027128D01*
X94081944Y-72027128D01*
X94168888Y-72008647D01*
X94262288Y-71988794D01*
X94294236Y-71974570D01*
X94430722Y-71913803D01*
X94430724Y-71913802D01*
X94436752Y-71911118D01*
X94591253Y-71798866D01*
X94665254Y-71716680D01*
X94714621Y-71661852D01*
X94714625Y-71661847D01*
X94719040Y-71656944D01*
X94791097Y-71532138D01*
X94811223Y-71497279D01*
X94811224Y-71497278D01*
X94814527Y-71491556D01*
X94873542Y-71309928D01*
X94879620Y-71252104D01*
X94892814Y-71126565D01*
X94893504Y-71120000D01*
X94873542Y-70930072D01*
X94814527Y-70748444D01*
X94719040Y-70583056D01*
X94691147Y-70552077D01*
X94595675Y-70446045D01*
X94595674Y-70446044D01*
X94591253Y-70441134D01*
X94468311Y-70351811D01*
X94442094Y-70332763D01*
X94442093Y-70332762D01*
X94436752Y-70328882D01*
X94430724Y-70326198D01*
X94430722Y-70326197D01*
X94268319Y-70253891D01*
X94268318Y-70253891D01*
X94262288Y-70251206D01*
X94168888Y-70231353D01*
X94081944Y-70212872D01*
X94081939Y-70212872D01*
X94075487Y-70211500D01*
X93884513Y-70211500D01*
X93878061Y-70212872D01*
X93878056Y-70212872D01*
X93791112Y-70231353D01*
X93697712Y-70251206D01*
X93691682Y-70253891D01*
X93691681Y-70253891D01*
X93529278Y-70326197D01*
X93529276Y-70326198D01*
X93523248Y-70328882D01*
X93517907Y-70332762D01*
X93517906Y-70332763D01*
X93491689Y-70351811D01*
X93368747Y-70441134D01*
X93364326Y-70446044D01*
X93364325Y-70446045D01*
X93268854Y-70552077D01*
X93240960Y-70583056D01*
X93145473Y-70748444D01*
X93086458Y-70930072D01*
X93066496Y-71120000D01*
X92353504Y-71120000D01*
X92333542Y-70930072D01*
X92274527Y-70748444D01*
X92179040Y-70583056D01*
X92151147Y-70552077D01*
X92055675Y-70446045D01*
X92055674Y-70446044D01*
X92051253Y-70441134D01*
X91928311Y-70351811D01*
X91902094Y-70332763D01*
X91902093Y-70332762D01*
X91896752Y-70328882D01*
X91890724Y-70326198D01*
X91890722Y-70326197D01*
X91728319Y-70253891D01*
X91728318Y-70253891D01*
X91722288Y-70251206D01*
X91628888Y-70231353D01*
X91541944Y-70212872D01*
X91541939Y-70212872D01*
X91535487Y-70211500D01*
X91344513Y-70211500D01*
X91338061Y-70212872D01*
X91338056Y-70212872D01*
X91251112Y-70231353D01*
X91157712Y-70251206D01*
X91151682Y-70253891D01*
X91151681Y-70253891D01*
X90989278Y-70326197D01*
X90989276Y-70326198D01*
X90983248Y-70328882D01*
X90977907Y-70332762D01*
X90977906Y-70332763D01*
X90951689Y-70351811D01*
X90828747Y-70441134D01*
X90824326Y-70446044D01*
X90824325Y-70446045D01*
X90728854Y-70552077D01*
X90700960Y-70583056D01*
X90605473Y-70748444D01*
X90546458Y-70930072D01*
X90526496Y-71120000D01*
X90527186Y-71126565D01*
X90540381Y-71252104D01*
X90546458Y-71309928D01*
X90605473Y-71491556D01*
X90608776Y-71497278D01*
X90608777Y-71497279D01*
X90628903Y-71532138D01*
X90700960Y-71656944D01*
X90774137Y-71738215D01*
X90804853Y-71802221D01*
X90806500Y-71822524D01*
X90806500Y-79931233D01*
X90805973Y-79942416D01*
X90804298Y-79949909D01*
X90804547Y-79957835D01*
X90804547Y-79957836D01*
X90806438Y-80017986D01*
X90806500Y-80021945D01*
X90806500Y-80049856D01*
X90806997Y-80053790D01*
X90806997Y-80053791D01*
X90807005Y-80053856D01*
X90807938Y-80065693D01*
X90809327Y-80109889D01*
X90814978Y-80129339D01*
X90818987Y-80148700D01*
X90821526Y-80168797D01*
X90824445Y-80176168D01*
X90824445Y-80176170D01*
X90837804Y-80209912D01*
X90841649Y-80221142D01*
X90853982Y-80263593D01*
X90858015Y-80270412D01*
X90858017Y-80270417D01*
X90864293Y-80281028D01*
X90872988Y-80298776D01*
X90880448Y-80317617D01*
X90885110Y-80324033D01*
X90885110Y-80324034D01*
X90906436Y-80353387D01*
X90912952Y-80363307D01*
X90923745Y-80381556D01*
X90935458Y-80401362D01*
X90949779Y-80415683D01*
X90962619Y-80430716D01*
X90974528Y-80447107D01*
X90980634Y-80452158D01*
X91008605Y-80475298D01*
X91017384Y-80483288D01*
X92235501Y-81701405D01*
X92269527Y-81763717D01*
X92264462Y-81834532D01*
X92221915Y-81891368D01*
X92155395Y-81916179D01*
X92146406Y-81916500D01*
X75829800Y-81916500D01*
X75761679Y-81896498D01*
X75715186Y-81842842D01*
X75705082Y-81772568D01*
X75720681Y-81727500D01*
X75761223Y-81657279D01*
X75761224Y-81657278D01*
X75764527Y-81651556D01*
X75823542Y-81469928D01*
X75829620Y-81412104D01*
X75842814Y-81286565D01*
X75843504Y-81280000D01*
X75823542Y-81090072D01*
X75764527Y-80908444D01*
X75669040Y-80743056D01*
X75641147Y-80712077D01*
X75545675Y-80606045D01*
X75545674Y-80606044D01*
X75541253Y-80601134D01*
X75418311Y-80511811D01*
X75392094Y-80492763D01*
X75392093Y-80492762D01*
X75386752Y-80488882D01*
X75380724Y-80486198D01*
X75380722Y-80486197D01*
X75218319Y-80413891D01*
X75218318Y-80413891D01*
X75212288Y-80411206D01*
X75099721Y-80387279D01*
X75031944Y-80372872D01*
X75031939Y-80372872D01*
X75025487Y-80371500D01*
X74834513Y-80371500D01*
X74828061Y-80372872D01*
X74828056Y-80372872D01*
X74760279Y-80387279D01*
X74647712Y-80411206D01*
X74641682Y-80413891D01*
X74641681Y-80413891D01*
X74479278Y-80486197D01*
X74479276Y-80486198D01*
X74473248Y-80488882D01*
X74467907Y-80492762D01*
X74467906Y-80492763D01*
X74441689Y-80511811D01*
X74318747Y-80601134D01*
X74314326Y-80606044D01*
X74314325Y-80606045D01*
X74218854Y-80712077D01*
X74190960Y-80743056D01*
X74095473Y-80908444D01*
X74036458Y-81090072D01*
X74016496Y-81280000D01*
X74017186Y-81286565D01*
X74030381Y-81412104D01*
X74036458Y-81469928D01*
X74095473Y-81651556D01*
X74098776Y-81657278D01*
X74098777Y-81657279D01*
X74139319Y-81727500D01*
X74156057Y-81796496D01*
X74132836Y-81863587D01*
X74077029Y-81907474D01*
X74030200Y-81916500D01*
X73974595Y-81916500D01*
X73906474Y-81896498D01*
X73885500Y-81879595D01*
X73337122Y-81331217D01*
X73303096Y-81268905D01*
X73300907Y-81255292D01*
X73295676Y-81205516D01*
X73283542Y-81090072D01*
X73224527Y-80908444D01*
X73129040Y-80743056D01*
X73101147Y-80712077D01*
X73005675Y-80606045D01*
X73005674Y-80606044D01*
X73001253Y-80601134D01*
X72878311Y-80511811D01*
X72852094Y-80492763D01*
X72852093Y-80492762D01*
X72846752Y-80488882D01*
X72840724Y-80486198D01*
X72840722Y-80486197D01*
X72678319Y-80413891D01*
X72678318Y-80413891D01*
X72672288Y-80411206D01*
X72559721Y-80387279D01*
X72491944Y-80372872D01*
X72491939Y-80372872D01*
X72485487Y-80371500D01*
X72294513Y-80371500D01*
X72288061Y-80372872D01*
X72288056Y-80372872D01*
X72220279Y-80387279D01*
X72107712Y-80411206D01*
X72101682Y-80413891D01*
X72101681Y-80413891D01*
X71939278Y-80486197D01*
X71939276Y-80486198D01*
X71933248Y-80488882D01*
X71927907Y-80492762D01*
X71927906Y-80492763D01*
X71901689Y-80511811D01*
X71778747Y-80601134D01*
X71774326Y-80606044D01*
X71774325Y-80606045D01*
X71678854Y-80712077D01*
X71650960Y-80743056D01*
X71555473Y-80908444D01*
X71496458Y-81090072D01*
X71476496Y-81280000D01*
X51450031Y-81280000D01*
X51448312Y-81271921D01*
X51473428Y-81205516D01*
X51500780Y-81178909D01*
X51544603Y-81147650D01*
X51679860Y-81051173D01*
X51838096Y-80893489D01*
X51847670Y-80880166D01*
X51965435Y-80716277D01*
X51968453Y-80712077D01*
X51978006Y-80692749D01*
X52065136Y-80516453D01*
X52065137Y-80516451D01*
X52067430Y-80511811D01*
X52132370Y-80298069D01*
X52161529Y-80076590D01*
X52161940Y-80059760D01*
X52163074Y-80013365D01*
X52163074Y-80013361D01*
X52163156Y-80010000D01*
X86716496Y-80010000D01*
X86717186Y-80016565D01*
X86723844Y-80079908D01*
X86736458Y-80199928D01*
X86795473Y-80381556D01*
X86798776Y-80387278D01*
X86798777Y-80387279D01*
X86819069Y-80422425D01*
X86890960Y-80546944D01*
X86895378Y-80551851D01*
X86895379Y-80551852D01*
X86939753Y-80601134D01*
X87018747Y-80688866D01*
X87173248Y-80801118D01*
X87179276Y-80803802D01*
X87179278Y-80803803D01*
X87204625Y-80815088D01*
X87347712Y-80878794D01*
X87434009Y-80897137D01*
X87528056Y-80917128D01*
X87528061Y-80917128D01*
X87534513Y-80918500D01*
X87725487Y-80918500D01*
X87731939Y-80917128D01*
X87731944Y-80917128D01*
X87825991Y-80897137D01*
X87912288Y-80878794D01*
X88055375Y-80815088D01*
X88080722Y-80803803D01*
X88080724Y-80803802D01*
X88086752Y-80801118D01*
X88241253Y-80688866D01*
X88320247Y-80601134D01*
X88364621Y-80551852D01*
X88364622Y-80551851D01*
X88369040Y-80546944D01*
X88440931Y-80422425D01*
X88461223Y-80387279D01*
X88461224Y-80387278D01*
X88464527Y-80381556D01*
X88523542Y-80199928D01*
X88536157Y-80079908D01*
X88542814Y-80016565D01*
X88543504Y-80010000D01*
X88523542Y-79820072D01*
X88464527Y-79638444D01*
X88369040Y-79473056D01*
X88272503Y-79365840D01*
X88245675Y-79336045D01*
X88245674Y-79336044D01*
X88241253Y-79331134D01*
X88086752Y-79218882D01*
X88080724Y-79216198D01*
X88080722Y-79216197D01*
X87918319Y-79143891D01*
X87918318Y-79143891D01*
X87912288Y-79141206D01*
X87818887Y-79121353D01*
X87731944Y-79102872D01*
X87731939Y-79102872D01*
X87725487Y-79101500D01*
X87534513Y-79101500D01*
X87528061Y-79102872D01*
X87528056Y-79102872D01*
X87441113Y-79121353D01*
X87347712Y-79141206D01*
X87341682Y-79143891D01*
X87341681Y-79143891D01*
X87179278Y-79216197D01*
X87179276Y-79216198D01*
X87173248Y-79218882D01*
X87018747Y-79331134D01*
X87014326Y-79336044D01*
X87014325Y-79336045D01*
X86987498Y-79365840D01*
X86890960Y-79473056D01*
X86795473Y-79638444D01*
X86736458Y-79820072D01*
X86716496Y-80010000D01*
X52163156Y-80010000D01*
X52144852Y-79787361D01*
X52090431Y-79570702D01*
X52001354Y-79365840D01*
X51961906Y-79304862D01*
X51882822Y-79182617D01*
X51882820Y-79182614D01*
X51880014Y-79178277D01*
X51729670Y-79013051D01*
X51725619Y-79009852D01*
X51725615Y-79009848D01*
X51558414Y-78877800D01*
X51558410Y-78877798D01*
X51554359Y-78874598D01*
X51513053Y-78851796D01*
X51463084Y-78801364D01*
X51448312Y-78731921D01*
X51473428Y-78665516D01*
X51500780Y-78638909D01*
X51544603Y-78607650D01*
X51679860Y-78511173D01*
X51838096Y-78353489D01*
X51847670Y-78340166D01*
X51965435Y-78176277D01*
X51968453Y-78172077D01*
X51978006Y-78152749D01*
X52065136Y-77976453D01*
X52065137Y-77976451D01*
X52067430Y-77971811D01*
X52132370Y-77758069D01*
X52161529Y-77536590D01*
X52163156Y-77470000D01*
X87986496Y-77470000D01*
X87987186Y-77476565D01*
X87993844Y-77539908D01*
X88006458Y-77659928D01*
X88065473Y-77841556D01*
X88068776Y-77847278D01*
X88068777Y-77847279D01*
X88089069Y-77882425D01*
X88160960Y-78006944D01*
X88288747Y-78148866D01*
X88443248Y-78261118D01*
X88449276Y-78263802D01*
X88449278Y-78263803D01*
X88474625Y-78275088D01*
X88617712Y-78338794D01*
X88704009Y-78357137D01*
X88798056Y-78377128D01*
X88798061Y-78377128D01*
X88804513Y-78378500D01*
X88995487Y-78378500D01*
X89001939Y-78377128D01*
X89001944Y-78377128D01*
X89095991Y-78357137D01*
X89182288Y-78338794D01*
X89325375Y-78275088D01*
X89350722Y-78263803D01*
X89350724Y-78263802D01*
X89356752Y-78261118D01*
X89511253Y-78148866D01*
X89639040Y-78006944D01*
X89710931Y-77882425D01*
X89731223Y-77847279D01*
X89731224Y-77847278D01*
X89734527Y-77841556D01*
X89793542Y-77659928D01*
X89806157Y-77539908D01*
X89812814Y-77476565D01*
X89813504Y-77470000D01*
X89793542Y-77280072D01*
X89734527Y-77098444D01*
X89639040Y-76933056D01*
X89593744Y-76882749D01*
X89515675Y-76796045D01*
X89515674Y-76796044D01*
X89511253Y-76791134D01*
X89356752Y-76678882D01*
X89350724Y-76676198D01*
X89350722Y-76676197D01*
X89188319Y-76603891D01*
X89188318Y-76603891D01*
X89182288Y-76601206D01*
X89069721Y-76577279D01*
X89001944Y-76562872D01*
X89001939Y-76562872D01*
X88995487Y-76561500D01*
X88804513Y-76561500D01*
X88798061Y-76562872D01*
X88798056Y-76562872D01*
X88730279Y-76577279D01*
X88617712Y-76601206D01*
X88611682Y-76603891D01*
X88611681Y-76603891D01*
X88449278Y-76676197D01*
X88449276Y-76676198D01*
X88443248Y-76678882D01*
X88288747Y-76791134D01*
X88284326Y-76796044D01*
X88284325Y-76796045D01*
X88206257Y-76882749D01*
X88160960Y-76933056D01*
X88065473Y-77098444D01*
X88006458Y-77280072D01*
X87986496Y-77470000D01*
X52163156Y-77470000D01*
X52144852Y-77247361D01*
X52090431Y-77030702D01*
X52001354Y-76825840D01*
X51943845Y-76736944D01*
X51882822Y-76642617D01*
X51882820Y-76642614D01*
X51880014Y-76638277D01*
X51729670Y-76473051D01*
X51725619Y-76469852D01*
X51725615Y-76469848D01*
X51558414Y-76337800D01*
X51558410Y-76337798D01*
X51554359Y-76334598D01*
X51513053Y-76311796D01*
X51463084Y-76261364D01*
X51450031Y-76200000D01*
X82906496Y-76200000D01*
X82907186Y-76206565D01*
X82920381Y-76332104D01*
X82926458Y-76389928D01*
X82985473Y-76571556D01*
X82988776Y-76577278D01*
X82988777Y-76577279D01*
X83008903Y-76612138D01*
X83080960Y-76736944D01*
X83085378Y-76741851D01*
X83085379Y-76741852D01*
X83134175Y-76796045D01*
X83208747Y-76878866D01*
X83363248Y-76991118D01*
X83369276Y-76993802D01*
X83369278Y-76993803D01*
X83463426Y-77035720D01*
X83537712Y-77068794D01*
X83631113Y-77088647D01*
X83718056Y-77107128D01*
X83718061Y-77107128D01*
X83724513Y-77108500D01*
X83915487Y-77108500D01*
X83921939Y-77107128D01*
X83921944Y-77107128D01*
X84008887Y-77088647D01*
X84102288Y-77068794D01*
X84176574Y-77035720D01*
X84270722Y-76993803D01*
X84270724Y-76993802D01*
X84276752Y-76991118D01*
X84431253Y-76878866D01*
X84505825Y-76796045D01*
X84554621Y-76741852D01*
X84554622Y-76741851D01*
X84559040Y-76736944D01*
X84631097Y-76612138D01*
X84651223Y-76577279D01*
X84651224Y-76577278D01*
X84654527Y-76571556D01*
X84713542Y-76389928D01*
X84719620Y-76332104D01*
X84732814Y-76206565D01*
X84733504Y-76200000D01*
X84713542Y-76010072D01*
X84654527Y-75828444D01*
X84559040Y-75663056D01*
X84531147Y-75632077D01*
X84435675Y-75526045D01*
X84435674Y-75526044D01*
X84431253Y-75521134D01*
X84308311Y-75431811D01*
X84282094Y-75412763D01*
X84282093Y-75412762D01*
X84276752Y-75408882D01*
X84270724Y-75406198D01*
X84270722Y-75406197D01*
X84108319Y-75333891D01*
X84108318Y-75333891D01*
X84102288Y-75331206D01*
X84008887Y-75311353D01*
X83921944Y-75292872D01*
X83921939Y-75292872D01*
X83915487Y-75291500D01*
X83724513Y-75291500D01*
X83718061Y-75292872D01*
X83718056Y-75292872D01*
X83631113Y-75311353D01*
X83537712Y-75331206D01*
X83531682Y-75333891D01*
X83531681Y-75333891D01*
X83369278Y-75406197D01*
X83369276Y-75406198D01*
X83363248Y-75408882D01*
X83357907Y-75412762D01*
X83357906Y-75412763D01*
X83331689Y-75431811D01*
X83208747Y-75521134D01*
X83204326Y-75526044D01*
X83204325Y-75526045D01*
X83108854Y-75632077D01*
X83080960Y-75663056D01*
X82985473Y-75828444D01*
X82926458Y-76010072D01*
X82906496Y-76200000D01*
X51450031Y-76200000D01*
X51448312Y-76191921D01*
X51473428Y-76125516D01*
X51500780Y-76098909D01*
X51544603Y-76067650D01*
X51679860Y-75971173D01*
X51838096Y-75813489D01*
X51897594Y-75730689D01*
X51965435Y-75636277D01*
X51968453Y-75632077D01*
X52067430Y-75431811D01*
X52132370Y-75218069D01*
X52161529Y-74996590D01*
X52163156Y-74930000D01*
X52144852Y-74707361D01*
X52090431Y-74490702D01*
X52001354Y-74285840D01*
X51880014Y-74098277D01*
X51729670Y-73933051D01*
X51725619Y-73929852D01*
X51725615Y-73929848D01*
X51558414Y-73797800D01*
X51558410Y-73797798D01*
X51554359Y-73794598D01*
X51513053Y-73771796D01*
X51463084Y-73721364D01*
X51448312Y-73651921D01*
X51473428Y-73585516D01*
X51500780Y-73558909D01*
X51544603Y-73527650D01*
X51679860Y-73431173D01*
X51838096Y-73273489D01*
X51897594Y-73190689D01*
X51965435Y-73096277D01*
X51968453Y-73092077D01*
X52067430Y-72891811D01*
X52132370Y-72678069D01*
X52161529Y-72456590D01*
X52163156Y-72390000D01*
X52144852Y-72167361D01*
X52090431Y-71950702D01*
X52001354Y-71745840D01*
X51947020Y-71661852D01*
X51882822Y-71562617D01*
X51882820Y-71562614D01*
X51880014Y-71558277D01*
X51729670Y-71393051D01*
X51725619Y-71389852D01*
X51725615Y-71389848D01*
X51558414Y-71257800D01*
X51558410Y-71257798D01*
X51554359Y-71254598D01*
X51513053Y-71231796D01*
X51463084Y-71181364D01*
X51448312Y-71111921D01*
X51463682Y-71071284D01*
X70000124Y-71071284D01*
X70001103Y-71076981D01*
X70001103Y-71076982D01*
X70031623Y-71254598D01*
X70036181Y-71281126D01*
X70109875Y-71480884D01*
X70218739Y-71663866D01*
X70359125Y-71823946D01*
X70526333Y-71955762D01*
X70531444Y-71958451D01*
X70531447Y-71958453D01*
X70634961Y-72012915D01*
X70714762Y-72054900D01*
X70720283Y-72056614D01*
X70720287Y-72056616D01*
X70890623Y-72109506D01*
X70918102Y-72118039D01*
X71090982Y-72138500D01*
X71214013Y-72138500D01*
X71311003Y-72129588D01*
X71366270Y-72124510D01*
X71366273Y-72124509D01*
X71372024Y-72123981D01*
X71393093Y-72118039D01*
X71571389Y-72067754D01*
X71571391Y-72067753D01*
X71576948Y-72066186D01*
X71582123Y-72063634D01*
X71582128Y-72063632D01*
X71762727Y-71974570D01*
X71767908Y-71972015D01*
X71938509Y-71844622D01*
X72083037Y-71688271D01*
X72196653Y-71508201D01*
X72275551Y-71310441D01*
X72280305Y-71286544D01*
X72315962Y-71107282D01*
X72315962Y-71107280D01*
X72317089Y-71101615D01*
X72317412Y-71076982D01*
X72317487Y-71071284D01*
X75000124Y-71071284D01*
X75001103Y-71076981D01*
X75001103Y-71076982D01*
X75031623Y-71254598D01*
X75036181Y-71281126D01*
X75109875Y-71480884D01*
X75218739Y-71663866D01*
X75359125Y-71823946D01*
X75526333Y-71955762D01*
X75531444Y-71958451D01*
X75531447Y-71958453D01*
X75634961Y-72012915D01*
X75714762Y-72054900D01*
X75720283Y-72056614D01*
X75720287Y-72056616D01*
X75890623Y-72109506D01*
X75918102Y-72118039D01*
X76090982Y-72138500D01*
X76214013Y-72138500D01*
X76311003Y-72129588D01*
X76366270Y-72124510D01*
X76366273Y-72124509D01*
X76372024Y-72123981D01*
X76393093Y-72118039D01*
X76571389Y-72067754D01*
X76571391Y-72067753D01*
X76576948Y-72066186D01*
X76582123Y-72063634D01*
X76582128Y-72063632D01*
X76762727Y-71974570D01*
X76767908Y-71972015D01*
X76938509Y-71844622D01*
X77083037Y-71688271D01*
X77196653Y-71508201D01*
X77275551Y-71310441D01*
X77280305Y-71286544D01*
X77315962Y-71107282D01*
X77315962Y-71107280D01*
X77317089Y-71101615D01*
X77317412Y-71076982D01*
X77319249Y-70936635D01*
X77319876Y-70888716D01*
X77314664Y-70858385D01*
X77284797Y-70684564D01*
X77284796Y-70684561D01*
X77283819Y-70678874D01*
X77210125Y-70479116D01*
X77101261Y-70296134D01*
X76960875Y-70136054D01*
X76793667Y-70004238D01*
X76788556Y-70001549D01*
X76788553Y-70001547D01*
X76633383Y-69919908D01*
X76605238Y-69905100D01*
X76599717Y-69903386D01*
X76599713Y-69903384D01*
X76407421Y-69843676D01*
X76407422Y-69843676D01*
X76401898Y-69841961D01*
X76229018Y-69821500D01*
X76105987Y-69821500D01*
X76020355Y-69829368D01*
X75953730Y-69835490D01*
X75953727Y-69835491D01*
X75947976Y-69836019D01*
X75942417Y-69837587D01*
X75942416Y-69837587D01*
X75748611Y-69892246D01*
X75748609Y-69892247D01*
X75743052Y-69893814D01*
X75737877Y-69896366D01*
X75737872Y-69896368D01*
X75557273Y-69985430D01*
X75552092Y-69987985D01*
X75547466Y-69991439D01*
X75547465Y-69991440D01*
X75482817Y-70039715D01*
X75381491Y-70115378D01*
X75236963Y-70271729D01*
X75189561Y-70346857D01*
X75126978Y-70446045D01*
X75123347Y-70451799D01*
X75044449Y-70649559D01*
X75043323Y-70655219D01*
X75043322Y-70655223D01*
X75023529Y-70754729D01*
X75002911Y-70858385D01*
X75002835Y-70864160D01*
X75002835Y-70864164D01*
X75001887Y-70936635D01*
X75000124Y-71071284D01*
X72317487Y-71071284D01*
X72319249Y-70936635D01*
X72319876Y-70888716D01*
X72314664Y-70858385D01*
X72284797Y-70684564D01*
X72284796Y-70684561D01*
X72283819Y-70678874D01*
X72210125Y-70479116D01*
X72101261Y-70296134D01*
X71960875Y-70136054D01*
X71793667Y-70004238D01*
X71788556Y-70001549D01*
X71788553Y-70001547D01*
X71633383Y-69919908D01*
X71605238Y-69905100D01*
X71599717Y-69903386D01*
X71599713Y-69903384D01*
X71407421Y-69843676D01*
X71407422Y-69843676D01*
X71401898Y-69841961D01*
X71229018Y-69821500D01*
X71105987Y-69821500D01*
X71020355Y-69829368D01*
X70953730Y-69835490D01*
X70953727Y-69835491D01*
X70947976Y-69836019D01*
X70942417Y-69837587D01*
X70942416Y-69837587D01*
X70748611Y-69892246D01*
X70748609Y-69892247D01*
X70743052Y-69893814D01*
X70737877Y-69896366D01*
X70737872Y-69896368D01*
X70557273Y-69985430D01*
X70552092Y-69987985D01*
X70547466Y-69991439D01*
X70547465Y-69991440D01*
X70482817Y-70039715D01*
X70381491Y-70115378D01*
X70236963Y-70271729D01*
X70189561Y-70346857D01*
X70126978Y-70446045D01*
X70123347Y-70451799D01*
X70044449Y-70649559D01*
X70043323Y-70655219D01*
X70043322Y-70655223D01*
X70023529Y-70754729D01*
X70002911Y-70858385D01*
X70002835Y-70864160D01*
X70002835Y-70864164D01*
X70001887Y-70936635D01*
X70000124Y-71071284D01*
X51463682Y-71071284D01*
X51473428Y-71045516D01*
X51500780Y-71018909D01*
X51544603Y-70987650D01*
X51679860Y-70891173D01*
X51838096Y-70733489D01*
X51897594Y-70650689D01*
X51965435Y-70556277D01*
X51968453Y-70552077D01*
X52004513Y-70479116D01*
X52065136Y-70356453D01*
X52065137Y-70356451D01*
X52067430Y-70351811D01*
X52132370Y-70138069D01*
X52161529Y-69916590D01*
X52162023Y-69896368D01*
X52163074Y-69853365D01*
X52163074Y-69853361D01*
X52163156Y-69850000D01*
X52144852Y-69627361D01*
X52090431Y-69410702D01*
X52001354Y-69205840D01*
X51880014Y-69018277D01*
X51729670Y-68853051D01*
X51725619Y-68849852D01*
X51725615Y-68849848D01*
X51558414Y-68717800D01*
X51558410Y-68717798D01*
X51554359Y-68714598D01*
X51513053Y-68691796D01*
X51463084Y-68641364D01*
X51448312Y-68571921D01*
X51473428Y-68505516D01*
X51500780Y-68478909D01*
X51544603Y-68447650D01*
X51679860Y-68351173D01*
X51838096Y-68193489D01*
X51897594Y-68110689D01*
X51965435Y-68016277D01*
X51968453Y-68012077D01*
X52067430Y-67811811D01*
X52132370Y-67598069D01*
X52161529Y-67376590D01*
X52163156Y-67310000D01*
X52144852Y-67087361D01*
X52090431Y-66870702D01*
X52001354Y-66665840D01*
X51880014Y-66478277D01*
X51729670Y-66313051D01*
X51725619Y-66309852D01*
X51725615Y-66309848D01*
X51558414Y-66177800D01*
X51558410Y-66177798D01*
X51554359Y-66174598D01*
X51513053Y-66151796D01*
X51463084Y-66101364D01*
X51448312Y-66031921D01*
X51473428Y-65965516D01*
X51500780Y-65938909D01*
X51544603Y-65907650D01*
X51679860Y-65811173D01*
X51838096Y-65653489D01*
X51897594Y-65570689D01*
X51965435Y-65476277D01*
X51968453Y-65472077D01*
X52067430Y-65271811D01*
X52132370Y-65058069D01*
X52161529Y-64836590D01*
X52162139Y-64811621D01*
X52163074Y-64773365D01*
X52163074Y-64773361D01*
X52163156Y-64770000D01*
X52144852Y-64547361D01*
X52090431Y-64330702D01*
X52001354Y-64125840D01*
X51880014Y-63938277D01*
X51729670Y-63773051D01*
X51725619Y-63769852D01*
X51725615Y-63769848D01*
X51558414Y-63637800D01*
X51558410Y-63637798D01*
X51554359Y-63634598D01*
X51529955Y-63621126D01*
X51467997Y-63586924D01*
X51358789Y-63526638D01*
X51353920Y-63524914D01*
X51353916Y-63524912D01*
X51153087Y-63453795D01*
X51153083Y-63453794D01*
X51148212Y-63452069D01*
X51143119Y-63451162D01*
X51143116Y-63451161D01*
X50933373Y-63413800D01*
X50933367Y-63413799D01*
X50928284Y-63412894D01*
X50854452Y-63411992D01*
X50710081Y-63410228D01*
X50710079Y-63410228D01*
X50704911Y-63410165D01*
X50484091Y-63443955D01*
X50271756Y-63513357D01*
X50073607Y-63616507D01*
X50069474Y-63619610D01*
X50069471Y-63619612D01*
X49904321Y-63743610D01*
X49894965Y-63750635D01*
X49740629Y-63912138D01*
X49614743Y-64096680D01*
X49520688Y-64299305D01*
X49460989Y-64514570D01*
X49437251Y-64736695D01*
X49437548Y-64741848D01*
X49437548Y-64741851D01*
X49443011Y-64836590D01*
X49450110Y-64959715D01*
X49451247Y-64964761D01*
X49451248Y-64964767D01*
X49471119Y-65052939D01*
X49499222Y-65177639D01*
X49583266Y-65384616D01*
X49699987Y-65575088D01*
X49846250Y-65743938D01*
X50018126Y-65886632D01*
X50088595Y-65927811D01*
X50091445Y-65929476D01*
X50140169Y-65981114D01*
X50153240Y-66050897D01*
X50126509Y-66116669D01*
X50086055Y-66150027D01*
X50073607Y-66156507D01*
X50069474Y-66159610D01*
X50069471Y-66159612D01*
X50045247Y-66177800D01*
X49894965Y-66290635D01*
X49740629Y-66452138D01*
X49614743Y-66636680D01*
X49520688Y-66839305D01*
X49460989Y-67054570D01*
X49437251Y-67276695D01*
X49437548Y-67281848D01*
X49437548Y-67281851D01*
X49443011Y-67376590D01*
X49450110Y-67499715D01*
X49451247Y-67504761D01*
X49451248Y-67504767D01*
X49471119Y-67592939D01*
X49499222Y-67717639D01*
X49583266Y-67924616D01*
X49699987Y-68115088D01*
X49846250Y-68283938D01*
X50018126Y-68426632D01*
X50088595Y-68467811D01*
X50091445Y-68469476D01*
X50140169Y-68521114D01*
X50153240Y-68590897D01*
X50126509Y-68656669D01*
X50086055Y-68690027D01*
X50073607Y-68696507D01*
X50069474Y-68699610D01*
X50069471Y-68699612D01*
X50045247Y-68717800D01*
X49894965Y-68830635D01*
X49740629Y-68992138D01*
X49614743Y-69176680D01*
X49520688Y-69379305D01*
X49460989Y-69594570D01*
X49437251Y-69816695D01*
X49437548Y-69821848D01*
X49437548Y-69821851D01*
X49447909Y-70001547D01*
X49450110Y-70039715D01*
X49451247Y-70044761D01*
X49451248Y-70044767D01*
X49468117Y-70119617D01*
X49499222Y-70257639D01*
X49537461Y-70351811D01*
X49578062Y-70451799D01*
X49583266Y-70464616D01*
X49699987Y-70655088D01*
X49846250Y-70823938D01*
X50018126Y-70966632D01*
X50088595Y-71007811D01*
X50091445Y-71009476D01*
X50140169Y-71061114D01*
X50153240Y-71130897D01*
X50126509Y-71196669D01*
X50086055Y-71230027D01*
X50073607Y-71236507D01*
X50069474Y-71239610D01*
X50069471Y-71239612D01*
X49899100Y-71367530D01*
X49894965Y-71370635D01*
X49891393Y-71374373D01*
X49789609Y-71480884D01*
X49740629Y-71532138D01*
X49614743Y-71716680D01*
X49599003Y-71750590D01*
X49526290Y-71907237D01*
X49520688Y-71919305D01*
X49460989Y-72134570D01*
X49437251Y-72356695D01*
X49437548Y-72361848D01*
X49437548Y-72361851D01*
X49443011Y-72456590D01*
X49450110Y-72579715D01*
X49451247Y-72584761D01*
X49451248Y-72584767D01*
X49471119Y-72672939D01*
X49499222Y-72797639D01*
X49583266Y-73004616D01*
X49699987Y-73195088D01*
X49846250Y-73363938D01*
X50018126Y-73506632D01*
X50088595Y-73547811D01*
X50091445Y-73549476D01*
X50140169Y-73601114D01*
X50153240Y-73670897D01*
X50126509Y-73736669D01*
X50086055Y-73770027D01*
X50073607Y-73776507D01*
X50069474Y-73779610D01*
X50069471Y-73779612D01*
X50045247Y-73797800D01*
X49894965Y-73910635D01*
X49740629Y-74072138D01*
X49614743Y-74256680D01*
X49520688Y-74459305D01*
X49460989Y-74674570D01*
X49437251Y-74896695D01*
X49437548Y-74901848D01*
X49437548Y-74901851D01*
X49443011Y-74996590D01*
X49450110Y-75119715D01*
X49451247Y-75124761D01*
X49451248Y-75124767D01*
X49471119Y-75212939D01*
X49499222Y-75337639D01*
X49583266Y-75544616D01*
X49699987Y-75735088D01*
X49846250Y-75903938D01*
X50018126Y-76046632D01*
X50088595Y-76087811D01*
X50091445Y-76089476D01*
X50140169Y-76141114D01*
X50153240Y-76210897D01*
X50126509Y-76276669D01*
X50086055Y-76310027D01*
X50073607Y-76316507D01*
X50069474Y-76319610D01*
X50069471Y-76319612D01*
X49899100Y-76447530D01*
X49894965Y-76450635D01*
X49740629Y-76612138D01*
X49614743Y-76796680D01*
X49599003Y-76830590D01*
X49526290Y-76987237D01*
X49520688Y-76999305D01*
X49460989Y-77214570D01*
X49437251Y-77436695D01*
X49437548Y-77441848D01*
X49437548Y-77441851D01*
X49443011Y-77536590D01*
X49450110Y-77659715D01*
X49451247Y-77664761D01*
X49451248Y-77664767D01*
X49471119Y-77752939D01*
X49499222Y-77877639D01*
X49583266Y-78084616D01*
X49585965Y-78089020D01*
X49693072Y-78263803D01*
X49699987Y-78275088D01*
X49846250Y-78443938D01*
X50018126Y-78586632D01*
X50088595Y-78627811D01*
X50091445Y-78629476D01*
X50140169Y-78681114D01*
X50153240Y-78750897D01*
X50126509Y-78816669D01*
X50086055Y-78850027D01*
X50073607Y-78856507D01*
X50069474Y-78859610D01*
X50069471Y-78859612D01*
X50045247Y-78877800D01*
X49894965Y-78990635D01*
X49740629Y-79152138D01*
X49614743Y-79336680D01*
X49520688Y-79539305D01*
X49460989Y-79754570D01*
X49437251Y-79976695D01*
X49437548Y-79981848D01*
X49437548Y-79981851D01*
X49447874Y-80160930D01*
X49450110Y-80199715D01*
X49451247Y-80204761D01*
X49451248Y-80204767D01*
X49468435Y-80281028D01*
X49499222Y-80417639D01*
X49583266Y-80624616D01*
X49585965Y-80629020D01*
X49693072Y-80803803D01*
X49699987Y-80815088D01*
X49846250Y-80983938D01*
X50018126Y-81126632D01*
X50088595Y-81167811D01*
X50091445Y-81169476D01*
X50140169Y-81221114D01*
X50153240Y-81290897D01*
X50126509Y-81356669D01*
X50086055Y-81390027D01*
X50073607Y-81396507D01*
X50069474Y-81399610D01*
X50069471Y-81399612D01*
X49899100Y-81527530D01*
X49894965Y-81530635D01*
X49740629Y-81692138D01*
X49614743Y-81876680D01*
X49600449Y-81907474D01*
X49526290Y-82067237D01*
X49520688Y-82079305D01*
X49460989Y-82294570D01*
X49437251Y-82516695D01*
X49437548Y-82521848D01*
X49437548Y-82521851D01*
X49443011Y-82616590D01*
X49450110Y-82739715D01*
X49451247Y-82744761D01*
X49451248Y-82744767D01*
X49471119Y-82832939D01*
X49499222Y-82957639D01*
X49560673Y-83108976D01*
X49564000Y-83117168D01*
X49583266Y-83164616D01*
X49699987Y-83355088D01*
X49846250Y-83523938D01*
X50018126Y-83666632D01*
X50088595Y-83707811D01*
X50091445Y-83709476D01*
X50140169Y-83761114D01*
X50153240Y-83830897D01*
X50126509Y-83896669D01*
X50086055Y-83930027D01*
X50073607Y-83936507D01*
X50069474Y-83939610D01*
X50069471Y-83939612D01*
X49899100Y-84067530D01*
X49894965Y-84070635D01*
X49740629Y-84232138D01*
X49614743Y-84416680D01*
X49599003Y-84450590D01*
X49526290Y-84607237D01*
X49520688Y-84619305D01*
X49460989Y-84834570D01*
X49437251Y-85056695D01*
X49437548Y-85061848D01*
X49437548Y-85061851D01*
X49443011Y-85156590D01*
X49450110Y-85279715D01*
X49451247Y-85284761D01*
X49451248Y-85284767D01*
X49471119Y-85372939D01*
X49499222Y-85497639D01*
X49583266Y-85704616D01*
X49619629Y-85763955D01*
X49693072Y-85883803D01*
X49699987Y-85895088D01*
X49846250Y-86063938D01*
X50018126Y-86206632D01*
X50088595Y-86247811D01*
X50091445Y-86249476D01*
X50140169Y-86301114D01*
X50153240Y-86370897D01*
X50126509Y-86436669D01*
X50086055Y-86470027D01*
X50073607Y-86476507D01*
X50069474Y-86479610D01*
X50069471Y-86479612D01*
X49899100Y-86607530D01*
X49894965Y-86610635D01*
X49740629Y-86772138D01*
X49614743Y-86956680D01*
X49520688Y-87159305D01*
X49460989Y-87374570D01*
X49437251Y-87596695D01*
X49437548Y-87601848D01*
X49437548Y-87601851D01*
X49443011Y-87696590D01*
X49450110Y-87819715D01*
X49451247Y-87824761D01*
X49451248Y-87824767D01*
X49471119Y-87912939D01*
X49499222Y-88037639D01*
X49583266Y-88244616D01*
X49699987Y-88435088D01*
X49846250Y-88603938D01*
X50018126Y-88746632D01*
X50072482Y-88778395D01*
X50091445Y-88789476D01*
X50140169Y-88841114D01*
X50153240Y-88910897D01*
X50126509Y-88976669D01*
X50086055Y-89010027D01*
X50073607Y-89016507D01*
X50069474Y-89019610D01*
X50069471Y-89019612D01*
X49899100Y-89147530D01*
X49894965Y-89150635D01*
X49740629Y-89312138D01*
X49737715Y-89316410D01*
X49737714Y-89316411D01*
X49695099Y-89378882D01*
X49614743Y-89496680D01*
X49520688Y-89699305D01*
X49460989Y-89914570D01*
X49437251Y-90136695D01*
X49437548Y-90141848D01*
X49437548Y-90141851D01*
X49443011Y-90236590D01*
X49450110Y-90359715D01*
X49451247Y-90364761D01*
X49451248Y-90364767D01*
X49471119Y-90452939D01*
X49499222Y-90577639D01*
X49583266Y-90784616D01*
X49699987Y-90975088D01*
X49846250Y-91143938D01*
X50018126Y-91286632D01*
X50088595Y-91327811D01*
X50091445Y-91329476D01*
X50140169Y-91381114D01*
X50153240Y-91450897D01*
X50126509Y-91516669D01*
X50086055Y-91550027D01*
X50073607Y-91556507D01*
X50069474Y-91559610D01*
X50069471Y-91559612D01*
X49940897Y-91656148D01*
X49894965Y-91690635D01*
X49740629Y-91852138D01*
X49614743Y-92036680D01*
X49599003Y-92070590D01*
X49526290Y-92227237D01*
X49520688Y-92239305D01*
X49460989Y-92454570D01*
X49437251Y-92676695D01*
X49437548Y-92681848D01*
X49437548Y-92681851D01*
X49443011Y-92776590D01*
X49450110Y-92899715D01*
X49451247Y-92904761D01*
X49451248Y-92904767D01*
X49458174Y-92935499D01*
X49499222Y-93117639D01*
X49583266Y-93324616D01*
X49699987Y-93515088D01*
X49846250Y-93683938D01*
X50018126Y-93826632D01*
X50079836Y-93862692D01*
X50091445Y-93869476D01*
X50140169Y-93921114D01*
X50153240Y-93990897D01*
X50126509Y-94056669D01*
X50086055Y-94090027D01*
X50073607Y-94096507D01*
X50069474Y-94099610D01*
X50069471Y-94099612D01*
X49925940Y-94207378D01*
X49894965Y-94230635D01*
X49891393Y-94234373D01*
X49745011Y-94387553D01*
X49740629Y-94392138D01*
X49614743Y-94576680D01*
X49599003Y-94610590D01*
X49532278Y-94754337D01*
X49520688Y-94779305D01*
X49460989Y-94994570D01*
X49437251Y-95216695D01*
X49437548Y-95221848D01*
X49437548Y-95221851D01*
X49443011Y-95316590D01*
X49450110Y-95439715D01*
X49451247Y-95444761D01*
X49451248Y-95444767D01*
X49458174Y-95475499D01*
X49499222Y-95657639D01*
X49583266Y-95864616D01*
X49619629Y-95923955D01*
X49693072Y-96043803D01*
X49699987Y-96055088D01*
X49846250Y-96223938D01*
X50018126Y-96366632D01*
X50088595Y-96407811D01*
X50091445Y-96409476D01*
X50140169Y-96461114D01*
X50153240Y-96530897D01*
X50126509Y-96596669D01*
X50086055Y-96630027D01*
X50073607Y-96636507D01*
X50069474Y-96639610D01*
X50069471Y-96639612D01*
X49963101Y-96719477D01*
X49894965Y-96770635D01*
X49891393Y-96774373D01*
X49771907Y-96899408D01*
X49740629Y-96932138D01*
X49737715Y-96936410D01*
X49737714Y-96936411D01*
X49666186Y-97041267D01*
X49614743Y-97116680D01*
X49589163Y-97171787D01*
X49526290Y-97307237D01*
X49520688Y-97319305D01*
X49460989Y-97534570D01*
X49437251Y-97756695D01*
X49437548Y-97761848D01*
X49437548Y-97761851D01*
X49446644Y-97919598D01*
X49450110Y-97979715D01*
X49451247Y-97984761D01*
X49451248Y-97984767D01*
X49467041Y-98054844D01*
X49499222Y-98197639D01*
X49537461Y-98291811D01*
X49581234Y-98399611D01*
X49583266Y-98404616D01*
X49619629Y-98463955D01*
X49693072Y-98583803D01*
X49699987Y-98595088D01*
X49846250Y-98763938D01*
X50018126Y-98906632D01*
X50088595Y-98947811D01*
X50091445Y-98949476D01*
X50140169Y-99001114D01*
X50153240Y-99070897D01*
X50126509Y-99136669D01*
X50086055Y-99170027D01*
X50073607Y-99176507D01*
X50069474Y-99179610D01*
X50069471Y-99179612D01*
X49899100Y-99307530D01*
X49894965Y-99310635D01*
X49740629Y-99472138D01*
X49614743Y-99656680D01*
X49520688Y-99859305D01*
X49460989Y-100074570D01*
X49437251Y-100296695D01*
X49437548Y-100301848D01*
X49437548Y-100301851D01*
X49449812Y-100514547D01*
X49450110Y-100519715D01*
X49451247Y-100524761D01*
X49451248Y-100524767D01*
X49467764Y-100598051D01*
X49499222Y-100737639D01*
X49583266Y-100944616D01*
X49585965Y-100949020D01*
X49682411Y-101106406D01*
X49699987Y-101135088D01*
X49846250Y-101303938D01*
X50018126Y-101446632D01*
X50052975Y-101466996D01*
X50091445Y-101489476D01*
X50140169Y-101541114D01*
X50153240Y-101610897D01*
X50126509Y-101676669D01*
X50086055Y-101710027D01*
X50073607Y-101716507D01*
X50069474Y-101719610D01*
X50069471Y-101719612D01*
X49949396Y-101809767D01*
X49894965Y-101850635D01*
X49879220Y-101867111D01*
X49808688Y-101940919D01*
X49740629Y-102012138D01*
X49737715Y-102016410D01*
X49737714Y-102016411D01*
X49686248Y-102091857D01*
X49614743Y-102196680D01*
X49520688Y-102399305D01*
X49460989Y-102614570D01*
X49437251Y-102836695D01*
X49437548Y-102841848D01*
X49437548Y-102841851D01*
X49445897Y-102986652D01*
X49450110Y-103059715D01*
X49451247Y-103064761D01*
X49451248Y-103064767D01*
X49471119Y-103152939D01*
X49499222Y-103277639D01*
X49583266Y-103484616D01*
X49699987Y-103675088D01*
X49846250Y-103843938D01*
X50018126Y-103986632D01*
X50088595Y-104027811D01*
X50091445Y-104029476D01*
X50140169Y-104081114D01*
X50153240Y-104150897D01*
X50126509Y-104216669D01*
X50086055Y-104250027D01*
X50073607Y-104256507D01*
X50069474Y-104259610D01*
X50069471Y-104259612D01*
X50045247Y-104277800D01*
X49894965Y-104390635D01*
X49740629Y-104552138D01*
X49614743Y-104736680D01*
X49520688Y-104939305D01*
X49460989Y-105154570D01*
X49437251Y-105376695D01*
X49437548Y-105381848D01*
X49437548Y-105381851D01*
X49447278Y-105550594D01*
X49450110Y-105599715D01*
X49451247Y-105604761D01*
X49451248Y-105604767D01*
X49468686Y-105682143D01*
X49499222Y-105817639D01*
X49583266Y-106024616D01*
X49699987Y-106215088D01*
X49846250Y-106383938D01*
X50018126Y-106526632D01*
X50088595Y-106567811D01*
X50091445Y-106569476D01*
X50140169Y-106621114D01*
X50153240Y-106690897D01*
X50126509Y-106756669D01*
X50086055Y-106790027D01*
X50073607Y-106796507D01*
X50069474Y-106799610D01*
X50069471Y-106799612D01*
X50045247Y-106817800D01*
X49894965Y-106930635D01*
X49740629Y-107092138D01*
X49614743Y-107276680D01*
X49520688Y-107479305D01*
X49460989Y-107694570D01*
X49437251Y-107916695D01*
X49437548Y-107921848D01*
X49437548Y-107921851D01*
X49443371Y-108022843D01*
X49450110Y-108139715D01*
X49451247Y-108144761D01*
X49451248Y-108144767D01*
X49471119Y-108232939D01*
X49499222Y-108357639D01*
X49583266Y-108564616D01*
X49585965Y-108569020D01*
X49664127Y-108696569D01*
X49699987Y-108755088D01*
X49846250Y-108923938D01*
X50018126Y-109066632D01*
X50088595Y-109107811D01*
X50091445Y-109109476D01*
X50140169Y-109161114D01*
X50153240Y-109230897D01*
X50126509Y-109296669D01*
X50086055Y-109330027D01*
X50073607Y-109336507D01*
X50069474Y-109339610D01*
X50069471Y-109339612D01*
X49899100Y-109467530D01*
X49894965Y-109470635D01*
X49740629Y-109632138D01*
X49614743Y-109816680D01*
X49520688Y-110019305D01*
X49460989Y-110234570D01*
X49437251Y-110456695D01*
X47498500Y-110456695D01*
X47498500Y-64823250D01*
X47500246Y-64802345D01*
X47502770Y-64787344D01*
X47502770Y-64787341D01*
X47503576Y-64782552D01*
X47503729Y-64770000D01*
X47503039Y-64765180D01*
X47501644Y-64755437D01*
X47500545Y-64730983D01*
X47516240Y-64431500D01*
X47517618Y-64418383D01*
X47569613Y-64090102D01*
X47572355Y-64077202D01*
X47615439Y-63916411D01*
X47658380Y-63756152D01*
X47662455Y-63743610D01*
X47671375Y-63720375D01*
X47774368Y-63452069D01*
X47781562Y-63433328D01*
X47786926Y-63421280D01*
X47937820Y-63125133D01*
X47944414Y-63113712D01*
X48125437Y-62834960D01*
X48133190Y-62824290D01*
X48342352Y-62565996D01*
X48351177Y-62556195D01*
X48586195Y-62321177D01*
X48595996Y-62312352D01*
X48854290Y-62103190D01*
X48864960Y-62095437D01*
X49143712Y-61914414D01*
X49155133Y-61907820D01*
X49451280Y-61756926D01*
X49463328Y-61751562D01*
X49502532Y-61736513D01*
X49773618Y-61632453D01*
X49786154Y-61628379D01*
X49845670Y-61612432D01*
X50107201Y-61542355D01*
X50120102Y-61539613D01*
X50448383Y-61487618D01*
X50461499Y-61486240D01*
X50495152Y-61484476D01*
X50757298Y-61470738D01*
X50783273Y-61472065D01*
X50784843Y-61472309D01*
X50784849Y-61472309D01*
X50793724Y-61473691D01*
X50802626Y-61472527D01*
X50802628Y-61472527D01*
X50817677Y-61470559D01*
X50825286Y-61469564D01*
X50841621Y-61468500D01*
X88385514Y-61468500D01*
X88453635Y-61488502D01*
G37*
%TD.AperFunction*%
%TD*%
M02*
