%TF.GenerationSoftware,KiCad,Pcbnew,(6.0.5)*%
%TF.CreationDate,2022-09-12T21:51:21+10:00*%
%TF.ProjectId,shield,73686965-6c64-42e6-9b69-6361645f7063,rev?*%
%TF.SameCoordinates,Original*%
%TF.FileFunction,Paste,Top*%
%TF.FilePolarity,Positive*%
%FSLAX46Y46*%
G04 Gerber Fmt 4.6, Leading zero omitted, Abs format (unit mm)*
G04 Created by KiCad (PCBNEW (6.0.5)) date 2022-09-12 21:51:21*
%MOMM*%
%LPD*%
G01*
G04 APERTURE LIST*
G04 Aperture macros list*
%AMRoundRect*
0 Rectangle with rounded corners*
0 $1 Rounding radius*
0 $2 $3 $4 $5 $6 $7 $8 $9 X,Y pos of 4 corners*
0 Add a 4 corners polygon primitive as box body*
4,1,4,$2,$3,$4,$5,$6,$7,$8,$9,$2,$3,0*
0 Add four circle primitives for the rounded corners*
1,1,$1+$1,$2,$3*
1,1,$1+$1,$4,$5*
1,1,$1+$1,$6,$7*
1,1,$1+$1,$8,$9*
0 Add four rect primitives between the rounded corners*
20,1,$1+$1,$2,$3,$4,$5,0*
20,1,$1+$1,$4,$5,$6,$7,0*
20,1,$1+$1,$6,$7,$8,$9,0*
20,1,$1+$1,$8,$9,$2,$3,0*%
%AMRotRect*
0 Rectangle, with rotation*
0 The origin of the aperture is its center*
0 $1 length*
0 $2 width*
0 $3 Rotation angle, in degrees counterclockwise*
0 Add horizontal line*
21,1,$1,$2,0,0,$3*%
G04 Aperture macros list end*
%ADD10RotRect,0.400000X1.900000X135.000000*%
%ADD11R,0.400000X1.350000*%
%ADD12R,1.600000X1.400000*%
%ADD13R,1.900000X1.900000*%
%ADD14RoundRect,0.237500X0.237500X-0.300000X0.237500X0.300000X-0.237500X0.300000X-0.237500X-0.300000X0*%
%ADD15RoundRect,0.237500X-0.250000X-0.237500X0.250000X-0.237500X0.250000X0.237500X-0.250000X0.237500X0*%
%ADD16R,1.600000X0.550000*%
%ADD17R,0.550000X1.600000*%
%ADD18RoundRect,0.237500X0.300000X0.237500X-0.300000X0.237500X-0.300000X-0.237500X0.300000X-0.237500X0*%
%ADD19RoundRect,0.011200X-0.768800X-0.128800X0.768800X-0.128800X0.768800X0.128800X-0.768800X0.128800X0*%
%ADD20RoundRect,0.011200X0.128800X-0.768800X0.128800X0.768800X-0.128800X0.768800X-0.128800X-0.768800X0*%
%ADD21RoundRect,0.237500X0.237500X-0.250000X0.237500X0.250000X-0.237500X0.250000X-0.237500X-0.250000X0*%
%ADD22RoundRect,0.237500X-0.237500X0.250000X-0.237500X-0.250000X0.237500X-0.250000X0.237500X0.250000X0*%
%ADD23RoundRect,0.090000X0.210000X-0.520000X0.210000X0.520000X-0.210000X0.520000X-0.210000X-0.520000X0*%
%ADD24RoundRect,0.054000X0.396000X1.346000X-0.396000X1.346000X-0.396000X-1.346000X0.396000X-1.346000X0*%
%ADD25R,2.500000X5.000000*%
G04 APERTURE END LIST*
D10*
%TO.C,Y2*%
X98638528Y-78318528D03*
X97790000Y-77470000D03*
X96941472Y-76621472D03*
%TD*%
D11*
%TO.C,J4*%
X94010000Y-65082800D03*
X93360000Y-65082800D03*
X92710000Y-65082800D03*
X92060000Y-65082800D03*
X91410000Y-65082800D03*
D12*
X95910000Y-64857800D03*
X89510000Y-64857800D03*
D13*
X91510000Y-62407800D03*
X93910000Y-62407800D03*
%TD*%
D14*
%TO.C,C2*%
X77470000Y-79602500D03*
X77470000Y-77877500D03*
%TD*%
D15*
%TO.C,R1*%
X71477500Y-95250000D03*
X73302500Y-95250000D03*
%TD*%
D16*
%TO.C,U1*%
X71950000Y-84830000D03*
X71950000Y-85630000D03*
X71950000Y-86430000D03*
X71950000Y-87230000D03*
X71950000Y-88030000D03*
X71950000Y-88830000D03*
X71950000Y-89630000D03*
X71950000Y-90430000D03*
D17*
X73400000Y-91880000D03*
X74200000Y-91880000D03*
X75000000Y-91880000D03*
X75800000Y-91880000D03*
X76600000Y-91880000D03*
X77400000Y-91880000D03*
X78200000Y-91880000D03*
X79000000Y-91880000D03*
D16*
X80450000Y-90430000D03*
X80450000Y-89630000D03*
X80450000Y-88830000D03*
X80450000Y-88030000D03*
X80450000Y-87230000D03*
X80450000Y-86430000D03*
X80450000Y-85630000D03*
X80450000Y-84830000D03*
D17*
X79000000Y-83380000D03*
X78200000Y-83380000D03*
X77400000Y-83380000D03*
X76600000Y-83380000D03*
X75800000Y-83380000D03*
X75000000Y-83380000D03*
X74200000Y-83380000D03*
X73400000Y-83380000D03*
%TD*%
D18*
%TO.C,C1*%
X87222500Y-78740000D03*
X85497500Y-78740000D03*
%TD*%
D15*
%TO.C,R3*%
X98147500Y-85090000D03*
X99972500Y-85090000D03*
%TD*%
D19*
%TO.C,U3*%
X89530000Y-80800000D03*
X89530000Y-81300000D03*
X89530000Y-81800000D03*
X89530000Y-82300000D03*
X89530000Y-82800000D03*
X89530000Y-83300000D03*
X89530000Y-83800000D03*
X89530000Y-84300000D03*
D20*
X90960000Y-85730000D03*
X91460000Y-85730000D03*
X91960000Y-85730000D03*
X92460000Y-85730000D03*
X92960000Y-85730000D03*
X93460000Y-85730000D03*
X93960000Y-85730000D03*
X94460000Y-85730000D03*
D19*
X95890000Y-84300000D03*
X95890000Y-83800000D03*
X95890000Y-83300000D03*
X95890000Y-82800000D03*
X95890000Y-82300000D03*
X95890000Y-81800000D03*
X95890000Y-81300000D03*
X95890000Y-80800000D03*
D20*
X94460000Y-79370000D03*
X93960000Y-79370000D03*
X93460000Y-79370000D03*
X92960000Y-79370000D03*
X92460000Y-79370000D03*
X91960000Y-79370000D03*
X91460000Y-79370000D03*
X90960000Y-79370000D03*
%TD*%
D21*
%TO.C,R4*%
X74930000Y-79652500D03*
X74930000Y-77827500D03*
%TD*%
%TO.C,R7*%
X91440000Y-69492500D03*
X91440000Y-67667500D03*
%TD*%
D22*
%TO.C,R2*%
X97790000Y-98147500D03*
X97790000Y-99972500D03*
%TD*%
D23*
%TO.C,U2*%
X85410000Y-76175000D03*
X86360000Y-76175000D03*
X87310000Y-76175000D03*
X87310000Y-73685000D03*
X85410000Y-73685000D03*
%TD*%
D18*
%TO.C,C3*%
X99922500Y-81280000D03*
X98197500Y-81280000D03*
%TD*%
D21*
%TO.C,R6*%
X93980000Y-69492500D03*
X93980000Y-67667500D03*
%TD*%
%TO.C,R5*%
X72390000Y-79652500D03*
X72390000Y-77827500D03*
%TD*%
D24*
%TO.C,J5*%
X77160000Y-74830000D03*
X74660000Y-74830000D03*
X72660000Y-74830000D03*
X70160000Y-74830000D03*
D25*
X80910000Y-72580000D03*
X66410000Y-72580000D03*
%TD*%
M02*
