%TF.GenerationSoftware,KiCad,Pcbnew,(6.0.5)*%
%TF.CreationDate,2022-09-12T21:51:21+10:00*%
%TF.ProjectId,shield,73686965-6c64-42e6-9b69-6361645f7063,rev?*%
%TF.SameCoordinates,Original*%
%TF.FileFunction,Copper,L1,Top*%
%TF.FilePolarity,Positive*%
%FSLAX46Y46*%
G04 Gerber Fmt 4.6, Leading zero omitted, Abs format (unit mm)*
G04 Created by KiCad (PCBNEW (6.0.5)) date 2022-09-12 21:51:21*
%MOMM*%
%LPD*%
G01*
G04 APERTURE LIST*
G04 Aperture macros list*
%AMRoundRect*
0 Rectangle with rounded corners*
0 $1 Rounding radius*
0 $2 $3 $4 $5 $6 $7 $8 $9 X,Y pos of 4 corners*
0 Add a 4 corners polygon primitive as box body*
4,1,4,$2,$3,$4,$5,$6,$7,$8,$9,$2,$3,0*
0 Add four circle primitives for the rounded corners*
1,1,$1+$1,$2,$3*
1,1,$1+$1,$4,$5*
1,1,$1+$1,$6,$7*
1,1,$1+$1,$8,$9*
0 Add four rect primitives between the rounded corners*
20,1,$1+$1,$2,$3,$4,$5,0*
20,1,$1+$1,$4,$5,$6,$7,0*
20,1,$1+$1,$6,$7,$8,$9,0*
20,1,$1+$1,$8,$9,$2,$3,0*%
%AMRotRect*
0 Rectangle, with rotation*
0 The origin of the aperture is its center*
0 $1 length*
0 $2 width*
0 $3 Rotation angle, in degrees counterclockwise*
0 Add horizontal line*
21,1,$1,$2,0,0,$3*%
G04 Aperture macros list end*
%TA.AperFunction,SMDPad,CuDef*%
%ADD10RotRect,0.400000X1.900000X135.000000*%
%TD*%
%TA.AperFunction,ComponentPad*%
%ADD11C,2.006600*%
%TD*%
%TA.AperFunction,ComponentPad*%
%ADD12C,1.905000*%
%TD*%
%TA.AperFunction,SMDPad,CuDef*%
%ADD13R,0.400000X1.350000*%
%TD*%
%TA.AperFunction,SMDPad,CuDef*%
%ADD14R,1.600000X1.400000*%
%TD*%
%TA.AperFunction,SMDPad,CuDef*%
%ADD15R,1.900000X1.900000*%
%TD*%
%TA.AperFunction,ComponentPad*%
%ADD16O,0.900000X1.800000*%
%TD*%
%TA.AperFunction,ComponentPad*%
%ADD17C,1.700000*%
%TD*%
%TA.AperFunction,ComponentPad*%
%ADD18O,1.700000X1.700000*%
%TD*%
%TA.AperFunction,ComponentPad*%
%ADD19R,1.700000X1.700000*%
%TD*%
%TA.AperFunction,SMDPad,CuDef*%
%ADD20RoundRect,0.237500X0.237500X-0.300000X0.237500X0.300000X-0.237500X0.300000X-0.237500X-0.300000X0*%
%TD*%
%TA.AperFunction,SMDPad,CuDef*%
%ADD21RoundRect,0.237500X-0.250000X-0.237500X0.250000X-0.237500X0.250000X0.237500X-0.250000X0.237500X0*%
%TD*%
%TA.AperFunction,SMDPad,CuDef*%
%ADD22R,1.600000X0.550000*%
%TD*%
%TA.AperFunction,SMDPad,CuDef*%
%ADD23R,0.550000X1.600000*%
%TD*%
%TA.AperFunction,SMDPad,CuDef*%
%ADD24RoundRect,0.237500X0.300000X0.237500X-0.300000X0.237500X-0.300000X-0.237500X0.300000X-0.237500X0*%
%TD*%
%TA.AperFunction,SMDPad,CuDef*%
%ADD25RoundRect,0.011200X-0.768800X-0.128800X0.768800X-0.128800X0.768800X0.128800X-0.768800X0.128800X0*%
%TD*%
%TA.AperFunction,SMDPad,CuDef*%
%ADD26RoundRect,0.011200X0.128800X-0.768800X0.128800X0.768800X-0.128800X0.768800X-0.128800X-0.768800X0*%
%TD*%
%TA.AperFunction,SMDPad,CuDef*%
%ADD27RoundRect,0.237500X0.237500X-0.250000X0.237500X0.250000X-0.237500X0.250000X-0.237500X-0.250000X0*%
%TD*%
%TA.AperFunction,SMDPad,CuDef*%
%ADD28RoundRect,0.237500X-0.237500X0.250000X-0.237500X-0.250000X0.237500X-0.250000X0.237500X0.250000X0*%
%TD*%
%TA.AperFunction,ComponentPad*%
%ADD29C,1.500000*%
%TD*%
%TA.AperFunction,SMDPad,CuDef*%
%ADD30RoundRect,0.090000X0.210000X-0.520000X0.210000X0.520000X-0.210000X0.520000X-0.210000X-0.520000X0*%
%TD*%
%TA.AperFunction,SMDPad,CuDef*%
%ADD31RoundRect,0.054000X0.396000X1.346000X-0.396000X1.346000X-0.396000X-1.346000X0.396000X-1.346000X0*%
%TD*%
%TA.AperFunction,SMDPad,CuDef*%
%ADD32R,2.500000X5.000000*%
%TD*%
%TA.AperFunction,ViaPad*%
%ADD33C,0.800000*%
%TD*%
%TA.AperFunction,Conductor*%
%ADD34C,0.250000*%
%TD*%
G04 APERTURE END LIST*
D10*
%TO.P,Y2,1*%
%TO.N,X1*%
X98638528Y-78318528D03*
%TO.P,Y2,2*%
%TO.N,GND*%
X97790000Y-77470000D03*
%TO.P,Y2,3*%
%TO.N,X0*%
X96941472Y-76621472D03*
%TD*%
D11*
%TO.P,J7,1,In*%
%TO.N,PIN_TRIG*%
X78740000Y-111760000D03*
D12*
%TO.P,J7,2,Ext*%
%TO.N,GND*%
X76187300Y-109207300D03*
%TO.P,J7,3*%
X76187300Y-114312700D03*
%TO.P,J7,4*%
X81292700Y-114312700D03*
%TO.P,J7,5*%
X81292700Y-109207300D03*
%TD*%
D13*
%TO.P,J4,1,VUSB*%
%TO.N,VBUS_COMP*%
X94010000Y-65082800D03*
%TO.P,J4,2,D-*%
%TO.N,Net-(J4-Pad2)*%
X93360000Y-65082800D03*
%TO.P,J4,3,D+*%
%TO.N,Net-(J4-Pad3)*%
X92710000Y-65082800D03*
%TO.P,J4,4,ID*%
%TO.N,unconnected-(J4-Pad4)*%
X92060000Y-65082800D03*
%TO.P,J4,5,GND*%
%TO.N,GND*%
X91410000Y-65082800D03*
D14*
%TO.P,J4,S1,SHIELD*%
%TO.N,Net-(J4-PadS1)*%
X95910000Y-64857800D03*
%TO.P,J4,S2,SHIELD*%
X89510000Y-64857800D03*
D15*
%TO.P,J4,S3,SHIELD*%
X91510000Y-62407800D03*
%TO.P,J4,S4,SHIELD*%
X93910000Y-62407800D03*
D16*
%TO.P,J4,S5,SHIELD*%
X96009993Y-62407800D03*
%TO.P,J4,S6,SHIELD*%
X89410000Y-62407800D03*
%TD*%
D17*
%TO.P,J3,1,MISO*%
%TO.N,H_MISO*%
X78724989Y-99054996D03*
D18*
%TO.P,J3,2,VCC*%
%TO.N,VCC*%
X78725000Y-101595000D03*
%TO.P,J3,3,SCK*%
%TO.N,H_SCK*%
X76185000Y-99055000D03*
%TO.P,J3,4,MOSI*%
%TO.N,H_MOSI*%
X76185000Y-101595000D03*
%TO.P,J3,5,~{RST}*%
%TO.N,AVR_RESET*%
X73645000Y-99055000D03*
D19*
%TO.P,J3,6,GND*%
%TO.N,GND*%
X73644989Y-101594996D03*
%TD*%
D20*
%TO.P,C2,1*%
%TO.N,GND*%
X77470000Y-79602500D03*
%TO.P,C2,2*%
%TO.N,VUSB*%
X77470000Y-77877500D03*
%TD*%
D21*
%TO.P,R1,1*%
%TO.N,VCC*%
X71477500Y-95250000D03*
%TO.P,R1,2*%
%TO.N,H_RESN*%
X73302500Y-95250000D03*
%TD*%
D22*
%TO.P,U1,1,PD3*%
%TO.N,unconnected-(U1-Pad1)*%
X71950000Y-84830000D03*
%TO.P,U1,2,PD4*%
%TO.N,unconnected-(U1-Pad2)*%
X71950000Y-85630000D03*
%TO.P,U1,3,GND*%
%TO.N,GND*%
X71950000Y-86430000D03*
%TO.P,U1,4,VCC*%
%TO.N,VCC*%
X71950000Y-87230000D03*
%TO.P,U1,5,GND*%
%TO.N,GND*%
X71950000Y-88030000D03*
%TO.P,U1,6,VCC*%
%TO.N,VCC*%
X71950000Y-88830000D03*
%TO.P,U1,7,XTAL1/PB6*%
%TO.N,Net-(U1-Pad7)*%
X71950000Y-89630000D03*
%TO.P,U1,8,XTAL2/PB7*%
%TO.N,Net-(U1-Pad8)*%
X71950000Y-90430000D03*
D23*
%TO.P,U1,9,PD5*%
%TO.N,unconnected-(U1-Pad9)*%
X73400000Y-91880000D03*
%TO.P,U1,10,PD6*%
%TO.N,unconnected-(U1-Pad10)*%
X74200000Y-91880000D03*
%TO.P,U1,11,PD7*%
%TO.N,PIN_TRIG*%
X75000000Y-91880000D03*
%TO.P,U1,12,PB0*%
%TO.N,H_RESN*%
X75800000Y-91880000D03*
%TO.P,U1,13,PB1*%
%TO.N,unconnected-(U1-Pad13)*%
X76600000Y-91880000D03*
%TO.P,U1,14,PB2*%
%TO.N,H_SS*%
X77400000Y-91880000D03*
%TO.P,U1,15,PB3*%
%TO.N,H_MOSI*%
X78200000Y-91880000D03*
%TO.P,U1,16,PB4*%
%TO.N,H_MISO*%
X79000000Y-91880000D03*
D22*
%TO.P,U1,17,PB5*%
%TO.N,H_SCK*%
X80450000Y-90430000D03*
%TO.P,U1,18,AVCC*%
%TO.N,VCC*%
X80450000Y-89630000D03*
%TO.P,U1,19,ADC6*%
%TO.N,unconnected-(U1-Pad19)*%
X80450000Y-88830000D03*
%TO.P,U1,20,AREF*%
%TO.N,unconnected-(U1-Pad20)*%
X80450000Y-88030000D03*
%TO.P,U1,21,GND*%
%TO.N,GND*%
X80450000Y-87230000D03*
%TO.P,U1,22,ADC7*%
%TO.N,unconnected-(U1-Pad22)*%
X80450000Y-86430000D03*
%TO.P,U1,23,PC0*%
%TO.N,unconnected-(U1-Pad23)*%
X80450000Y-85630000D03*
%TO.P,U1,24,PC1*%
%TO.N,unconnected-(U1-Pad24)*%
X80450000Y-84830000D03*
D23*
%TO.P,U1,25,PC2*%
%TO.N,unconnected-(U1-Pad25)*%
X79000000Y-83380000D03*
%TO.P,U1,26,PC3*%
%TO.N,unconnected-(U1-Pad26)*%
X78200000Y-83380000D03*
%TO.P,U1,27,PC4*%
%TO.N,unconnected-(U1-Pad27)*%
X77400000Y-83380000D03*
%TO.P,U1,28,PC5*%
%TO.N,unconnected-(U1-Pad28)*%
X76600000Y-83380000D03*
%TO.P,U1,29,~{RESET}/PC6*%
%TO.N,AVR_RESET*%
X75800000Y-83380000D03*
%TO.P,U1,30,PD0*%
%TO.N,RXD*%
X75000000Y-83380000D03*
%TO.P,U1,31,PD1*%
%TO.N,TXD*%
X74200000Y-83380000D03*
%TO.P,U1,32,PD2*%
%TO.N,unconnected-(U1-Pad32)*%
X73400000Y-83380000D03*
%TD*%
D17*
%TO.P,J1,1,Pin_1*%
%TO.N,GND*%
X50800000Y-113030000D03*
D18*
%TO.P,J1,2,Pin_2*%
%TO.N,3.3V*%
X50800000Y-110490000D03*
%TO.P,J1,3,Pin_3*%
%TO.N,unconnected-(J1-Pad3)*%
X50800000Y-107950000D03*
%TO.P,J1,4,Pin_4*%
%TO.N,unconnected-(J1-Pad4)*%
X50800000Y-105410000D03*
%TO.P,J1,5,Pin_5*%
%TO.N,unconnected-(J1-Pad5)*%
X50800000Y-102870000D03*
%TO.P,J1,6,Pin_6*%
%TO.N,unconnected-(J1-Pad6)*%
X50800000Y-100330000D03*
%TO.P,J1,7,Pin_7*%
%TO.N,unconnected-(J1-Pad7)*%
X50800000Y-97790000D03*
%TO.P,J1,8,Pin_8*%
%TO.N,unconnected-(J1-Pad8)*%
X50800000Y-95250000D03*
%TO.P,J1,9,Pin_9*%
%TO.N,unconnected-(J1-Pad9)*%
X50800000Y-92710000D03*
%TO.P,J1,10,Pin_10*%
%TO.N,unconnected-(J1-Pad10)*%
X50800000Y-90170000D03*
%TO.P,J1,11,Pin_11*%
%TO.N,unconnected-(J1-Pad11)*%
X50800000Y-87630000D03*
%TO.P,J1,12,Pin_12*%
%TO.N,unconnected-(J1-Pad12)*%
X50800000Y-85090000D03*
%TO.P,J1,13,Pin_13*%
%TO.N,unconnected-(J1-Pad13)*%
X50800000Y-82550000D03*
%TO.P,J1,14,Pin_14*%
%TO.N,unconnected-(J1-Pad14)*%
X50800000Y-80010000D03*
%TO.P,J1,15,Pin_15*%
%TO.N,unconnected-(J1-Pad15)*%
X50800000Y-77470000D03*
%TO.P,J1,16,Pin_16*%
%TO.N,unconnected-(J1-Pad16)*%
X50800000Y-74930000D03*
%TO.P,J1,17,Pin_17*%
%TO.N,unconnected-(J1-Pad17)*%
X50800000Y-72390000D03*
%TO.P,J1,18,Pin_18*%
%TO.N,unconnected-(J1-Pad18)*%
X50800000Y-69850000D03*
%TO.P,J1,19,Pin_19*%
%TO.N,unconnected-(J1-Pad19)*%
X50800000Y-67310000D03*
%TO.P,J1,20,Pin_20*%
%TO.N,unconnected-(J1-Pad20)*%
X50800000Y-64770000D03*
%TD*%
D24*
%TO.P,C1,1*%
%TO.N,VCC*%
X87222500Y-78740000D03*
%TO.P,C1,2*%
%TO.N,GND*%
X85497500Y-78740000D03*
%TD*%
D21*
%TO.P,R3,1*%
%TO.N,H_INT*%
X98147500Y-85090000D03*
%TO.P,R3,2*%
%TO.N,VCC*%
X99972500Y-85090000D03*
%TD*%
D25*
%TO.P,U3,1,GPIN7*%
%TO.N,unconnected-(U3-Pad1)*%
X89530000Y-80800000D03*
%TO.P,U3,2,VL*%
%TO.N,VCC*%
X89530000Y-81300000D03*
%TO.P,U3,3,GND*%
%TO.N,GND*%
X89530000Y-81800000D03*
%TO.P,U3,4,GPOUT0*%
%TO.N,unconnected-(U3-Pad4)*%
X89530000Y-82300000D03*
%TO.P,U3,5,GPOUT1*%
%TO.N,unconnected-(U3-Pad5)*%
X89530000Y-82800000D03*
%TO.P,U3,6,GPOUT2*%
%TO.N,unconnected-(U3-Pad6)*%
X89530000Y-83300000D03*
%TO.P,U3,7,GPOUT3*%
%TO.N,unconnected-(U3-Pad7)*%
X89530000Y-83800000D03*
%TO.P,U3,8,GPOUT4*%
%TO.N,unconnected-(U3-Pad8)*%
X89530000Y-84300000D03*
D26*
%TO.P,U3,9,GPOUT5*%
%TO.N,unconnected-(U3-Pad9)*%
X90960000Y-85730000D03*
%TO.P,U3,10,GPOUT6*%
%TO.N,unconnected-(U3-Pad10)*%
X91460000Y-85730000D03*
%TO.P,U3,11,GPOUT7*%
%TO.N,VUSB_ON*%
X91960000Y-85730000D03*
%TO.P,U3,12,~{RES}*%
%TO.N,H_RESN*%
X92460000Y-85730000D03*
%TO.P,U3,13,SCLK*%
%TO.N,H_SCK*%
X92960000Y-85730000D03*
%TO.P,U3,14,~{SS}*%
%TO.N,H_SS*%
X93460000Y-85730000D03*
%TO.P,U3,15,MISO*%
%TO.N,H_MISO*%
X93960000Y-85730000D03*
%TO.P,U3,16,MOSI*%
%TO.N,H_MOSI*%
X94460000Y-85730000D03*
D25*
%TO.P,U3,17,GPX*%
%TO.N,H_GPX*%
X95890000Y-84300000D03*
%TO.P,U3,18,INT*%
%TO.N,H_INT*%
X95890000Y-83800000D03*
%TO.P,U3,19,GND*%
%TO.N,GND*%
X95890000Y-83300000D03*
%TO.P,U3,20,D-*%
%TO.N,D_MINUS*%
X95890000Y-82800000D03*
%TO.P,U3,21,D+*%
%TO.N,D_PLUS*%
X95890000Y-82300000D03*
%TO.P,U3,22,VBCOMP*%
%TO.N,VBUS_COMP*%
X95890000Y-81800000D03*
%TO.P,U3,23,VCC*%
%TO.N,VCC*%
X95890000Y-81300000D03*
%TO.P,U3,24,XI*%
%TO.N,X1*%
X95890000Y-80800000D03*
D26*
%TO.P,U3,25,XO*%
%TO.N,X0*%
X94460000Y-79370000D03*
%TO.P,U3,26,GPIN0*%
%TO.N,FLAG*%
X93960000Y-79370000D03*
%TO.P,U3,27,GPIN1*%
%TO.N,unconnected-(U3-Pad27)*%
X93460000Y-79370000D03*
%TO.P,U3,28,GPIN2*%
%TO.N,unconnected-(U3-Pad28)*%
X92960000Y-79370000D03*
%TO.P,U3,29,GPIN3*%
%TO.N,unconnected-(U3-Pad29)*%
X92460000Y-79370000D03*
%TO.P,U3,30,GPIN4*%
%TO.N,unconnected-(U3-Pad30)*%
X91960000Y-79370000D03*
%TO.P,U3,31,GPIN5*%
%TO.N,unconnected-(U3-Pad31)*%
X91460000Y-79370000D03*
%TO.P,U3,32,GPIN6*%
%TO.N,unconnected-(U3-Pad32)*%
X90960000Y-79370000D03*
%TD*%
D17*
%TO.P,J2,1,Pin_1*%
%TO.N,GND*%
X111760003Y-113030000D03*
D18*
%TO.P,J2,2,Pin_2*%
%TO.N,5V*%
X111760000Y-110490000D03*
%TO.P,J2,3,Pin_3*%
%TO.N,unconnected-(J2-Pad3)*%
X111760000Y-107950000D03*
%TO.P,J2,4,Pin_4*%
%TO.N,unconnected-(J2-Pad4)*%
X111760000Y-105410000D03*
%TO.P,J2,5,Pin_5*%
%TO.N,unconnected-(J2-Pad5)*%
X111760000Y-102870000D03*
%TO.P,J2,6,Pin_6*%
%TO.N,unconnected-(J2-Pad6)*%
X111760000Y-100330000D03*
%TO.P,J2,7,Pin_7*%
%TO.N,unconnected-(J2-Pad7)*%
X111760000Y-97790000D03*
%TO.P,J2,8,Pin_8*%
%TO.N,unconnected-(J2-Pad8)*%
X111760000Y-95250000D03*
%TO.P,J2,9,Pin_9*%
%TO.N,unconnected-(J2-Pad9)*%
X111760000Y-92710000D03*
%TO.P,J2,10,Pin_10*%
%TO.N,unconnected-(J2-Pad10)*%
X111760000Y-90170000D03*
%TO.P,J2,11,Pin_11*%
%TO.N,unconnected-(J2-Pad11)*%
X111760000Y-87630000D03*
%TO.P,J2,12,Pin_12*%
%TO.N,unconnected-(J2-Pad12)*%
X111760000Y-85090000D03*
%TO.P,J2,13,Pin_13*%
%TO.N,unconnected-(J2-Pad13)*%
X111760000Y-82550000D03*
%TO.P,J2,14,Pin_14*%
%TO.N,unconnected-(J2-Pad14)*%
X111760000Y-80010000D03*
%TO.P,J2,15,Pin_15*%
%TO.N,unconnected-(J2-Pad15)*%
X111760000Y-77470000D03*
%TO.P,J2,16,Pin_16*%
%TO.N,unconnected-(J2-Pad16)*%
X111760000Y-74930000D03*
%TO.P,J2,17,Pin_17*%
%TO.N,unconnected-(J2-Pad17)*%
X111760000Y-72390000D03*
%TO.P,J2,18,Pin_18*%
%TO.N,unconnected-(J2-Pad18)*%
X111760000Y-69850000D03*
%TO.P,J2,19,Pin_19*%
%TO.N,unconnected-(J2-Pad19)*%
X111760000Y-67310000D03*
%TO.P,J2,20,Pin_20*%
%TO.N,unconnected-(J2-Pad20)*%
X111760000Y-64770000D03*
%TD*%
D27*
%TO.P,R4,1*%
%TO.N,D_MINUS*%
X74930000Y-79652500D03*
%TO.P,R4,2*%
%TO.N,Net-(J5-Pad02)*%
X74930000Y-77827500D03*
%TD*%
D17*
%TO.P,J6,1,Pin_1*%
%TO.N,VCC*%
X60970000Y-113030000D03*
D18*
%TO.P,J6,2,Pin_2*%
%TO.N,TXD*%
X63510000Y-113030000D03*
%TO.P,J6,3,Pin_3*%
%TO.N,RXD*%
X66050000Y-113030000D03*
D19*
%TO.P,J6,4,Pin_4*%
%TO.N,GND*%
X68590000Y-113030000D03*
%TD*%
D27*
%TO.P,R7,1*%
%TO.N,D_PLUS*%
X91440000Y-69492500D03*
%TO.P,R7,2*%
%TO.N,Net-(J4-Pad3)*%
X91440000Y-67667500D03*
%TD*%
D28*
%TO.P,R2,1*%
%TO.N,VCC*%
X97790000Y-98147500D03*
%TO.P,R2,2*%
%TO.N,AVR_RESET*%
X97790000Y-99972500D03*
%TD*%
D29*
%TO.P,Y1,1,1*%
%TO.N,Net-(U1-Pad8)*%
X64770000Y-92620000D03*
%TO.P,Y1,2,2*%
%TO.N,Net-(U1-Pad7)*%
X64770000Y-87740000D03*
%TD*%
D30*
%TO.P,U2,1,IN*%
%TO.N,5V*%
X85410000Y-76175000D03*
%TO.P,U2,2,GND*%
%TO.N,GND*%
X86360000Y-76175000D03*
%TO.P,U2,3,ON*%
%TO.N,VUSB_ON*%
X87310000Y-76175000D03*
%TO.P,U2,4,~{FLAG}*%
%TO.N,FLAG*%
X87310000Y-73685000D03*
%TO.P,U2,5,OUT*%
%TO.N,VUSB*%
X85410000Y-73685000D03*
%TD*%
D24*
%TO.P,C3,1*%
%TO.N,GND*%
X99922500Y-81280000D03*
%TO.P,C3,2*%
%TO.N,VBUS_COMP*%
X98197500Y-81280000D03*
%TD*%
D17*
%TO.P,SW1,1*%
%TO.N,GND*%
X91440000Y-96535000D03*
D18*
%TO.P,SW1,2*%
%TO.N,AVR_RESET*%
X91440000Y-101615000D03*
%TD*%
D27*
%TO.P,R6,1*%
%TO.N,D_MINUS*%
X93980000Y-69492500D03*
%TO.P,R6,2*%
%TO.N,Net-(J4-Pad2)*%
X93980000Y-67667500D03*
%TD*%
%TO.P,R5,1*%
%TO.N,D_PLUS*%
X72390000Y-79652500D03*
%TO.P,R5,2*%
%TO.N,Net-(J5-Pad03)*%
X72390000Y-77827500D03*
%TD*%
D31*
%TO.P,J5,01,VCC*%
%TO.N,VUSB*%
X77160000Y-74830000D03*
%TO.P,J5,02,D-*%
%TO.N,Net-(J5-Pad02)*%
X74660000Y-74830000D03*
%TO.P,J5,03,D+*%
%TO.N,Net-(J5-Pad03)*%
X72660000Y-74830000D03*
%TO.P,J5,04,GND*%
%TO.N,GND*%
X70160000Y-74830000D03*
D32*
%TO.P,J5,S1,SHIELD*%
%TO.N,Net-(J5-PadS1)*%
X80910000Y-72580000D03*
%TO.P,J5,S2,SHIELD*%
X66410000Y-72580000D03*
%TD*%
D33*
%TO.N,PIN_TRIG*%
X74930000Y-90170000D03*
%TO.N,GND*%
X87630000Y-71120000D03*
X81280000Y-78740000D03*
X101600000Y-81280000D03*
%TO.N,5V*%
X83820000Y-76200000D03*
%TO.N,D_MINUS*%
X93980000Y-71120000D03*
X74930000Y-81280000D03*
X93980000Y-83820000D03*
%TO.N,D_PLUS*%
X91440000Y-71120000D03*
X93980000Y-82550000D03*
X72390000Y-81280000D03*
%TO.N,VCC*%
X74737011Y-87630000D03*
X101600000Y-85090000D03*
X87630000Y-80010000D03*
X69850000Y-97790000D03*
X97790000Y-96520000D03*
%TO.N,H_RESN*%
X92710000Y-83820000D03*
X76200000Y-95250000D03*
%TO.N,H_SS*%
X76200000Y-93980000D03*
X87630000Y-91440000D03*
%TO.N,H_SCK*%
X81280000Y-95250000D03*
%TO.N,AVR_RESET*%
X76200000Y-85090000D03*
%TO.N,TXD*%
X73660000Y-85090000D03*
%TO.N,RXD*%
X74930000Y-85090000D03*
%TO.N,VUSB_ON*%
X88900000Y-77470000D03*
X91440000Y-83820000D03*
%TD*%
D34*
%TO.N,Net-(U1-Pad8)*%
X69760000Y-92620000D02*
X71950000Y-90430000D01*
X64770000Y-92620000D02*
X69760000Y-92620000D01*
%TO.N,Net-(U1-Pad7)*%
X70900000Y-89630000D02*
X71950000Y-89630000D01*
X64770000Y-87740000D02*
X69010000Y-87740000D01*
X69010000Y-87740000D02*
X70900000Y-89630000D01*
%TO.N,PIN_TRIG*%
X75000000Y-90240000D02*
X74930000Y-90170000D01*
X75000000Y-91880000D02*
X75000000Y-90240000D01*
%TO.N,VCC*%
X74337011Y-87230000D02*
X71950000Y-87230000D01*
X74737011Y-87630000D02*
X74337011Y-87230000D01*
X74737011Y-87822989D02*
X74102011Y-88457989D01*
X76737011Y-89630000D02*
X80450000Y-89630000D01*
X74737011Y-87630000D02*
X76737011Y-89630000D01*
X74737011Y-87630000D02*
X74737011Y-87822989D01*
%TO.N,GND*%
X98079165Y-77180835D02*
X98079165Y-75956721D01*
X85497500Y-78740000D02*
X86360000Y-77877500D01*
X70160000Y-77080776D02*
X71919704Y-78840480D01*
X85090000Y-78740000D02*
X81280000Y-78740000D01*
X93966955Y-71844511D02*
X88354511Y-71844511D01*
X71950000Y-88030000D02*
X71025978Y-88030000D01*
X71025978Y-88030000D02*
X70825489Y-87829511D01*
X71950000Y-86430000D02*
X70900000Y-86430000D01*
X70825489Y-87829511D02*
X70825489Y-86630489D01*
X91410000Y-65082800D02*
X90640480Y-65852320D01*
X97790000Y-77470000D02*
X98079165Y-77180835D01*
X89530000Y-81800000D02*
X88150000Y-81800000D01*
X70160000Y-85690000D02*
X70160000Y-74830000D01*
X70160000Y-74830000D02*
X70160000Y-77080776D01*
X78810000Y-86430000D02*
X79610000Y-87230000D01*
X95890000Y-83300000D02*
X97902500Y-83300000D01*
X86360000Y-77877500D02*
X86360000Y-76175000D01*
X99922500Y-81280000D02*
X101600000Y-81280000D01*
X76707980Y-78840480D02*
X77470000Y-79602500D01*
X81280000Y-78740000D02*
X78332500Y-78740000D01*
X78332500Y-78740000D02*
X77470000Y-79602500D01*
X85497500Y-78740000D02*
X85090000Y-78740000D01*
X88395386Y-81800000D02*
X89530000Y-81800000D01*
X88150000Y-81800000D02*
X85090000Y-78740000D01*
X98079165Y-75956721D02*
X93966955Y-71844511D01*
X71950000Y-86430000D02*
X78810000Y-86430000D01*
X97902500Y-83300000D02*
X99922500Y-81280000D01*
X71919704Y-78840480D02*
X76707980Y-78840480D01*
X90640480Y-68109520D02*
X87630000Y-71120000D01*
X71025978Y-86430000D02*
X71950000Y-86430000D01*
X90640480Y-65852320D02*
X90640480Y-68109520D01*
X79610000Y-87230000D02*
X80450000Y-87230000D01*
X88354511Y-71844511D02*
X87630000Y-71120000D01*
X70825489Y-86630489D02*
X71025978Y-86430000D01*
X70900000Y-86430000D02*
X70160000Y-85690000D01*
%TO.N,5V*%
X83820000Y-76200000D02*
X85385000Y-76200000D01*
X85385000Y-76200000D02*
X85410000Y-76175000D01*
%TO.N,VBUS_COMP*%
X95890000Y-81800000D02*
X97677500Y-81800000D01*
X99776221Y-70849021D02*
X94010000Y-65082800D01*
X99776221Y-79701279D02*
X99776221Y-70849021D01*
X97677500Y-81800000D02*
X98197500Y-81280000D01*
X98197500Y-81280000D02*
X99776221Y-79701279D01*
%TO.N,Net-(J4-Pad2)*%
X93980000Y-67310000D02*
X93360000Y-66690000D01*
X93980000Y-67667500D02*
X93980000Y-67310000D01*
X93360000Y-66690000D02*
X93360000Y-65082800D01*
%TO.N,Net-(J4-Pad3)*%
X92710000Y-66397500D02*
X91440000Y-67667500D01*
X92710000Y-65082800D02*
X92710000Y-66397500D01*
%TO.N,Net-(J4-PadS1)*%
X95910000Y-64857800D02*
X95910000Y-64407800D01*
X95910000Y-64407800D02*
X93910000Y-62407800D01*
X91510000Y-62407800D02*
X93910000Y-62407800D01*
X91510000Y-62857800D02*
X91510000Y-62407800D01*
X89510000Y-64857800D02*
X91510000Y-62857800D01*
%TO.N,VUSB*%
X77470000Y-75140000D02*
X77160000Y-74830000D01*
X77734511Y-75404511D02*
X77160000Y-74830000D01*
X77470000Y-77877500D02*
X77470000Y-75140000D01*
X83690489Y-75404511D02*
X77734511Y-75404511D01*
X85410000Y-73685000D02*
X83690489Y-75404511D01*
%TO.N,Net-(J5-Pad02)*%
X74930000Y-77827500D02*
X74930000Y-75100000D01*
X74930000Y-75100000D02*
X74660000Y-74830000D01*
%TO.N,Net-(J5-Pad03)*%
X72390000Y-77827500D02*
X72660000Y-77557500D01*
X72660000Y-77557500D02*
X72660000Y-74830000D01*
%TO.N,Net-(J5-PadS1)*%
X80910000Y-72580000D02*
X66410000Y-72580000D01*
%TO.N,D_MINUS*%
X95000000Y-82800000D02*
X93980000Y-83820000D01*
X93980000Y-71120000D02*
X93980000Y-69492500D01*
X74930000Y-81280000D02*
X74930000Y-79652500D01*
X95890000Y-82800000D02*
X95000000Y-82800000D01*
%TO.N,D_PLUS*%
X94230000Y-82300000D02*
X93980000Y-82550000D01*
X95890000Y-82300000D02*
X94230000Y-82300000D01*
X91440000Y-71120000D02*
X91440000Y-69492500D01*
X72390000Y-81280000D02*
X72390000Y-79652500D01*
%TO.N,VCC*%
X97790000Y-98147500D02*
X97790000Y-96520000D01*
X73730000Y-88830000D02*
X74102011Y-88457989D01*
X87630000Y-80272379D02*
X87630000Y-80010000D01*
X71477500Y-95250000D02*
X71477500Y-96162500D01*
X71950000Y-88830000D02*
X73730000Y-88830000D01*
X87630000Y-80010000D02*
X87630000Y-79147500D01*
X88657621Y-81300000D02*
X87630000Y-80272379D01*
X89530000Y-81300000D02*
X88657621Y-81300000D01*
X87630000Y-79147500D02*
X87222500Y-78740000D01*
X101600000Y-85090000D02*
X99972500Y-85090000D01*
X71477500Y-96162500D02*
X69850000Y-97790000D01*
X89530000Y-81300000D02*
X95890000Y-81300000D01*
%TO.N,H_RESN*%
X75800000Y-92910489D02*
X75800000Y-91880000D01*
X92460000Y-85730000D02*
X92460000Y-84070000D01*
X76200000Y-95250000D02*
X73302500Y-95250000D01*
X92460000Y-84070000D02*
X92710000Y-83820000D01*
X75475489Y-94525489D02*
X75475489Y-93235000D01*
X76200000Y-95250000D02*
X75475489Y-94525489D01*
X75475489Y-93235000D02*
X75800000Y-92910489D01*
%TO.N,H_SS*%
X88758096Y-91440000D02*
X93460000Y-86738096D01*
X93460000Y-86738096D02*
X93460000Y-85730000D01*
X77400000Y-92780000D02*
X76200000Y-93980000D01*
X77400000Y-91880000D02*
X77400000Y-92780000D01*
X87630000Y-91440000D02*
X88758096Y-91440000D01*
%TO.N,H_MOSI*%
X77359511Y-102769511D02*
X76185000Y-101595000D01*
X94460000Y-85730000D02*
X94460000Y-87521010D01*
X77470000Y-100310000D02*
X76185000Y-101595000D01*
X79211499Y-102769511D02*
X77359511Y-102769511D01*
X77470000Y-93660000D02*
X77470000Y-100310000D01*
X78200000Y-91880000D02*
X78200000Y-92930000D01*
X94460000Y-87521010D02*
X79211499Y-102769511D01*
X78200000Y-92930000D02*
X77470000Y-93660000D01*
%TO.N,H_MISO*%
X78724989Y-99054996D02*
X79000000Y-98779985D01*
X93960000Y-85730000D02*
X93960000Y-87385292D01*
X82290296Y-99054996D02*
X78724989Y-99054996D01*
X79000000Y-98779985D02*
X79000000Y-91880000D01*
X93960000Y-87385292D02*
X82290296Y-99054996D01*
%TO.N,H_SCK*%
X80450000Y-90430000D02*
X80450000Y-94420000D01*
X92960000Y-86602379D02*
X92960000Y-85730000D01*
X89132385Y-90429994D02*
X92960012Y-86602367D01*
X80450000Y-90430000D02*
X89132379Y-90430000D01*
X80450000Y-94420000D02*
X81280000Y-95250000D01*
%TO.N,AVR_RESET*%
X78740000Y-104140000D02*
X81265000Y-101615000D01*
X91440000Y-101615000D02*
X96147500Y-101615000D01*
X81265000Y-101615000D02*
X91440000Y-101615000D01*
X74819500Y-102759500D02*
X76200000Y-104140000D01*
X74819500Y-100229500D02*
X74819500Y-102759500D01*
X75800000Y-84690000D02*
X75800000Y-83380000D01*
X76200000Y-85090000D02*
X75800000Y-84690000D01*
X73645000Y-99055000D02*
X74819500Y-100229500D01*
X96147500Y-101615000D02*
X97790000Y-99972500D01*
X76200000Y-104140000D02*
X78740000Y-104140000D01*
%TO.N,TXD*%
X74200000Y-83380000D02*
X74200000Y-84550000D01*
X74200000Y-84550000D02*
X73660000Y-85090000D01*
%TO.N,RXD*%
X74930000Y-85090000D02*
X74930000Y-83450000D01*
X74930000Y-83450000D02*
X75000000Y-83380000D01*
%TO.N,VUSB_ON*%
X91960000Y-84340000D02*
X91440000Y-83820000D01*
X91960000Y-85730000D02*
X91960000Y-84340000D01*
X88605000Y-77470000D02*
X87310000Y-76175000D01*
X88900000Y-77470000D02*
X88605000Y-77470000D01*
%TO.N,FLAG*%
X93960000Y-79370000D02*
X93960000Y-78497621D01*
X89147379Y-73685000D02*
X87310000Y-73685000D01*
X93960000Y-78497621D02*
X89147379Y-73685000D01*
%TO.N,H_INT*%
X95890000Y-83800000D02*
X96857500Y-83800000D01*
X96857500Y-83800000D02*
X98147500Y-85090000D01*
%TO.N,X1*%
X95890000Y-80800000D02*
X96157056Y-80800000D01*
X96157056Y-80800000D02*
X98638528Y-78318528D01*
%TO.N,X0*%
X94460000Y-79370000D02*
X94460000Y-79102944D01*
X94460000Y-79102944D02*
X96941472Y-76621472D01*
%TD*%
M02*
