%TF.GenerationSoftware,KiCad,Pcbnew,(6.0.5)*%
%TF.CreationDate,2022-09-12T21:51:21+10:00*%
%TF.ProjectId,shield,73686965-6c64-42e6-9b69-6361645f7063,rev?*%
%TF.SameCoordinates,Original*%
%TF.FileFunction,Soldermask,Bot*%
%TF.FilePolarity,Negative*%
%FSLAX46Y46*%
G04 Gerber Fmt 4.6, Leading zero omitted, Abs format (unit mm)*
G04 Created by KiCad (PCBNEW (6.0.5)) date 2022-09-12 21:51:21*
%MOMM*%
%LPD*%
G01*
G04 APERTURE LIST*
%ADD10C,2.006600*%
%ADD11C,1.905000*%
%ADD12C,0.500000*%
%ADD13O,0.900000X1.800000*%
%ADD14C,1.700000*%
%ADD15O,1.700000X1.700000*%
%ADD16R,1.700000X1.700000*%
%ADD17C,1.500000*%
%ADD18C,1.300000*%
G04 APERTURE END LIST*
D10*
%TO.C,J7*%
X78740000Y-111760000D03*
D11*
X76187300Y-109207300D03*
X76187300Y-114312700D03*
X81292700Y-114312700D03*
X81292700Y-109207300D03*
%TD*%
D12*
%TO.C,J4*%
X89410000Y-62407800D03*
X96010000Y-62407800D03*
D13*
X96009993Y-62407800D03*
X89410000Y-62407800D03*
%TD*%
D14*
%TO.C,J3*%
X78724989Y-99054996D03*
D15*
X78725000Y-101595000D03*
X76185000Y-99055000D03*
X76185000Y-101595000D03*
X73645000Y-99055000D03*
D16*
X73644989Y-101594996D03*
%TD*%
D14*
%TO.C,J1*%
X50800000Y-113030000D03*
D15*
X50800000Y-110490000D03*
X50800000Y-107950000D03*
X50800000Y-105410000D03*
X50800000Y-102870000D03*
X50800000Y-100330000D03*
X50800000Y-97790000D03*
X50800000Y-95250000D03*
X50800000Y-92710000D03*
X50800000Y-90170000D03*
X50800000Y-87630000D03*
X50800000Y-85090000D03*
X50800000Y-82550000D03*
X50800000Y-80010000D03*
X50800000Y-77470000D03*
X50800000Y-74930000D03*
X50800000Y-72390000D03*
X50800000Y-69850000D03*
X50800000Y-67310000D03*
X50800000Y-64770000D03*
%TD*%
D14*
%TO.C,J2*%
X111760003Y-113030000D03*
D15*
X111760000Y-110490000D03*
X111760000Y-107950000D03*
X111760000Y-105410000D03*
X111760000Y-102870000D03*
X111760000Y-100330000D03*
X111760000Y-97790000D03*
X111760000Y-95250000D03*
X111760000Y-92710000D03*
X111760000Y-90170000D03*
X111760000Y-87630000D03*
X111760000Y-85090000D03*
X111760000Y-82550000D03*
X111760000Y-80010000D03*
X111760000Y-77470000D03*
X111760000Y-74930000D03*
X111760000Y-72390000D03*
X111760000Y-69850000D03*
X111760000Y-67310000D03*
X111760000Y-64770000D03*
%TD*%
D14*
%TO.C,J6*%
X60970000Y-113030000D03*
D15*
X63510000Y-113030000D03*
X66050000Y-113030000D03*
D16*
X68590000Y-113030000D03*
%TD*%
D17*
%TO.C,Y1*%
X64770000Y-92620000D03*
X64770000Y-87740000D03*
%TD*%
D14*
%TO.C,SW1*%
X91440000Y-96535000D03*
D15*
X91440000Y-101615000D03*
%TD*%
D18*
%TO.C,J5*%
X76160000Y-70980000D03*
X71160000Y-70980000D03*
%TD*%
M02*
