M48
; DRILL file {KiCad (6.0.5)} date Mon Sep 12 21:51:23 2022
; FORMAT={-:-/ absolute / inch / decimal}
; #@! TF.CreationDate,2022-09-12T21:51:23+10:00
; #@! TF.GenerationSoftware,Kicad,Pcbnew,(6.0.5)
; #@! TF.FileFunction,Plated,1,4,PTH
FMAT,2
INCH
; #@! TA.AperFunction,Plated,PTH,ViaDrill
T1C0.0157
; #@! TA.AperFunction,Plated,PTH,ComponentDrill
T2C0.0197
; #@! TA.AperFunction,Plated,PTH,ComponentDrill
T3C0.0315
; #@! TA.AperFunction,Plated,PTH,ComponentDrill
T4C0.0394
; #@! TA.AperFunction,Plated,PTH,ComponentDrill
T5C0.0550
; #@! TA.AperFunction,Plated,PTH,ComponentDrill
T6C0.0590
%
G90
G05
T1
X2.75Y-3.85
X2.85Y-3.2
X2.9Y-3.35
X2.9424Y-3.45
X2.95Y-3.2
X2.95Y-3.35
X2.95Y-3.55
X3.0Y-3.35
X3.0Y-3.7
X3.0Y-3.75
X3.2Y-3.1
X3.2Y-3.75
X3.3Y-3.0
X3.45Y-2.8
X3.45Y-3.15
X3.45Y-3.6
X3.5Y-3.05
X3.6Y-2.8
X3.6Y-3.3
X3.65Y-3.3
X3.7Y-2.8
X3.7Y-3.25
X3.7Y-3.3
X3.85Y-3.8
X4.0Y-3.2
X4.0Y-3.35
T3
X2.55Y-3.4543
X2.55Y-3.6465
T4
X2.0Y-2.55
X2.0Y-2.65
X2.0Y-2.75
X2.0Y-2.85
X2.0Y-2.95
X2.0Y-3.05
X2.0Y-3.15
X2.0Y-3.25
X2.0Y-3.35
X2.0Y-3.45
X2.0Y-3.55
X2.0Y-3.65
X2.0Y-3.75
X2.0Y-3.85
X2.0Y-3.95
X2.0Y-4.05
X2.0Y-4.15
X2.0Y-4.25
X2.0Y-4.35
X2.0Y-4.45
X2.4004Y-4.45
X2.5004Y-4.45
X2.6004Y-4.45
X2.7004Y-4.45
X2.8994Y-3.9998
X2.8994Y-3.8998
X2.9994Y-3.8998
X2.9994Y-3.9998
X3.0994Y-3.8998
X3.0994Y-3.9998
X3.6Y-3.8006
X3.6Y-4.0006
X4.4Y-2.55
X4.4Y-2.65
X4.4Y-2.75
X4.4Y-2.85
X4.4Y-2.95
X4.4Y-3.05
X4.4Y-3.15
X4.4Y-3.25
X4.4Y-3.35
X4.4Y-3.45
X4.4Y-3.55
X4.4Y-3.65
X4.4Y-3.75
X4.4Y-3.85
X4.4Y-3.95
X4.4Y-4.05
X4.4Y-4.15
X4.4Y-4.25
X4.4Y-4.35
X4.4Y-4.45
T5
X2.9995Y-4.2995
X2.9995Y-4.5005
X3.2005Y-4.2995
X3.2005Y-4.5005
T6
X3.1Y-4.4
T2
G00X3.5201Y-2.4708
M15
G01X3.5201Y-2.4432
M16
G05
G00X3.7799Y-2.4708
M15
G01X3.7799Y-2.4432
M16
G05
T0
M30
